<?xml version="1.0" encoding="UTF-8" standalone="no"?>
<!-- Created with Inkscape (http://www.inkscape.org/) -->

<svg
   xmlns:dc="http://purl.org/dc/elements/1.1/"
   xmlns:cc="http://creativecommons.org/ns#"
   xmlns:rdf="http://www.w3.org/1999/02/22-rdf-syntax-ns#"
   xmlns:svg="http://www.w3.org/2000/svg"
   xmlns="http://www.w3.org/2000/svg"
   xmlns:sodipodi="http://sodipodi.sourceforge.net/DTD/sodipodi-0.dtd"
   xmlns:inkscape="http://www.inkscape.org/namespaces/inkscape"
   version="1.1"
   id="svg4156"
   xml:space="preserve"
   width="3386.8401"
   height="2666.6667"
   viewBox="0 0 3386.8401 2666.6667"
   sodipodi:docname="19283.svg"
   inkscape:version="0.92.4 (unknown)"><metadata
     id="metadata4162"><rdf:RDF><cc:Work
         rdf:about=""><dc:format>image/svg+xml</dc:format><dc:type
           rdf:resource="http://purl.org/dc/dcmitype/StillImage" /></cc:Work></rdf:RDF></metadata><defs
     id="defs4160"><clipPath
       clipPathUnits="userSpaceOnUse"
       id="clipPath4178"><path
         d="m 7265.07,11368.9 c 251.56,-549 392.93,-1068.4 207.68,-1300.1 -10.95,-13.7 -22.9,-26.3 -35.84,-37.7 -142.69,-125.7 -423.3,-128.5 -897.07,58.6 -1260.88,498.1 -1320.73,1357.6 -1575.75,2197 -251.4,828.9 -1129.59,688.8 -1151.98,685.1 2046.23,712.7 3026.15,-672.2 3452.96,-1602.9 z"
         id="path4176"
         inkscape:connector-curvature="0" /></clipPath><linearGradient
       x1="0"
       y1="0"
       x2="1"
       y2="0"
       gradientUnits="userSpaceOnUse"
       gradientTransform="matrix(-3875.51,208.795,-208.795,-3875.51,7617.97,11470.1)"
       spreadMethod="pad"
       id="linearGradient4184"><stop
         style="stop-opacity:1;stop-color:#40d5e6"
         offset="0"
         id="stop4180" /><stop
         style="stop-opacity:1;stop-color:#5577ff"
         offset="1"
         id="stop4182" /></linearGradient><clipPath
       clipPathUnits="userSpaceOnUse"
       id="clipPath4194"><path
         d="m 7472.75,10068.8 c -10.95,-13.7 -22.9,-26.3 -35.84,-37.7 -236.85,142.7 -690.36,445.2 -904.19,784.8 -100.85,160.3 -185.6,340.5 -275.53,531.1 -169.64,360.6 -345.43,733.5 -652.11,1019.5 l 34.19,36.8 c 313.7,-292.7 491.35,-670 663.2,-1035 89.13,-189.3 173.24,-368.1 272.69,-525.6 208.5,-331.3 666.72,-635 897.59,-773.9 z"
         id="path4192"
         inkscape:connector-curvature="0" /></clipPath><linearGradient
       x1="0"
       y1="0"
       x2="1"
       y2="0"
       gradientUnits="userSpaceOnUse"
       gradientTransform="matrix(-1806.54,2045.32,2045.32,1806.54,7735.34,9736.2)"
       spreadMethod="pad"
       id="linearGradient4200"><stop
         style="stop-opacity:1;stop-color:#40d5e6"
         offset="0"
         id="stop4196" /><stop
         style="stop-opacity:1;stop-color:#5577ff"
         offset="1"
         id="stop4198" /></linearGradient><clipPath
       clipPathUnits="userSpaceOnUse"
       id="clipPath4210"><path
         d="m 7045.98,11144.6 c -14.84,-36.5 -24.44,-57.2 -25.49,-59.5 -3.87,20.2 -7.64,40.2 -11.47,59.5 -168.21,861.9 -393.14,951.9 -1067.58,1705.8 -689.73,771.1 -293.08,1489.5 -293.08,1489.5 2310.72,-667.7 1554.65,-2810 1397.62,-3195.3 z"
         id="path4208"
         inkscape:connector-curvature="0" /></clipPath><linearGradient
       x1="0"
       y1="0"
       x2="1"
       y2="0"
       gradientUnits="userSpaceOnUse"
       gradientTransform="matrix(-1834.5,98.8346,-98.8346,-1834.5,7310.08,12659.9)"
       spreadMethod="pad"
       id="linearGradient4216"><stop
         style="stop-opacity:1;stop-color:#40d5e6"
         offset="0"
         id="stop4212" /><stop
         style="stop-opacity:1;stop-color:#5577ff"
         offset="1"
         id="stop4214" /></linearGradient><clipPath
       clipPathUnits="userSpaceOnUse"
       id="clipPath4226"><path
         d="m 7045.98,11144.6 c -14.84,-36.5 -24.44,-57.2 -25.49,-59.5 -3.87,20.2 -7.64,40.2 -11.47,59.5 74.85,745.1 -374.64,1619.4 -515.88,1776.3 -146.14,162.4 -236.19,385.8 -270.19,470 -5.73,14 -11.09,27.3 -12.84,30.4 l 32.59,18.4 c 2.86,-5.1 6.59,-14.4 14.91,-34.8 33.24,-82.5 121.65,-301.4 263.43,-458.8 178.98,-199 593.64,-1077.5 524.94,-1801.5 z"
         id="path4224"
         inkscape:connector-curvature="0" /></clipPath><linearGradient
       x1="0"
       y1="0"
       x2="1"
       y2="0"
       gradientUnits="userSpaceOnUse"
       gradientTransform="matrix(-1317.54,2333.09,2333.09,1317.54,7228.12,11223.6)"
       spreadMethod="pad"
       id="linearGradient4232"><stop
         style="stop-opacity:1;stop-color:#40d5e6"
         offset="0"
         id="stop4228" /><stop
         style="stop-opacity:1;stop-color:#5577ff"
         offset="1"
         id="stop4230" /></linearGradient><clipPath
       clipPathUnits="userSpaceOnUse"
       id="clipPath4308"><path
         d="M 7158.23,14036.3 H 18271.3 v 975.8 H 7158.23 Z"
         id="path4306"
         inkscape:connector-curvature="0" /></clipPath><linearGradient
       x1="0"
       y1="0"
       x2="1"
       y2="0"
       gradientUnits="userSpaceOnUse"
       gradientTransform="matrix(11113.1,0,0,-11113.1,7158.23,14524.2)"
       spreadMethod="pad"
       id="linearGradient4316"><stop
         style="stop-opacity:1;stop-color:#40d5e6"
         offset="0"
         id="stop4312" /><stop
         style="stop-opacity:1;stop-color:#5577ff"
         offset="1"
         id="stop4314" /></linearGradient><clipPath
       clipPathUnits="userSpaceOnUse"
       id="clipPath4378"><path
         d="m 5869.42,9604.1 c -189.18,90.5 -377.47,-511.8 -377.47,-511.8 -321.55,-424.9 -770.93,140.4 -726.99,-494.8 76.89,-1111.4 -1279.33,-349.5 -653.65,-1509.9 625.68,-1160.4 -552.47,-656.1 -163.64,-1591.8 388.83,-935.6 -115.14,-2051.6 469.91,-1593 0,0 515.14,1129.7 1046.4,1479.2 531.27,349.5 -318.27,764.2 -152.05,1238.9 241.43,689.5 823.13,662.5 403.7,1403.4 -419.41,741 796.91,1272.3 153.79,1579.8 z"
         id="path4376"
         inkscape:connector-curvature="0" /></clipPath><linearGradient
       x1="0"
       y1="0"
       x2="1"
       y2="0"
       gradientUnits="userSpaceOnUse"
       gradientTransform="matrix(-2194.06,0,0,-2194.06,6061.13,6704.9)"
       spreadMethod="pad"
       id="linearGradient4384"><stop
         style="stop-opacity:1;stop-color:#40d5e6"
         offset="0"
         id="stop4380" /><stop
         style="stop-opacity:1;stop-color:#5577ff"
         offset="1"
         id="stop4382" /></linearGradient><clipPath
       clipPathUnits="userSpaceOnUse"
       id="clipPath4396"><path
         d="m 2912.32,6609.5 c -150.2,82 -311.29,98.5 -374.66,38.4 -48.17,-45.6 -25.45,-123.8 2.09,-181.4 52.54,-109.9 118.99,-177.7 177.62,-237.5 81.51,-83.1 145.89,-148.8 113.25,-276.4 -6.41,-25 -13.79,-50.3 -21.21,-75.6 -51.8,-177.2 -100.74,-344.6 170.51,-466.5 63.7,-28.7 122.09,-51.6 173.61,-71.8 214.61,-84.2 356.4,-139.9 508.39,-460.7 28.29,-59.7 53.16,-116.1 77.21,-170.6 131.19,-297.3 210.39,-476.8 497.21,-418.8 82.21,16.6 135.78,59 159.21,126 60.24,172.3 -83.9,473.9 -211.16,625.4 -9.32,11.2 -228.1,277.9 -204.06,659.6 3.92,62.1 10.31,119.2 15.96,169.6 14.95,133.5 25.76,229.9 -23.76,285.5 -45.27,50.9 -144.38,74 -321.32,74.8 -355.33,1.7 -495.6,148.6 -608.31,266.6 -45.1,47.2 -84.04,88 -130.58,113.4 z m 788.43,-1919 c -23.93,54.2 -48.7,110.3 -76.74,169.5 -144.87,305.9 -273.2,356.2 -485.81,439.7 -51.95,20.3 -110.84,43.4 -175.48,72.5 -304.56,136.9 -245.59,338.6 -193.55,516.5 7.27,24.9 14.53,49.8 20.82,74.3 26.79,104.7 -24.68,157.2 -102.58,236.7 -57.9,59 -129.95,132.6 -185.5,248.7 -60.79,127.1 -29.8,195.2 6.9,230 77.26,73.2 255.42,59.7 423.61,-32.1 v 0 c 52.26,-28.5 95.28,-73.6 140.81,-121.3 107.23,-112.3 240.68,-252 578.18,-253.6 192.45,-0.9 297.85,-27.4 352.45,-88.8 61.96,-69.6 50.28,-173.8 34.11,-318.1 -5.6,-49.9 -11.93,-106.4 -15.77,-167.5 -22.96,-364.5 192.22,-627.5 194.35,-630.1 128.57,-153.1 286.96,-470.7 218.59,-666.2 -28.66,-81.9 -92.75,-133.5 -190.48,-153.2 -38.96,-7.9 -74.51,-11.7 -107.23,-11.7 -236.03,0 -322.47,195.8 -436.68,454.7 z"
         id="path4394"
         inkscape:connector-curvature="0" /></clipPath><linearGradient
       x1="0"
       y1="0"
       x2="1"
       y2="0"
       gradientUnits="userSpaceOnUse"
       gradientTransform="matrix(-1984.12,0,0,-1984.12,4451.61,5480.6)"
       spreadMethod="pad"
       id="linearGradient4402"><stop
         style="stop-opacity:1;stop-color:#40d5e6"
         offset="0"
         id="stop4398" /><stop
         style="stop-opacity:1;stop-color:#5577ff"
         offset="1"
         id="stop4400" /></linearGradient><clipPath
       clipPathUnits="userSpaceOnUse"
       id="clipPath4412"><path
         d="m 4240.13,3993.7 41.88,2.2 c -2.06,39.3 -54.9,966.9 -427.31,1238.3 -408.58,297.9 -537.4,617.9 -598.74,832.7 -72.3,253.2 -440.25,320.8 -455.87,323.6 l -7.3,-41.3 c 3.57,-0.7 357.77,-65.9 422.84,-293.8 63.05,-220.8 195.34,-549.6 614.36,-855 356.45,-259.9 409.65,-1197.3 410.14,-1206.7 z"
         id="path4410"
         inkscape:connector-curvature="0" /></clipPath><linearGradient
       x1="0"
       y1="0"
       x2="1"
       y2="0"
       gradientUnits="userSpaceOnUse"
       gradientTransform="matrix(-1489.22,0,0,-1489.22,4282.01,5192.1)"
       spreadMethod="pad"
       id="linearGradient4418"><stop
         style="stop-opacity:1;stop-color:#40d5e6"
         offset="0"
         id="stop4414" /><stop
         style="stop-opacity:1;stop-color:#5577ff"
         offset="1"
         id="stop4416" /></linearGradient><clipPath
       clipPathUnits="userSpaceOnUse"
       id="clipPath4428"><path
         d="m 3388.64,8668.1 c 264.7,90.8 209.71,-419.4 321.56,-796.9 111.84,-377.5 1244.27,-164.7 768.93,-1109.9 -475.34,-945.2 601.16,-316.1 279.61,-1141 -321.55,-824.8 -27.96,-1707 -377.48,-1482.6 -349.51,224.4 -196.36,1263.1 -559.85,1386.5 -363.5,123.4 -422.82,267.4 -62.91,602.9 359.9,335.6 -943.07,668.7 -621.52,1346.2 321.56,677.5 -54.16,1090 251.66,1194.8 z"
         id="path4426"
         inkscape:connector-curvature="0" /></clipPath><linearGradient
       x1="0"
       y1="0"
       x2="1"
       y2="0"
       gradientUnits="userSpaceOnUse"
       gradientTransform="matrix(-1734.34,0,0,-1734.34,4819.79,6390.5)"
       spreadMethod="pad"
       id="linearGradient4434"><stop
         style="stop-opacity:1;stop-color:#40d5e6"
         offset="0"
         id="stop4430" /><stop
         style="stop-opacity:1;stop-color:#5577ff"
         offset="1"
         id="stop4432" /></linearGradient><clipPath
       clipPathUnits="userSpaceOnUse"
       id="clipPath4446"><path
         d="M 5217.78,4619.7 4839.86,3185.9 h -844.57 l -377.92,1433.8 z"
         id="path4444"
         inkscape:connector-curvature="0" /></clipPath><linearGradient
       x1="0"
       y1="0"
       x2="1"
       y2="0"
       gradientUnits="userSpaceOnUse"
       gradientTransform="matrix(1600.41,0,0,-1600.41,3617.37,3902.8)"
       spreadMethod="pad"
       id="linearGradient4452"><stop
         style="stop-opacity:1;stop-color:#ff9340"
         offset="0"
         id="stop4448" /><stop
         style="stop-opacity:1;stop-color:#ffce45"
         offset="1"
         id="stop4450" /></linearGradient><clipPath
       clipPathUnits="userSpaceOnUse"
       id="clipPath4462"><path
         d="m 5217.78,4619.7 c 0,0 -831.98,-156.2 -831.98,-1433.8 h -390.51 l -377.92,1433.8 z"
         id="path4460"
         inkscape:connector-curvature="0" /></clipPath><linearGradient
       x1="0"
       y1="0"
       x2="1"
       y2="0"
       gradientUnits="userSpaceOnUse"
       gradientTransform="matrix(1600.41,0,0,-1600.41,3617.37,3902.8)"
       spreadMethod="pad"
       id="linearGradient4468"><stop
         style="stop-opacity:1;stop-color:#c97332"
         offset="0"
         id="stop4464" /><stop
         style="stop-opacity:1;stop-color:#ffce45"
         offset="1"
         id="stop4466" /></linearGradient><clipPath
       clipPathUnits="userSpaceOnUse"
       id="clipPath4794"><path
         d="m 13268.3,11969.4 c -469,0 -876.6,182.3 -1301.6,372.4 -524.6,234.6 -1067.1,477.3 -1789.9,410.8 -461.55,-42.4 -751.25,-211.5 -1006.85,-360.6 -231.43,-135.1 -450.24,-253.8 -746.58,-264 -478.92,-16.4 -645.06,167.3 -647.84,178.6 v 117.8 0 0 c 0.6,-2 105.16,-208.2 647.33,-205.7 267,1.2 464.06,116.2 692.24,249.3 265.16,154.8 565.71,330.1 1051.5,374.8 751.7,69.1 1307.5,-179.5 1845,-419.9 562.4,-251.5 1099.1,-487.4 1777.7,-282.7 v -97 c -193.5,-58.3 -348.2,-73.8 -521,-73.8 z"
         id="path4792"
         inkscape:connector-curvature="0" /></clipPath><linearGradient
       x1="0"
       y1="0"
       x2="1"
       y2="0"
       gradientUnits="userSpaceOnUse"
       gradientTransform="matrix(-6135.89,-5.364e-4,-5.364e-4,6135.89,14450.9,12412)"
       spreadMethod="pad"
       id="linearGradient4800"><stop
         style="stop-opacity:1;stop-color:#40d5e6"
         offset="0"
         id="stop4796" /><stop
         style="stop-opacity:1;stop-color:#5577ff"
         offset="1"
         id="stop4798" /></linearGradient><clipPath
       clipPathUnits="userSpaceOnUse"
       id="clipPath4810"><path
         d="m 10453.5,11992 c -346.1,-0.1 -620.64,209.3 -889.41,414.3 -203.79,155.4 -415.21,314.3 -659.27,392.6 -744.83,239.2 -1125.88,-197.5 -1129.29,-201.4 v 132.9 c 4.02,4.5 72,83.9 268.64,159.7 179.04,69 479.42,124.1 893.76,-5.5 262.49,-82.2 480.5,-248.4 691.33,-409.2 427.64,-326.1 797.04,-607.7 1438.44,-166.6 485.9,334.1 943.8,652.6 1394.4,768.9 440.8,113.8 900.3,30.5 1330.4,-356.4 l -3.2,-120.6 c -913.6,825.3 -1691.6,302.4 -2660.4,-363.9 -256.6,-176.5 -477.7,-244.8 -675.4,-244.8 z"
         id="path4808"
         inkscape:connector-curvature="0" /></clipPath><linearGradient
       x1="0"
       y1="0"
       x2="1"
       y2="0"
       gradientUnits="userSpaceOnUse"
       gradientTransform="matrix(6016.93,0,0,-6016.93,7775.53,12558.3)"
       spreadMethod="pad"
       id="linearGradient4816"><stop
         style="stop-opacity:1;stop-color:#40d5e6"
         offset="0"
         id="stop4812" /><stop
         style="stop-opacity:1;stop-color:#5577ff"
         offset="1"
         id="stop4814" /></linearGradient></defs><sodipodi:namedview
     pagecolor="#ffffff"
     bordercolor="#666666"
     borderopacity="1"
     objecttolerance="10"
     gridtolerance="10"
     guidetolerance="10"
     inkscape:pageopacity="0"
     inkscape:pageshadow="2"
     inkscape:window-width="1920"
     inkscape:window-height="1029"
     id="namedview4158"
     showgrid="false"
     inkscape:zoom="0.70799998"
     inkscape:cx="1168.23"
     inkscape:cy="1497.6496"
     inkscape:window-x="0"
     inkscape:window-y="28"
     inkscape:window-maximized="1"
     inkscape:current-layer="g4166" /><g
     id="g4164"
     inkscape:groupmode="layer"
     inkscape:label="ink_ext_XXXXXX"
     transform="matrix(1.3333333,0,0,-1.3333333,0,2666.6667)"><g
       id="g4166"
       transform="scale(0.1)"><g
         id="g4172"><g
           id="g4174"
           clip-path="url(#clipPath4178)"><path
             d="m 7265.07,11368.9 c 251.56,-549 392.93,-1068.4 207.68,-1300.1 -10.95,-13.7 -22.9,-26.3 -35.84,-37.7 -142.69,-125.7 -423.3,-128.5 -897.07,58.6 -1260.88,498.1 -1320.73,1357.6 -1575.75,2197 -251.4,828.9 -1129.59,688.8 -1151.98,685.1 2046.23,712.7 3026.15,-672.2 3452.96,-1602.9"
             style="fill:url(#linearGradient4184);fill-opacity:1;fill-rule:nonzero;stroke:none"
             id="path4186"
             inkscape:connector-curvature="0" /></g></g><g
         id="g4188"><g
           id="g4190"
           clip-path="url(#clipPath4194)"><path
             d="m 7472.75,10068.8 c -10.95,-13.7 -22.9,-26.3 -35.84,-37.7 -236.85,142.7 -690.36,445.2 -904.19,784.8 -100.85,160.3 -185.6,340.5 -275.53,531.1 -169.64,360.6 -345.43,733.5 -652.11,1019.5 l 34.19,36.8 c 313.7,-292.7 491.35,-670 663.2,-1035 89.13,-189.3 173.24,-368.1 272.69,-525.6 208.5,-331.3 666.72,-635 897.59,-773.9"
             style="fill:url(#linearGradient4200);fill-opacity:1;fill-rule:nonzero;stroke:none"
             id="path4202"
             inkscape:connector-curvature="0" /></g></g><g
         id="g4204"><g
           id="g4206"
           clip-path="url(#clipPath4210)"><path
             d="m 7045.98,11144.6 c -14.84,-36.5 -24.44,-57.2 -25.49,-59.5 -3.87,20.2 -7.64,40.2 -11.47,59.5 -168.21,861.9 -393.14,951.9 -1067.58,1705.8 -689.73,771.1 -293.08,1489.5 -293.08,1489.5 2310.72,-667.7 1554.65,-2810 1397.62,-3195.3"
             style="fill:url(#linearGradient4216);fill-opacity:1;fill-rule:nonzero;stroke:none"
             id="path4218"
             inkscape:connector-curvature="0" /></g></g><g
         id="g4220"><g
           id="g4222"
           clip-path="url(#clipPath4226)"><path
             d="m 7045.98,11144.6 c -14.84,-36.5 -24.44,-57.2 -25.49,-59.5 -3.87,20.2 -7.64,40.2 -11.47,59.5 74.85,745.1 -374.64,1619.4 -515.88,1776.3 -146.14,162.4 -236.19,385.8 -270.19,470 -5.73,14 -11.09,27.3 -12.84,30.4 l 32.59,18.4 c 2.86,-5.1 6.59,-14.4 14.91,-34.8 33.24,-82.5 121.65,-301.4 263.43,-458.8 178.98,-199 593.64,-1077.5 524.94,-1801.5"
             style="fill:url(#linearGradient4232);fill-opacity:1;fill-rule:nonzero;stroke:none"
             id="path4234"
             inkscape:connector-curvature="0" /></g></g><g
         id="g4236"
         transform="scale(1.2807)"><path
           d="m 15734.4,11468.3 -222.3,364.1 c -18.3,29.8 -8.9,68.8 21,87 29.9,18.3 68.8,8.8 87,-21 l 157.3,-257.5 418,247.5 c 30.1,17.8 69,7.8 86.8,-22.3 17.8,-30.1 7.9,-68.9 -22.3,-86.8 l -525.5,-311"
           style="fill:#f0c141;fill-opacity:1;fill-rule:nonzero;stroke:none"
           id="path4238"
           inkscape:connector-curvature="0" /></g><g
         id="g4240"
         transform="scale(1.31082)"><path
           d="m 15518.7,12107.4 c -369.3,0 -669.7,-300.4 -669.7,-669.7 0,-369.2 300.4,-669.7 669.7,-669.7 369.3,0 669.7,300.5 669.7,669.7 0,369.3 -300.4,669.7 -669.7,669.7 z m 0,-1451 c -430.8,0 -781.3,350.5 -781.3,781.3 0,430.8 350.5,781.3 781.3,781.3 430.8,0 781.3,-350.5 781.3,-781.3 0,-430.8 -350.5,-781.3 -781.3,-781.3"
           style="fill:#f0c141;fill-opacity:1;fill-rule:nonzero;stroke:none"
           id="path4242"
           inkscape:connector-curvature="0" /></g><g
         id="g4244"
         transform="scale(1.06914)"><path
           d="m 15881.3,15146.5 -164.7,269.5 c -13.4,22.1 -6.4,51 15.7,64.5 22,13.5 50.9,6.5 64.4,-15.6 l 116.4,-190.6 309.5,183.2 c 22.2,13.1 51,5.8 64.2,-16.5 13.2,-22.3 5.8,-51.1 -16.4,-64.2 l -389.1,-230.3"
           style="fill:#f0c141;fill-opacity:1;fill-rule:nonzero;stroke:none"
           id="path4246"
           inkscape:connector-curvature="0" /></g><g
         id="g4248"
         transform="scale(1.08775)"><path
           d="m 15718.2,15559.5 c -275,0 -498.8,-223.7 -498.8,-498.7 0,-275 223.8,-498.7 498.8,-498.7 274.9,0 498.7,223.7 498.7,498.7 0,275 -223.8,498.7 -498.7,498.7 z m 0,-1080.5 c -320.9,0 -581.9,261 -581.9,581.8 0,320.8 261,581.9 581.9,581.9 320.8,0 581.8,-261.1 581.8,-581.9 0,-320.8 -261,-581.8 -581.8,-581.8"
           style="fill:#f0c141;fill-opacity:1;fill-rule:nonzero;stroke:none"
           id="path4250"
           inkscape:connector-curvature="0" /></g><g
         id="g4252"
         transform="scale(1.09369)"><path
           d="m 12549.1,15779 -246.9,404.1 c -20.2,33.1 -9.8,76.4 23.4,96.7 33.1,20.2 76.4,9.7 96.7,-23.4 l 174.5,-285.8 464,274.7 c 33.4,19.7 76.6,8.7 96.3,-24.7 19.9,-33.4 8.8,-76.6 -24.7,-96.3 l -583.3,-345.3"
           style="fill:#f0c141;fill-opacity:1;fill-rule:nonzero;stroke:none"
           id="path4254"
           inkscape:connector-curvature="0" /></g><g
         id="g4256"
         transform="scale(1.13605)"><path
           d="m 12240.6,16177.9 c -403.8,0 -732.5,-328.6 -732.5,-732.5 0,-403.9 328.7,-732.5 732.5,-732.5 404,0 732.6,328.6 732.6,732.5 0,403.9 -328.6,732.5 -732.6,732.5 z m 0,-1587.1 c -471.2,0 -854.6,383.4 -854.6,854.6 0,471.2 383.4,854.6 854.6,854.6 471.3,0 854.7,-383.4 854.7,-854.6 0,-471.2 -383.4,-854.6 -854.7,-854.6"
           style="fill:#f0c141;fill-opacity:1;fill-rule:nonzero;stroke:none"
           id="path4258"
           inkscape:connector-curvature="0" /></g><g
         id="g4260"
         transform="scale(1.01683)"><path
           d="m 10689.4,15929.7 -175.5,287.2 c -14.3,23.6 -6.9,54.3 16.7,68.7 23.5,14.4 54.3,7 68.6,-16.6 l 124.1,-203.1 329.9,195.2 c 23.7,14.1 54.4,6.2 68.4,-17.6 14.1,-23.7 6.2,-54.4 -17.6,-68.4 l -414.6,-245.4"
           style="fill:#f0c141;fill-opacity:1;fill-rule:nonzero;stroke:none"
           id="path4262"
           inkscape:connector-curvature="0" /></g><g
         id="g4264"
         transform="scale(1.04482)"><path
           d="m 10517.7,16212.3 c -290.2,0 -526.34,-236.1 -526.34,-526.3 0,-290.2 236.14,-526.3 526.34,-526.3 290.2,0 526.3,236.1 526.3,526.3 0,290.2 -236.1,526.3 -526.3,526.3 z m 0,-1140.3 c -338.7,0 -614.11,275.4 -614.11,614 0,338.6 275.41,614 614.11,614 338.5,0 614,-275.4 614,-614 0,-338.6 -275.5,-614 -614,-614"
           style="fill:#f0c141;fill-opacity:1;fill-rule:nonzero;stroke:none"
           id="path4266"
           inkscape:connector-curvature="0" /></g><g
         id="g4268"
         transform="scale(1.10872)"><path
           d="m 7543.08,15874.9 -201.4,329.7 c -16.52,27.1 -7.98,62.4 19.06,78.9 27.04,16.5 62.34,8 78.86,-19.1 l 142.43,-233.2 378.64,224.1 c 27.28,16.2 62.46,7.2 78.6,-20.1 16.14,-27.3 7.12,-62.5 -20.15,-78.6 l -476.04,-281.7"
           style="fill:#f0c141;fill-opacity:1;fill-rule:nonzero;stroke:none"
           id="path4270"
           inkscape:connector-curvature="0" /></g><g
         id="g4272"
         transform="scale(1.14376)"><path
           d="m 7443.07,16199.7 c -331.85,0 -601.84,-270 -601.84,-601.8 0,-331.9 269.99,-601.9 601.84,-601.9 331.85,0 601.84,270 601.84,601.9 0,331.8 -269.99,601.8 -601.84,601.8 z m 0,-1304 c -387.17,0 -702.15,315 -702.15,702.2 0,387.1 314.98,702.1 702.15,702.1 387.16,0 702.14,-315 702.14,-702.1 0,-387.2 -314.98,-702.2 -702.14,-702.2"
           style="fill:#f0c141;fill-opacity:1;fill-rule:nonzero;stroke:none"
           id="path4274"
           inkscape:connector-curvature="0" /></g><g
         id="g4276"
         transform="scale(1.00035)"><path
           d="m 5516.59,15777.6 -247.49,405.2 c -20.31,33.2 -9.81,76.6 23.42,96.9 33.22,20.3 76.61,9.8 96.9,-23.4 l 175.01,-286.5 465.27,275.3 c 33.5,19.9 76.74,8.8 96.58,-24.7 19.82,-33.5 8.73,-76.8 -24.78,-96.6 l -584.91,-346.2"
           style="fill:#f0c141;fill-opacity:1;fill-rule:nonzero;stroke:none"
           id="path4278"
           inkscape:connector-curvature="0" /></g><g
         id="g4280"
         transform="scale(1.0392)"><path
           d="m 5470.31,16177.6 c -404.94,0 -734.38,-329.4 -734.38,-734.4 0,-404.9 329.44,-734.3 734.38,-734.3 404.92,0 734.36,329.4 734.36,734.3 0,405 -329.44,734.4 -734.36,734.4 z m 0,-1591.1 c -472.43,0 -856.78,384.3 -856.78,856.7 0,472.5 384.35,856.8 856.78,856.8 472.41,0 856.75,-384.3 856.75,-856.8 0,-472.4 -384.34,-856.7 -856.75,-856.7"
           style="fill:#f0c141;fill-opacity:1;fill-rule:nonzero;stroke:none"
           id="path4282"
           inkscape:connector-curvature="0" /></g><g
         id="g4284"
         transform="scale(1.19383)"><path
           d="m 16000,14616.7 -117.8,193 c -9.7,15.9 -4.7,36.5 11.1,46.2 15.9,9.7 36.5,4.7 46.2,-11.2 l 83.4,-136.5 221.6,131.2 c 16,9.5 36.7,4.2 46.1,-11.8 9.4,-15.9 4.1,-36.5 -11.8,-46 l -278.8,-164.9"
           style="fill:#f0c141;fill-opacity:1;fill-rule:nonzero;stroke:none"
           id="path4286"
           inkscape:connector-curvature="0" /></g><g
         id="g4288"
         transform="scale(1.20872)"><path
           d="m 15881.2,14920.5 c -198,0 -359.1,-161 -359.1,-359 0,-198 161.1,-359 359.1,-359 197.9,0 359,161 359,359 0,198 -161.1,359 -359,359 z m 0,-777.9 c -231,0 -418.9,187.9 -418.9,418.9 0,231 187.9,418.8 418.9,418.8 230.9,0 418.8,-187.8 418.8,-418.8 0,-231 -187.9,-418.9 -418.8,-418.9"
           style="fill:#f0c141;fill-opacity:1;fill-rule:nonzero;stroke:none"
           id="path4290"
           inkscape:connector-curvature="0" /></g><path
         d="M 12016.6,3402.6 H 13413 V 7643.8 H 12016.6 V 3402.6"
         style="fill:#8f8f8f;fill-opacity:1;fill-rule:nonzero;stroke:none"
         id="path4292"
         inkscape:connector-curvature="0" /><g
         id="g4294"
         transform="scale(1.14991)"><path
           d="m 6347.67,4870.62 h 9419.03 c 294.5,0 533.3,238.72 533.3,533.26 v 6330.42 c 0,294.6 -238.8,533.3 -533.3,533.3 H 6347.67 c -294.53,0 -533.31,-238.7 -533.31,-533.3 V 5403.88 c 0,-294.54 238.78,-533.26 533.31,-533.26"
           style="fill:#f0f0f0;fill-opacity:1;fill-rule:nonzero;stroke:none"
           id="path4296"
           inkscape:connector-curvature="0" /></g><g
         id="g4298"
         transform="scale(1.12094)"><path
           d="M 6385.93,6185.62 H 16300 V 13392.4 H 6385.93 V 6185.62"
           style="fill:#ffffff;fill-opacity:1;fill-rule:nonzero;stroke:none"
           id="path4300"
           inkscape:connector-curvature="0" /></g><g
         id="g4302"><g
           id="g4304"
           clip-path="url(#clipPath4308)"><g
             id="g4310"
             transform="scale(1.12094)"><path
               d="M 6385.93,12522 H 16300 v 870.4 H 6385.93 V 12522"
               style="fill:url(#linearGradient4316);fill-opacity:1;fill-rule:nonzero;stroke:none"
               id="path4318"
               inkscape:connector-curvature="0" /></g></g></g><g
         id="g4320"
         transform="scale(1.09409)"><path
           d="m 15464.1,5779.99 c 0,-196.33 187,-355.55 417.9,-355.55 230.9,0 418,159.22 418,355.55 0,196.32 -187.1,355.45 -418,355.45 -230.9,0 -417.9,-159.13 -417.9,-355.45"
           style="fill:#cccccc;fill-opacity:1;fill-rule:nonzero;stroke:none"
           id="path4322"
           inkscape:connector-curvature="0" /></g><path
         d="M 15855.8,3242.5 H 9573.78 v 320.2 h 6282.02 v -320.2"
         style="fill:#cccccc;fill-opacity:1;fill-rule:nonzero;stroke:none"
         id="path4324"
         inkscape:connector-curvature="0" /><path
         d="M 9074.89,14339.9 H 7754.93 c -73.2,0 -132.54,59.3 -132.54,132.5 v 103.6 c 0,73.2 59.34,132.5 132.54,132.5 h 1319.96 c 73.21,0 132.54,-59.3 132.54,-132.5 v -103.6 c 0,-73.2 -59.33,-132.5 -132.54,-132.5"
         style="fill:#f5f7ff;fill-opacity:1;fill-rule:nonzero;stroke:none"
         id="path4326"
         inkscape:connector-curvature="0" /><path
         d="M 13790.8,10436.7 H 7972.43 v 200 h 5818.37 v -200"
         style="fill:#e6e6e6;fill-opacity:1;fill-rule:nonzero;stroke:none"
         id="path4328"
         inkscape:connector-curvature="0" /><path
         d="M 12287.9,10076.5 H 7972.43 v 200 h 4315.47 v -200"
         style="fill:#e6e6e6;fill-opacity:1;fill-rule:nonzero;stroke:none"
         id="path4330"
         inkscape:connector-curvature="0" /><path
         d="M 10708.8,9293.8 H 7972.43 v 200 h 2736.37 v -200"
         style="fill:#e6e6e6;fill-opacity:1;fill-rule:nonzero;stroke:none"
         id="path4332"
         inkscape:connector-curvature="0" /><path
         d="M 12888.5,8933.5 H 7972.43 v 200 h 4916.07 v -200"
         style="fill:#e6e6e6;fill-opacity:1;fill-rule:nonzero;stroke:none"
         id="path4334"
         inkscape:connector-curvature="0" /><path
         d="M 12577.7,8072.9 H 7972.43 v 200 h 4605.27 v -200"
         style="fill:#e6e6e6;fill-opacity:1;fill-rule:nonzero;stroke:none"
         id="path4336"
         inkscape:connector-curvature="0" /><path
         d="M 13596,7712.7 H 7972.43 v 200 H 13596 v -200"
         style="fill:#e6e6e6;fill-opacity:1;fill-rule:nonzero;stroke:none"
         id="path4338"
         inkscape:connector-curvature="0" /><path
         d="m 7688.51,10076.5 h 146.2 v 560.2 h -146.2 v -560.2"
         style="fill:#78c2ff;fill-opacity:1;fill-rule:nonzero;stroke:none"
         id="path4340"
         inkscape:connector-curvature="0" /><path
         d="m 7688.51,8933.5 h 146.2 v 560.3 h -146.2 v -560.3"
         style="fill:#78c2ff;fill-opacity:1;fill-rule:nonzero;stroke:none"
         id="path4342"
         inkscape:connector-curvature="0" /><path
         d="m 7688.51,7712.7 h 146.2 v 560.2 h -146.2 v -560.2"
         style="fill:#78c2ff;fill-opacity:1;fill-rule:nonzero;stroke:none"
         id="path4344"
         inkscape:connector-curvature="0" /><path
         d="m 15723.2,7460.4 h -466 c -92.6,0 -167.7,75.1 -167.7,167.7 v 466 c 0,92.6 75.1,167.7 167.7,167.7 h 466 c 92.6,0 167.7,-75.1 167.7,-167.7 v -466 c 0,-92.6 -75.1,-167.7 -167.7,-167.7"
         style="fill:#78c2ff;fill-opacity:1;fill-rule:nonzero;stroke:none"
         id="path4346"
         inkscape:connector-curvature="0" /><path
         d="m 15464.8,7684.6 -202.6,176.6 c -16.6,14.5 -18.3,39.7 -3.8,56.3 14.5,16.6 39.7,18.3 56.3,3.9 l 143.2,-124.9 204.3,227.8 c 14.7,16.4 40,17.8 56.4,3.1 16.4,-14.7 17.8,-39.9 3.1,-56.3 l -256.9,-286.5"
         style="fill:#f3f3f3;fill-opacity:1;fill-rule:nonzero;stroke:none"
         id="path4348"
         inkscape:connector-curvature="0" /><path
         d="m 15271.7,9432.2 c -72.6,0 -131.7,-59.1 -131.7,-131.8 v -436.9 c 0,-72.6 59.1,-131.7 131.7,-131.7 h 437 c 72.6,0 131.7,59.1 131.7,131.7 v 436.9 c 0,72.7 -59.1,131.8 -131.7,131.8 z m 437,-751.3 h -437 c -100.7,0 -182.6,81.9 -182.6,182.6 v 436.9 c 0,100.7 81.9,182.7 182.6,182.7 h 437 c 100.7,0 182.6,-82 182.6,-182.7 v -436.9 c 0,-100.7 -81.9,-182.6 -182.6,-182.6"
         style="fill:#78c2ff;fill-opacity:1;fill-rule:nonzero;stroke:none"
         id="path4350"
         inkscape:connector-curvature="0" /><g
         id="g4352"
         transform="scale(1.04895)"><path
           d="m 15709.3,7828.11 c -69.2,0 -125.5,-56.35 -125.5,-125.65 v -416.42 c 0,-69.31 56.3,-125.65 125.5,-125.65 h 416.6 c 69.2,0 125.6,56.34 125.6,125.65 v 416.42 c 0,69.3 -56.4,125.65 -125.6,125.65 z m 416.6,-716.24 h -416.6 c -96,0 -174.1,78.07 -174.1,174.17 v 416.42 c 0,96 78.1,174.17 174.1,174.17 h 416.6 c 96,0 174.1,-78.17 174.1,-174.17 v -416.42 c 0,-96.1 -78.1,-174.17 -174.1,-174.17"
           style="fill:#78c2ff;fill-opacity:1;fill-rule:nonzero;stroke:none"
           id="path4354"
           inkscape:connector-curvature="0" /></g><g
         id="g4356"
         transform="scale(1.04893)"><path
           d="m 16140.1,8276.37 h -444.2 c -88.3,0 -159.9,71.6 -159.9,159.88 v 444.26 c 0,88.28 71.6,159.88 159.9,159.88 h 444.2 c 88.3,0 159.9,-71.6 159.9,-159.88 v -444.26 c 0,-88.28 -71.6,-159.88 -159.9,-159.88"
           style="fill:#78c2ff;fill-opacity:1;fill-rule:nonzero;stroke:none"
           id="path4358"
           inkscape:connector-curvature="0" /></g><g
         id="g4360"
         transform="scale(1.03945)"><path
           d="m 16038.7,8567.53 -194.9,169.9 c -16,13.95 -17.6,38.19 -3.7,54.16 13.9,15.97 38.2,17.6 54.2,3.75 l 137.8,-120.25 196.5,219.25 c 14.2,15.78 38.5,17.12 54.3,2.98 15.8,-14.14 17.1,-38.39 3,-54.16 l -247.2,-275.63"
           style="fill:#f3f3f3;fill-opacity:1;fill-rule:nonzero;stroke:none"
           id="path4362"
           inkscape:connector-curvature="0" /></g><g
         id="g4364"
         transform="scale(1.04895)"><path
           d="m 15709.3,10156 c -69.2,0 -125.5,-56.4 -125.5,-125.7 v -416.48 c 0,-69.27 56.3,-125.67 125.5,-125.67 h 416.6 c 69.2,0 125.6,56.4 125.6,125.67 v 416.48 c 0,69.3 -56.4,125.7 -125.6,125.7 z m 416.6,-716.28 h -416.6 c -96,0 -174.1,78.07 -174.1,174.1 v 416.48 c 0,96 78.1,174.1 174.1,174.1 h 416.6 c 96,0 174.1,-78.1 174.1,-174.1 v -416.48 c 0,-96.03 -78.1,-174.1 -174.1,-174.1"
           style="fill:#78c2ff;fill-opacity:1;fill-rule:nonzero;stroke:none"
           id="path4366"
           inkscape:connector-curvature="0" /></g><path
         d="m 15723.2,9902.2 h -466 c -92.6,0 -167.7,75.1 -167.7,167.7 v 466 c 0,92.6 75.1,167.7 167.7,167.7 h 466 c 92.6,0 167.7,-75.1 167.7,-167.7 v -466 c 0,-92.6 -75.1,-167.7 -167.7,-167.7"
         style="fill:#78c2ff;fill-opacity:1;fill-rule:nonzero;stroke:none"
         id="path4368"
         inkscape:connector-curvature="0" /><path
         d="m 15464.8,10126.4 -202.6,176.6 c -16.6,14.5 -18.3,39.7 -3.8,56.3 14.5,16.6 39.7,18.3 56.3,3.8 l 143.2,-124.8 204.3,227.8 c 14.7,16.4 40,17.8 56.4,3.1 16.4,-14.7 17.8,-39.9 3.1,-56.4 l -256.9,-286.4"
         style="fill:#f3f3f3;fill-opacity:1;fill-rule:nonzero;stroke:none"
         id="path4370"
         inkscape:connector-curvature="0" /><g
         id="g4372"><g
           id="g4374"
           clip-path="url(#clipPath4378)"><path
             d="m 5869.42,9604.1 c -189.18,90.5 -377.47,-511.8 -377.47,-511.8 -321.55,-424.9 -770.93,140.4 -726.99,-494.8 76.89,-1111.4 -1279.33,-349.5 -653.65,-1509.9 625.68,-1160.4 -552.47,-656.1 -163.64,-1591.8 388.83,-935.6 -115.14,-2051.6 469.91,-1593 0,0 515.14,1129.7 1046.4,1479.2 531.27,349.5 -318.27,764.2 -152.05,1238.9 241.43,689.5 823.13,662.5 403.7,1403.4 -419.41,741 796.91,1272.3 153.79,1579.8"
             style="fill:url(#linearGradient4384);fill-opacity:1;fill-rule:nonzero;stroke:none"
             id="path4386"
             inkscape:connector-curvature="0" /></g></g><path
         d="m 4232.31,4328 c 253.61,178.3 550.4,1421.2 568.11,2161.5 9.07,379.2 121.16,537.1 220.06,676.5 94.53,133.3 176.17,248.3 128.61,512.5 -90.88,505 148.07,722.9 150.49,725 l -27.66,31.6 c -10.63,-9.3 -259.48,-234.1 -164.11,-764 44.44,-246.9 -28.81,-350.1 -121.54,-480.8 -97.31,-137.2 -218.41,-307.8 -227.78,-699.8 -19.01,-794.5 -322.44,-1968 -550.3,-2128.2 l 24.12,-34.3"
         style="fill:#ffffff;fill-opacity:1;fill-rule:nonzero;stroke:none"
         id="path4388"
         inkscape:connector-curvature="0" /><g
         id="g4390"><g
           id="g4392"
           clip-path="url(#clipPath4396)"><path
             d="m 2912.32,6609.5 c -150.2,82 -311.29,98.5 -374.66,38.4 -48.17,-45.6 -25.45,-123.8 2.09,-181.4 52.54,-109.9 118.99,-177.7 177.62,-237.5 81.51,-83.1 145.89,-148.8 113.25,-276.4 -6.41,-25 -13.79,-50.3 -21.21,-75.6 -51.8,-177.2 -100.74,-344.6 170.51,-466.5 63.7,-28.7 122.09,-51.6 173.61,-71.8 214.61,-84.2 356.4,-139.9 508.39,-460.7 28.29,-59.7 53.16,-116.1 77.21,-170.6 131.19,-297.3 210.39,-476.8 497.21,-418.8 82.21,16.6 135.78,59 159.21,126 60.24,172.3 -83.9,473.9 -211.16,625.4 -9.32,11.2 -228.1,277.9 -204.06,659.6 3.92,62.1 10.31,119.2 15.96,169.6 14.95,133.5 25.76,229.9 -23.76,285.5 -45.27,50.9 -144.38,74 -321.32,74.8 -355.33,1.7 -495.6,148.6 -608.31,266.6 -45.1,47.2 -84.04,88 -130.58,113.4 z m 788.43,-1919 c -23.93,54.2 -48.7,110.3 -76.74,169.5 -144.87,305.9 -273.2,356.2 -485.81,439.7 -51.95,20.3 -110.84,43.4 -175.48,72.5 -304.56,136.9 -245.59,338.6 -193.55,516.5 7.27,24.9 14.53,49.8 20.82,74.3 26.79,104.7 -24.68,157.2 -102.58,236.7 -57.9,59 -129.95,132.6 -185.5,248.7 -60.79,127.1 -29.8,195.2 6.9,230 77.26,73.2 255.42,59.7 423.61,-32.1 v 0 c 52.26,-28.5 95.28,-73.6 140.81,-121.3 107.23,-112.3 240.68,-252 578.18,-253.6 192.45,-0.9 297.85,-27.4 352.45,-88.8 61.96,-69.6 50.28,-173.8 34.11,-318.1 -5.6,-49.9 -11.93,-106.4 -15.77,-167.5 -22.96,-364.5 192.22,-627.5 194.35,-630.1 128.57,-153.1 286.96,-470.7 218.59,-666.2 -28.66,-81.9 -92.75,-133.5 -190.48,-153.2 -38.96,-7.9 -74.51,-11.7 -107.23,-11.7 -236.03,0 -322.47,195.8 -436.68,454.7"
             style="fill:url(#linearGradient4402);fill-opacity:1;fill-rule:nonzero;stroke:none"
             id="path4404"
             inkscape:connector-curvature="0" /></g></g><g
         id="g4406"><g
           id="g4408"
           clip-path="url(#clipPath4412)"><path
             d="m 4240.13,3993.7 41.88,2.2 c -2.06,39.3 -54.9,966.9 -427.31,1238.3 -408.58,297.9 -537.4,617.9 -598.74,832.7 -72.3,253.2 -440.25,320.8 -455.87,323.6 l -7.3,-41.3 c 3.57,-0.7 357.77,-65.9 422.84,-293.8 63.05,-220.8 195.34,-549.6 614.36,-855 356.45,-259.9 409.65,-1197.3 410.14,-1206.7"
             style="fill:url(#linearGradient4418);fill-opacity:1;fill-rule:nonzero;stroke:none"
             id="path4420"
             inkscape:connector-curvature="0" /></g></g><g
         id="g4422"><g
           id="g4424"
           clip-path="url(#clipPath4428)"><path
             d="m 3388.64,8668.1 c 264.7,90.8 209.71,-419.4 321.56,-796.9 111.84,-377.5 1244.27,-164.7 768.93,-1109.9 -475.34,-945.2 601.16,-316.1 279.61,-1141 -321.55,-824.8 -27.96,-1707 -377.48,-1482.6 -349.51,224.4 -196.36,1263.1 -559.85,1386.5 -363.5,123.4 -422.82,267.4 -62.91,602.9 359.9,335.6 -943.07,668.7 -621.52,1346.2 321.56,677.5 -54.16,1090 251.66,1194.8"
             style="fill:url(#linearGradient4434);fill-opacity:1;fill-rule:nonzero;stroke:none"
             id="path4436"
             inkscape:connector-curvature="0" /></g></g><path
         d="m 4219.09,4177.2 c 33.28,141.2 317.57,1383.9 52.32,1534.1 -233.79,132.4 -228.03,647.3 -191.56,1133.6 32.28,430.4 -520.53,631.6 -544.08,640 l -14.03,-39.6 c 5.47,-1.9 546.16,-198.8 516.28,-597.3 -37.45,-499.3 -41.47,-1029.2 212.72,-1173.2 201.43,-114.1 15.98,-1112.8 -72.48,-1488 l 40.83,-9.6"
         style="fill:#ffffff;fill-opacity:1;fill-rule:nonzero;stroke:none"
         id="path4438"
         inkscape:connector-curvature="0" /><g
         id="g4440"><g
           id="g4442"
           clip-path="url(#clipPath4446)"><path
             d="M 5217.78,4619.7 4839.86,3185.9 h -844.57 l -377.92,1433.8 h 1600.41"
             style="fill:url(#linearGradient4452);fill-opacity:1;fill-rule:nonzero;stroke:none"
             id="path4454"
             inkscape:connector-curvature="0" /></g></g><g
         id="g4456"><g
           id="g4458"
           clip-path="url(#clipPath4462)"><path
             d="m 5217.78,4619.7 c 0,0 -831.98,-156.2 -831.98,-1433.8 h -390.51 l -377.92,1433.8 h 1600.41"
             style="fill:url(#linearGradient4468);fill-opacity:1;fill-rule:nonzero;stroke:none"
             id="path4470"
             inkscape:connector-curvature="0" /></g></g><path
         d="m 11836.6,5571.2 c 0,0 29.1,-47.6 32.8,-86.5 2.8,-30.8 28.7,-76.8 39.9,-102.2 11.2,-25.4 47.3,-140.4 48.6,-170.3 0.5,-12.3 -26.8,-89.4 -22.9,-114.1 3.9,-24.7 18,-73.5 -4.2,-76.8 -22.1,-3.2 -47.2,36.8 -47.2,36.8 0,0 2.1,-22.7 -16.7,-31.3 -36.4,-16.9 -55.7,-2.1 -55.7,-2.1 0,0 -13.5,-24.9 -30.4,-28.3 -37.2,-7.4 -55.4,7.5 -55.4,7.5 0,0 -16.4,-14 -42.1,-13.5 -32.9,0.6 -46.7,29 -46.7,29 0,0 -41.7,-8.4 -53.8,11 -12,19.5 -9.9,40.2 -14.9,57.8 -5.1,17.6 -1.3,176.6 52.8,291.2 54,114.5 -13.8,226.1 -13.8,226.1 l 229.7,-34.3"
         style="fill:#eea886;fill-opacity:1;fill-rule:nonzero;stroke:none"
         id="path4472"
         inkscape:connector-curvature="0" /><path
         d="m 11889.4,5073 c 0,0 3.7,142.7 -33.8,173.1 -37.6,30.4 -41.9,-21.1 -41.9,-21.1 0,0 5.1,50.9 -35.9,57.8 -41,6.8 -42.8,-53.6 -42.8,-53.6 0,0 -6.7,39.2 -49.8,31.2 -43.1,-8.1 -32.8,-58.2 -32.8,-58.2 0,0 -41.2,49.1 -67.9,1.9 -45.1,-79.6 -1.7,-173.7 -1.7,-173.7 0,0 12.8,-21.5 53.8,-11 0,0 27.4,-55.3 88.8,-15.5 0,0 62.9,-34.6 85.8,20.8 0,0 69.2,-32.9 78.2,48.3"
         style="fill:#db9c7c;fill-opacity:1;fill-rule:nonzero;stroke:none"
         id="path4474"
         inkscape:connector-curvature="0" /><path
         d="m 12320.7,7626.8 c 0,0 -244.3,-814.2 -326.8,-1114.5 -25.9,-94.2 -88.5,-993.6 -99.6,-1029.8 -11.1,-36.3 -320.9,-85.9 -320.9,-85.9 0,0 37.5,1125.2 41,1186.6 3.5,61.4 341.9,1317.9 440.3,1362.8 73.7,33.5 112.7,5.8 205.6,-63.2 130.3,-96.8 60.4,-256 60.4,-256"
         style="fill:#323657;fill-opacity:1;fill-rule:nonzero;stroke:none"
         id="path4476"
         inkscape:connector-curvature="0" /><path
         d="m 14730.1,8725.7 -27.2,41.5 559.1,366 27.2,-41.5 -559.1,-366"
         style="fill:#4da8f2;fill-opacity:1;fill-rule:nonzero;stroke:none"
         id="path4478"
         inkscape:connector-curvature="0" /><path
         d="m 15348.8,8922.8 c 0,0 -5.3,-31.7 -14.4,-44.3 0,0 -18.3,-21.9 -30.4,-38.2 -3.8,-5.2 -7,-9.8 -8.7,-13 -7.4,-13.3 -19.6,-44.7 -46.2,-71.7 -26.6,-27.1 -130.4,-112.9 -130.4,-112.9 l -88.8,75.4 -92.3,41.3 c 0,0 51.7,224.6 73.6,252.6 2.1,2.8 4.4,5.4 6.6,7.7 20.9,21.9 45.6,29.5 57.9,39.7 4.5,3.8 51.9,38 68.9,33.6 23.4,-6.1 37.3,-19.9 42.6,-35.6 0,0 45.5,-14 63.2,-40.6 0,0 42.3,-11.6 54.9,-51 0,0 41.7,-16.6 43.5,-43"
         style="fill:#efaa88;fill-opacity:1;fill-rule:nonzero;stroke:none"
         id="path4480"
         inkscape:connector-curvature="0" /><path
         d="m 12122.5,2068 c 0,0 -22.3,-154.6 -25.1,-177.8 -2.7,-23.2 -247.7,13.7 -247.7,13.7 l -19.8,184 c 0,0 262,1.9 292.6,-19.9"
         style="fill:#424773;fill-opacity:1;fill-rule:nonzero;stroke:none"
         id="path4482"
         inkscape:connector-curvature="0" /><path
         d="m 12100,1909.9 c 0,0 77.6,-93.2 152.7,-133.8 75.1,-40.6 193,-56.6 237.4,-98.7 32,-30.3 116.7,-160.9 -195.1,-158.2 -311.7,2.6 -462,-18.5 -495.4,31.6 -33.4,50.1 48.4,369.5 48.4,369.5 0,0 73.8,-26.5 252,-10.4"
         style="fill:#292c47;fill-opacity:1;fill-rule:nonzero;stroke:none"
         id="path4484"
         inkscape:connector-curvature="0" /><path
         d="m 13877.4,2068 c 0,0 -22.3,-154.6 -25.1,-177.8 -2.8,-23.2 -247.7,13.7 -247.7,13.7 l -19.8,184 c 0,0 261.9,1.9 292.6,-19.9"
         style="fill:#424773;fill-opacity:1;fill-rule:nonzero;stroke:none"
         id="path4486"
         inkscape:connector-curvature="0" /><path
         d="m 13854.9,1909.9 c 0,0 77.6,-93.2 152.7,-133.8 75,-40.6 351.2,-73.9 395.6,-115.9 32,-30.4 85.3,-152.5 -353.3,-141 -311.6,8.1 -462,-18.5 -495.4,31.6 -33.4,50.1 48.3,369.5 48.3,369.5 0,0 69.6,-28.3 252.1,-10.4"
         style="fill:#292c47;fill-opacity:1;fill-rule:nonzero;stroke:none"
         id="path4488"
         inkscape:connector-curvature="0" /><path
         d="m 12325.3,6039.4 c 0,0 -230.1,-365.7 -213,-696.2 17.2,-330.5 -83.4,-691.3 -118,-1036.6 -38.5,-384.9 -196.2,-1296.1 -202,-1502 -5.7,-205.9 24.5,-863.3 24.5,-863.3 l 315.7,-7.2 c 0,0 265.2,1593 333.9,1755.5 68.7,162.6 409.2,1321.4 420.7,1451.4 11.4,130 -561.8,898.4 -561.8,898.4"
         style="fill:#292c47;fill-opacity:1;fill-rule:nonzero;stroke:none"
         id="path4490"
         inkscape:connector-curvature="0" /><path
         d="m 13536.7,5989.8 c 0,0 173.5,-905.8 196.4,-1108.1 22.9,-202.3 38.1,-979 49.6,-1105.4 11.4,-126.4 106.9,-1650.6 137.3,-1842.2 h -403.6 c 0,0 -309.8,1110.7 -309.8,1636.3 0,525.6 -239.4,1142.6 -393.9,1489.3 -154.5,346.8 -508.2,355 -603.2,998.4 0,0 1198.7,135.8 1327.2,-68.3"
         style="fill:#292c47;fill-opacity:1;fill-rule:nonzero;stroke:none"
         id="path4492"
         inkscape:connector-curvature="0" /><path
         d="m 12709.3,9113.4 c 0,0 308.9,115.3 451.3,-119.8 142.5,-235.1 128.7,-705.9 -27,-763.8 -155.7,-57.8 -389.5,-27.6 -469.3,119.6 -79.7,147.1 -151.6,359.8 -148.2,501.9 3.5,142.2 112.1,221 193.2,262.1"
         style="fill:#eea886;fill-opacity:1;fill-rule:nonzero;stroke:none"
         id="path4494"
         inkscape:connector-curvature="0" /><path
         d="m 13100.1,8219.1 c 0,0 -12.8,-83.4 8.4,-124.5 21.2,-41.1 -400.2,-42.1 -400.2,-42.1 0,0 -34.2,223.4 -99.1,412.2 -64.8,188.8 490.9,-245.6 490.9,-245.6"
         style="fill:#eea886;fill-opacity:1;fill-rule:nonzero;stroke:none"
         id="path4496"
         inkscape:connector-curvature="0" /><path
         d="m 12609.2,8464.7 c 0,0 29.1,-48 147.9,-29.4 118.7,18.7 263.5,176.6 313.1,194 49.6,17.3 50.1,46.4 50.1,46.4 l 31,-45.3 52.6,-3.3 c 0,0 -48,141.3 24.5,198.9 72.4,57.6 -75.2,457.4 -456,324.3 0,0 -292.4,-80.6 -281.8,-247 10.6,-166.3 53.2,-355.8 118.6,-438.6"
         style="fill:#d88a51;fill-opacity:1;fill-rule:nonzero;stroke:none"
         id="path4498"
         inkscape:connector-curvature="0" /><path
         d="m 13133.5,8099.5 c 0,0 -1.3,78.5 -36.9,86.1 -35.6,7.5 -392.7,41.8 -436.4,24.7 v -91.5 c 0,0 84.2,-51.8 473.3,-19.3"
         style="fill:#e2d2ca;fill-opacity:1;fill-rule:nonzero;stroke:none"
         id="path4500"
         inkscape:connector-curvature="0" /><path
         d="m 13112.4,8736.2 c -6.7,27.9 -77.6,107.7 -104.8,22.3 -27.1,-85.4 41.1,-200.2 79.1,-190.4 38.1,9.9 42.6,97.4 25.7,168.1"
         style="fill:#eea886;fill-opacity:1;fill-rule:nonzero;stroke:none"
         id="path4502"
         inkscape:connector-curvature="0" /><path
         d="m 13724.2,7980.7 c -244.8,32.3 -590.7,118.9 -590.7,118.9 l -473.3,19.2 c 0,0 -434.4,-95.6 -605.5,-172.8 -16.2,-7.4 -16.3,-387.6 -60.8,-487.3 l 141.8,-299.2 c 0,0 82,-592.8 99,-856.4 7.8,-121 -169,-1134.8 -169,-1134.8 0,0 189.4,-55.8 512.4,-91.4 323.1,-35.6 1130.2,12.9 1135.3,51.1 5.1,38.1 -156.3,1420.7 -163.5,1492.2 -10.9,109.9 37.9,693.9 37.9,693.9 74.6,57.8 729.5,361.8 908.1,520.2 47.8,42.4 249.6,238.9 307,306.7 203.1,240.2 369.6,446.3 389.9,490.7 23,25.3 -225.9,159.5 -248,166.8 -19.4,6.5 -288.8,-351 -394.4,-465.5 -47.2,-51 -243.1,-193.5 -243.1,-193.5 0,0 -429.9,-167.6 -583.1,-158.8"
         style="fill:#323657;fill-opacity:1;fill-rule:nonzero;stroke:none"
         id="path4504"
         inkscape:connector-curvature="0" /><path
         d="m 12621.3,9085.6 c 0,0 -393.8,-30.8 -12.1,-620.9 l 12.1,620.9"
         style="fill:#d88a51;fill-opacity:1;fill-rule:nonzero;stroke:none"
         id="path4506"
         inkscape:connector-curvature="0" /><path
         d="m 15289.2,9091.7 32.3,49.3 -59.5,-7.8 z"
         style="fill:#dfe1e8;fill-opacity:1;fill-rule:nonzero;stroke:none"
         id="path4508"
         inkscape:connector-curvature="0" /><path
         d="m 7403.68,6258.6 c 0,0 191.61,-11.6 245.28,-41.5 53.68,-29.8 415.97,84.4 422.68,110.7 6.71,26.3 0,39.3 0,39.3 h -711.17 l 43.21,-108.5"
         style="fill:#de9673;fill-opacity:1;fill-rule:nonzero;stroke:none"
         id="path4510"
         inkscape:connector-curvature="0" /><path
         d="m 6543.52,7103.5 c 0,0 -61.13,-480.3 0,-543.2 233.49,-240.5 1098.89,-221.4 1098.89,-221.4 l -0.34,-97.8 c 0,0 -1315.44,-164.1 -1437.66,91.1 -146.86,306.5 -89.87,806.5 -89.87,806.5 l 428.98,-35.2"
         style="fill:#de9673;fill-opacity:1;fill-rule:nonzero;stroke:none"
         id="path4512"
         inkscape:connector-curvature="0" /><path
         d="m 6109.38,2041.9 78.14,89.1 -141.07,147.5 -119.15,-83.4 182.08,-153.2"
         style="fill:#2f4563;fill-opacity:1;fill-rule:nonzero;stroke:none"
         id="path4514"
         inkscape:connector-curvature="0" /><path
         d="m 5927.3,2195.1 c 0,0 161,-121.3 205.79,-126.1 44.77,-4.9 65.91,-24.9 60.58,-93.1 -5.33,-68.2 65.44,-355.6 114.74,-360.2 49.3,-4.6 217.14,-5.5 247.6,-116.2 30.46,-110.6 -532.51,-87.4 -567.38,3.3 -34.87,90.8 -277.24,530.7 -248.53,566.1 28.72,35.4 104.58,114.9 187.2,126.2"
         style="fill:#1e2d40;fill-opacity:1;fill-rule:nonzero;stroke:none"
         id="path4516"
         inkscape:connector-curvature="0" /><path
         d="m 6960.39,5632.9 c 0,0 1051.83,-1832.3 624.86,-2211.4 -167.43,-148.6 -328.61,-283.1 -560.29,-482 -123.16,-105.8 -271.85,-228.3 -448.12,-411.8 l -7.33,-7.7 c -125.71,-131 -229.46,-241.8 -261.43,-276 -1.15,-1.1 -2.15,-2.2 -3.02,-3.2 l -3.57,-3.8 -117.07,-111.7 -171.77,151 c 0,0 194.7,269.4 304.5,476.3 154.1,290.4 413.01,631.8 532.79,727.1 205.21,163.1 261.61,195.1 261.61,351.1 0,167.3 -964.08,1101.9 -964.08,1101.9 0,0 -139.86,585 194.24,738 325.54,149.2 618.68,-37.8 618.68,-37.8"
         style="fill:#23344a;fill-opacity:1;fill-rule:nonzero;stroke:none"
         id="path4518"
         inkscape:connector-curvature="0" /><path
         d="m 6158.25,1758.1 c 0,0 -6.64,84.4 7.6,138.4 14.25,53.9 -217.75,22.9 -217.75,22.9 0,0 -29.87,-225.3 -21.23,-276.9 8.62,-51.6 231.38,115.6 231.38,115.6"
         style="fill:#41608a;fill-opacity:1;fill-rule:nonzero;stroke:none"
         id="path4520"
         inkscape:connector-curvature="0" /><path
         d="m 6201.58,1896.2 -312.86,-56.4 c 0,0 -22.55,399.2 -18.49,705 4.38,328.8 -12.16,587.2 88.24,848.9 93.92,244.8 72.56,338 80.75,505.1 8.26,167.1 -80.21,1027.5 -80.21,1027.5 0,0 -106.86,385.2 140.53,657 241.02,264.8 864.58,1.1 864.58,1.1 0,0 -129.89,-1175.4 -441.77,-1902.5 -88.28,-205.8 -40.55,-330.8 -153.13,-648.7 0,0 -170.99,-693.4 -167.64,-1137"
         style="fill:#2f4563;fill-opacity:1;fill-rule:nonzero;stroke:none"
         id="path4522"
         inkscape:connector-curvature="0" /><path
         d="m 6473.93,7908.5 c -16.39,-27.7 -28.37,-63.1 -37.08,-100.6 -8.29,-35.5 -13.67,-72.9 -17.16,-107.4 -7.59,-74.9 -6.3,-136.6 -6.3,-136.6 0,0 -417.33,90.8 -348.84,188.1 68.45,97.4 28.17,392.3 28.17,392.3 0,0 435.24,-144.8 381.21,-235.8"
         style="fill:#eea987;fill-opacity:1;fill-rule:nonzero;stroke:none"
         id="path4524"
         inkscape:connector-curvature="0" /><path
         d="m 6708.73,8712.3 c 0,0 106.82,-92.7 59.07,-360 0,0 23.62,-212.9 56.21,-250 32.6,-37.2 -87.5,-50.9 -100.13,-77.6 -12.64,-26.8 -36.53,-151.9 -120.26,-227.3 -83.72,-75.5 -498.25,151.9 -518.43,280.4 -20.19,128.4 -307.42,679 147.2,704.2 454.63,25.2 476.34,-69.7 476.34,-69.7"
         style="fill:#eea886;fill-opacity:1;fill-rule:nonzero;stroke:none"
         id="path4526"
         inkscape:connector-curvature="0" /><path
         d="m 6994.74,6740.2 c -8.47,-26.8 23.39,-438 20.49,-473.5 -15.91,-194.5 34.32,-490.1 54.1,-596 4.7,-25 7.32,-37.8 7.32,-37.8 -450.62,-220.4 -1077.39,-201.1 -1077.39,-201.1 2.23,17.1 89.73,228.8 91.97,245 37.1,264.6 91.9,385.4 76.99,564.3 h 0.05 c -8.32,100.5 -33.9,205.6 -86.88,335.8 -153.04,376 -144.72,626.3 -119.76,832.9 24.9,206.6 86.85,324.4 86.85,324.4 l 380.7,-40.9 c 80.81,-89.5 152.72,-137.2 382.39,-341.1 244.36,-217 287.1,-282.8 183.17,-612"
         style="fill:#eb4747;fill-opacity:1;fill-rule:nonzero;stroke:none"
         id="path4528"
         inkscape:connector-curvature="0" /><path
         d="m 5912.86,1701 c 0,0 220.2,62.6 226.73,68.8 6.53,6.1 8.01,19.4 38.39,7.3 30.38,-12.2 42.94,-58.2 72.75,-72.8 29.82,-14.6 211.53,-67.7 311.09,-116.7 35.98,-17.7 188.22,-75.7 210.16,-124.2 21.95,-48.5 15.13,-121.4 -246.45,-104.1 -261.58,17.3 -547.73,-19.6 -605.01,9 -57.28,28.6 -22.66,257 -7.66,332.7"
         style="fill:#23344a;fill-opacity:1;fill-rule:nonzero;stroke:none"
         id="path4530"
         inkscape:connector-curvature="0" /><path
         d="m 6779.17,8448.4 c 0,0 51.12,555 -487,455.9 -538.13,-99.1 -260.74,-705.7 -188.24,-903.4 0,0 -8.8,307 250.29,317 259.08,10 312.63,70 424.95,130.5"
         style="fill:#464240;fill-opacity:1;fill-rule:nonzero;stroke:none"
         id="path4532"
         inkscape:connector-curvature="0" /><path
         d="m 6312.12,8395.9 c -32.39,56.3 -143.5,26.3 -130.8,-59.6 12.69,-85.8 101.73,-171.5 131.24,-130 29.52,41.6 47.13,106.8 -0.44,189.6"
         style="fill:#eea987;fill-opacity:1;fill-rule:nonzero;stroke:none"
         id="path4534"
         inkscape:connector-curvature="0" /><path
         d="m 6324.38,7305.5 c 0,0 -44.35,-475.5 16.76,-538.4 233.5,-240.5 1154.8,-245.1 1154.8,-245.1 l 44,-138.2 c 0,0 -1369.46,-93.3 -1491.67,161.8 -146.86,306.6 -89.87,806.6 -89.87,806.6 l 365.98,-46.7"
         style="fill:#eea987;fill-opacity:1;fill-rule:nonzero;stroke:none"
         id="path4536"
         inkscape:connector-curvature="0" /><path
         d="m 6121.61,8767.7 c 0,0 -207.23,198.8 -354.57,-26.4 -147.33,-225.2 175.02,-539.3 305.7,-352.9 130.69,186.5 48.87,379.3 48.87,379.3"
         style="fill:#464240;fill-opacity:1;fill-rule:nonzero;stroke:none"
         id="path4538"
         inkscape:connector-curvature="0" /><path
         d="m 6436.85,7807.9 c -8.29,-35.5 -13.67,-72.9 -17.16,-107.4 -138.65,63.2 -242.33,256.3 -242.33,256.3 100.4,-86.6 259.45,-148.9 259.45,-148.9 0,0 0,0 0.04,0"
         style="fill:#a77860;fill-opacity:1;fill-rule:nonzero;stroke:none"
         id="path4540"
         inkscape:connector-curvature="0" /><path
         d="M 8417.8,6310.8 H 7111.67 v 73 H 8417.8 v -73"
         style="fill:#6e6760;fill-opacity:1;fill-rule:nonzero;stroke:none"
         id="path4542"
         inkscape:connector-curvature="0" /><path
         d="m 9006.16,7476.9 -588.39,-1166.1 -65.09,32.9 588.38,1166.1 65.1,-32.9"
         style="fill:#6e6760;fill-opacity:1;fill-rule:nonzero;stroke:none"
         id="path4544"
         inkscape:connector-curvature="0" /><path
         d="m 7303.6,6522 c 0,0 191.61,14.7 245.29,52.7 53.67,38 415.96,-107.3 422.67,-140.9 6.71,-33.5 0,-50 0,-50 h -711.17 l 43.21,138.2"
         style="fill:#eea987;fill-opacity:1;fill-rule:nonzero;stroke:none"
         id="path4546"
         inkscape:connector-curvature="0" /><path
         d="m 6048.49,7734.2 26.8,72.8 365.66,-72.8 v -64.8 l -392.46,64.8"
         style="fill:#eb4747;fill-opacity:1;fill-rule:nonzero;stroke:none"
         id="path4548"
         inkscape:connector-curvature="0" /><path
         d="m 6323.81,7299.2 c 0,0 39.24,275.6 -152.63,299.8 -191.86,24.2 -212.9,-247.8 -212.9,-247.8 l 365.53,-52"
         style="fill:#eea987;fill-opacity:1;fill-rule:nonzero;stroke:none"
         id="path4550"
         inkscape:connector-curvature="0" /><g
         id="g4552"
         transform="scale(1.17272)"><path
           d="m 16050.6,1793.94 c 0,0 18.9,-133.02 21.3,-152.98 2.4,-19.95 211.2,11.77 211.2,11.77 l 16.9,158.35 c 0,0 -223.3,1.62 -249.4,-17.14"
           style="fill:#5c544d;fill-opacity:1;fill-rule:nonzero;stroke:none"
           id="path4554"
           inkscape:connector-curvature="0" /></g><g
         id="g4556"
         transform="scale(1.17663)"><path
           d="m 16016.3,1652.35 c 0,0 -65.9,-79.9 -129.7,-114.74 -63.7,-34.76 -164,-48.61 -201.7,-84.65 -27.2,-26.01 -99.1,-138.02 165.8,-135.72 264.8,2.2 392.5,-15.9 420.9,27.11 28.4,42.92 -41,317 -41,317 0,0 -62.8,-22.77 -214.3,-9"
           style="fill:#3c4145;fill-opacity:1;fill-rule:nonzero;stroke:none"
           id="path4558"
           inkscape:connector-curvature="0" /></g><g
         id="g4560"
         transform="scale(1.06508)"><path
           d="m 16025.4,1975.25 c 0,0 20.9,-146.47 23.4,-168.44 2.7,-21.97 232.6,12.96 232.6,12.96 l 18.6,174.36 c 0,0 -245.9,1.78 -274.6,-18.88"
           style="fill:#5c544d;fill-opacity:1;fill-rule:nonzero;stroke:none"
           id="path4562"
           inkscape:connector-curvature="0" /></g><g
         id="g4564"
         transform="scale(1.06899)"><path
           d="m 15987.8,1818.73 c 0,0 -72.6,-87.93 -142.8,-126.28 -70.2,-38.27 -328.5,-69.79 -370,-109.46 -30,-28.62 -79.8,-143.96 330.4,-133.11 291.4,7.57 432.1,-17.5 463.4,29.84 31.2,47.24 -45.2,348.93 -45.2,348.93 0,0 -65.1,-26.76 -235.8,-9.92"
           style="fill:#3c4145;fill-opacity:1;fill-rule:nonzero;stroke:none"
           id="path4566"
           inkscape:connector-curvature="0" /></g><g
         id="g4568"
         transform="scale(1.17538)"><path
           d="m 15940.3,5216.61 c 0,0 110.8,-329.34 96.3,-613.16 -14.6,-283.91 57.3,-594.45 86.7,-890.95 32.8,-330.62 167,-1113.17 171.9,-1289.96 4.8,-176.8 -20.9,-741.38 -20.9,-741.38 l -268.6,-6.21 c 0,0 -225.5,1368.07 -283.9,1507.68 -58.4,139.53 -348.1,1134.78 -357.9,1246.41 -9.7,111.7 576.4,787.57 576.4,787.57"
           style="fill:#33373b;fill-opacity:1;fill-rule:nonzero;stroke:none"
           id="path4570"
           inkscape:connector-curvature="0" /></g><g
         id="g4572"
         transform="scale(1.14944)"><path
           d="m 15145.5,5274.39 c 0,0 -150.8,-795.52 -170.8,-973.17 -19.9,-177.65 -33.2,-859.64 -43.1,-970.65 -10,-111.09 -66.4,-1452.88 -119.5,-1617.83 h 351.1 c 0,0 269.5,975.44 269.5,1436.96 0,461.53 208.2,1003.36 342.6,1307.94 134.4,304.5 442.1,311.72 524.7,876.69 0,0 -1042.7,119.27 -1154.5,-59.94"
           style="fill:#3c4145;fill-opacity:1;fill-rule:nonzero;stroke:none"
           id="path4574"
           inkscape:connector-curvature="0" /></g><g
         id="g4576"
         transform="scale(1.13077)"><path
           d="m 16120.8,8125.06 c 0,0 -281.3,105.06 -411,-109.04 -129.8,-214.19 -117.2,-642.92 24.6,-695.63 141.8,-52.71 354.9,-25.11 427.4,108.86 72.6,133.98 138.2,327.75 135,457.21 -3.2,129.47 -102.1,201.28 -176,238.6"
           style="fill:#eea886;fill-opacity:1;fill-rule:nonzero;stroke:none"
           id="path4578"
           inkscape:connector-curvature="0" /></g><g
         id="g4580"
         transform="scale(1.1289)"><path
           d="m 15807.8,7345.72 c 0,0 11.4,-73.88 -7.5,-110.28 -18.8,-36.32 354.5,-37.29 354.5,-37.29 0,0 30.3,197.89 87.7,365.13 57.5,167.24 -434.7,-217.56 -434.7,-217.56"
           style="fill:#eea886;fill-opacity:1;fill-rule:nonzero;stroke:none"
           id="path4582"
           inkscape:connector-curvature="0" /></g><g
         id="g4584"
         transform="scale(1.13285)"><path
           d="m 16185.9,7536.9 c 0,0 -25.7,-42.37 -130.5,-25.95 -104.8,16.42 -232.6,155.89 -276.4,171.16 -43.7,15.36 -44.1,41.05 -44.1,41.05 l -27.4,-39.99 -46.5,-3 c 0,0 42.4,124.73 -21.5,175.57 -64,50.85 66.3,403.67 402.4,286.27 0,0 258.1,-71.15 248.7,-217.94 -9.4,-146.8 -46.9,-314.08 -104.7,-387.17"
           style="fill:#fccca2;fill-opacity:1;fill-rule:nonzero;stroke:none"
           id="path4586"
           inkscape:connector-curvature="0" /></g><g
         id="g4588"
         transform="scale(1.1218)"><path
           d="m 15878.1,7285.72 c 0,0 1.2,69.98 32.9,76.66 31.7,6.69 350,37.35 389,22.02 v -81.48 c 0,0 -75.1,-46.17 -421.9,-17.2"
           style="fill:#e2d2ca;fill-opacity:1;fill-rule:nonzero;stroke:none"
           id="path4590"
           inkscape:connector-curvature="0" /></g><g
         id="g4592"
         transform="scale(1.10215)"><path
           d="m 16180.3,7993.17 c 6,25.32 70.3,97.63 95,20.14 24.7,-77.39 -37.2,-181.55 -71.7,-172.66 -34.5,8.89 -38.6,88.37 -23.3,152.52"
           style="fill:#eea886;fill-opacity:1;fill-rule:nonzero;stroke:none"
           id="path4594"
           inkscape:connector-curvature="0" /></g><g
         id="g4596"
         transform="scale(1.1951)"><path
           d="m 14904.1,6838.82 c 0,0 -163.7,-58.91 -353.5,-139.49 0,0 -218.2,-81.5 -241.8,-322.57 -12.6,-127.93 -148.8,-806.95 -174.4,-864.35 -25.5,-57.49 -327.6,-980.42 -338.2,-999.58 -10.6,-19.16 246.5,-125.93 263.6,-117.4 17,8.54 292.4,841.77 320.1,903.52 0,0 158.6,499.63 162.8,574.18 0,0 4.6,-212.37 13.1,-271.94 8.5,-59.58 -141,-1216.55 -136.8,-1248.43 4.3,-31.96 679.5,-72.46 949.8,-42.68 270.3,29.79 488.3,91.96 488.3,91.96 0,0 -212.6,913.06 -206.1,1014.31 14.2,220.56 88,636.01 88,636.01 l 220.3,-415.45 -282.1,-725.71 64.6,-220.56 c 0,0 524.1,792.06 541.2,864.44 17,72.38 -25.7,164.5 -53.4,224.08 -27.7,59.58 -209.3,513.1 -251.9,576.94 -42.5,63.84 -114.5,319.47 -288.3,390.59 -145.3,59.5 -389.2,108.28 -389.2,108.28 l -396.1,-16.15"
           style="fill:#eb4747;fill-opacity:1;fill-rule:nonzero;stroke:none"
           id="path4598"
           inkscape:connector-curvature="0" /></g><g
         id="g4600"
         transform="scale(1.08253)"><path
           d="m 16056.1,4520.32 -1363.2,349.55 243.9,951.01 1363.2,-349.55 -243.9,-951.01"
           style="fill:#d6d6d6;fill-opacity:1;fill-rule:nonzero;stroke:none"
           id="path4602"
           inkscape:connector-curvature="0" /></g><g
         id="g4604"
         transform="scale(1.00523)"><path
           d="m 16274.2,5141.29 c 0,0 -41.9,-67.84 -57.3,-87.14 -15.3,-19.3 37.7,-31.43 60.4,-11.94 22.7,19.6 -3.1,99.08 -3.1,99.08"
           style="fill:#c98462;fill-opacity:1;fill-rule:nonzero;stroke:none"
           id="path4606"
           inkscape:connector-curvature="0" /></g><g
         id="g4608"
         transform="scale(1.02917)"><path
           d="m 16194.3,4795.51 c 0,0 24.2,25.26 29.4,41.49 0,0 7.2,30.12 13.6,51.3 2.1,6.7 4,12.53 5.7,16.13 6.9,15.16 26.5,46.25 32.8,87.16 6.3,40.81 24.2,224.25 24.2,224.25 l -111.1,27.99 -89.3,18.85 c 0,0 -192.7,-192.29 -203,-229.7 -1,-3.69 -1.9,-7.29 -2.4,-10.79 -5.6,-32.55 3.8,-59.07 2.9,-76.47 -0.4,-6.41 0.5,-70.15 15.4,-82.1 20.6,-16.62 41.6,-19.73 58.9,-14.19 0,0 41.8,-30.7 76.6,-28.86 0,0 37.7,-29.53 80.4,-14.96 0,0 41.5,-25.65 65.9,-10.1"
           style="fill:#de9d7d;fill-opacity:1;fill-rule:nonzero;stroke:none"
           id="path4610"
           inkscape:connector-curvature="0" /></g><g
         id="g4612"
         transform="scale(1.04987)"><path
           d="m 16300,5838.24 c 0,0 -249.5,-755.52 -295.3,-834.77 0,0 -183,38.48 -300,133.64 l 273.9,815.33 321.4,-114.2"
           style="fill:#eb4747;fill-opacity:1;fill-rule:nonzero;stroke:none"
           id="path4614"
           inkscape:connector-curvature="0" /></g><g
         id="g4616"
         transform="scale(1.39328)"><path
           d="m 16300,3719.65 c 0,0 -7.6,131.06 -42.3,151.44 -34.8,20.38 -14.7,-20.24 -14.7,-20.24 0,0 19.5,-95.1 23.8,-133.71 0.3,-1.8 33.2,2.51 33.2,2.51"
           style="fill:#1d3b54;fill-opacity:1;fill-rule:nonzero;stroke:none"
           id="path4618"
           inkscape:connector-curvature="0" /></g><g
         id="g4620"
         transform="scale(1.34685)"><path
           d="m 15906.1,6699.92 c 0,0 337.2,28.06 328,-326.69 -9.2,-354.76 -65.4,-408.07 0.3,-658.72 65.6,-250.73 -328.8,142.33 -328.8,142.33 l 0.5,843.08"
           style="fill:#434343;fill-opacity:1;fill-rule:nonzero;stroke:none"
           id="path4622"
           inkscape:connector-curvature="0" /></g><g
         id="g4624"
         transform="scale(1.30119)"><path
           d="m 16170.7,5942.87 c 0,0 -494.4,-308.49 -536.2,-275.67 -58.5,45.88 -217.4,437.29 -217.4,437.29 l -124.4,-59.26 c 0,0 148.4,-676.76 348.3,-626.96 200,49.88 659,333.77 659,333.77 l -129.3,190.83"
           style="fill:#eea987;fill-opacity:1;fill-rule:nonzero;stroke:none"
           id="path4626"
           inkscape:connector-curvature="0" /></g><g
         id="g4628"
         transform="scale(1.37626)"><path
           d="m 15925.9,4411.53 c 0,0 121.5,-154.91 164.4,-257.37 42.9,-102.45 114.4,-327.04 104.9,-500.99 -9.6,-173.95 -66.8,-500.42 -50.1,-574.31 16.7,-73.83 33.3,-226.34 51.2,-278.73 17.9,-52.46 89.4,-204.98 96.6,-362.21 7.1,-157.32 -100.1,-848.32 -95.4,-912.7 4.8,-64.3 -121.5,-26.15 -121.5,-26.15 0,0 -42.9,624.3 -66.7,731.55 -23.8,107.17 -52.4,471.78 -73.9,498.01 -21.4,26.23 -80.1,297.84 -71,340.71 9.1,42.94 -234,686.28 -248.3,814.96 -14.3,128.69 -372.7,527.23 -372.7,527.23 0,0 313.1,119.74 682.5,0"
           style="fill:#eea987;fill-opacity:1;fill-rule:nonzero;stroke:none"
           id="path4630"
           inkscape:connector-curvature="0" /></g><g
         id="g4632"
         transform="scale(1.34753)"><path
           d="m 15673.1,4505.59 c 0,0 -6.3,-66.35 -13.7,-90.69 -7.3,-24.27 -175.2,-644.88 -192.2,-883.39 -17.1,-238.51 -60.8,-440.81 -68.2,-491.79 -7.3,-50.91 7.4,-221.3 21.9,-265.08 14.6,-43.86 -72.9,-1078.12 -80.3,-1102.47 -7.3,-24.34 58.4,-31.68 104.7,-24.34 46.2,7.28 279.9,759.32 265.3,885.85 -14.7,126.52 -29.3,396.43 12.1,506.04 41.4,109.68 413.7,903.06 416.2,951.74 2.4,48.68 161.1,887.1 -465.8,514.13"
           style="fill:#eea987;fill-opacity:1;fill-rule:nonzero;stroke:none"
           id="path4634"
           inkscape:connector-curvature="0" /></g><g
         id="g4636"
         transform="scale(1.37188)"><path
           d="m 16129.6,1580.03 c 0,0 -11.8,-82.52 -24.7,-105.04 -12.8,-22.46 -48.1,-137.19 -64.3,-158.62 -16.1,-21.43 -51.4,-182.16 0,-201.47 51.5,-19.32 172.6,-51.47 213.3,12.83 40.8,64.36 46.1,128.65 39.7,177.93 -6.4,49.35 -55.3,275.6 -54.7,297.98 0.7,22.38 -109.3,-23.61 -109.3,-23.61"
           style="fill:#eea987;fill-opacity:1;fill-rule:nonzero;stroke:none"
           id="path4638"
           inkscape:connector-curvature="0" /></g><g
         id="g4640"
         transform="scale(1.37341)"><path
           d="m 16043.3,1359.39 c 0,0 -5.6,-124.8 88.7,-124.8 94.2,0 135.9,113.59 135.9,113.59 0,0 32.1,-55.78 0,-174.61 -32.1,-118.82 -165.9,-94.21 -195.9,-89.92 -30,4.3 -172.1,41.87 -28.7,275.74"
           style="fill:#eb4747;fill-opacity:1;fill-rule:nonzero;stroke:none"
           id="path4642"
           inkscape:connector-curvature="0" /></g><g
         id="g4644"
         transform="scale(1.2842)"><path
           d="m 16108,1807.74 c 0,0 -71.3,-127.4 -113.6,-153.17 -52.7,-32.16 -154.9,-135.34 -190.7,-140.17 -35.7,-4.75 -164.2,-27.48 -139.3,-100.06 20.3,-59.41 326.6,-50.85 361.2,-21.1 34.6,29.82 137.9,136.66 179.6,134.33 41.6,-2.42 26.2,-154.19 26.2,-154.19 h 45.2 c 0,0 15.8,147.72 17.8,173.11 5.6,75.14 -48,130.43 -50.4,173.25 -2.4,42.91 -4.8,74.91 -4.8,74.91 l -131.2,13.09"
           style="fill:#eb4747;fill-opacity:1;fill-rule:nonzero;stroke:none"
           id="path4646"
           inkscape:connector-curvature="0" /></g><g
         id="g4648"
         transform="scale(1.28202)"><path
           d="m 15840.9,1520.49 c 0,0 101.2,-34.94 179,9.83 77.8,44.7 227.3,112.72 280.1,113.18 0,0 -28.8,88.07 -29.4,97.97 -0.6,9.83 -3.8,56.24 -3.8,56.24 l -130.6,20.99 c 0,0 -84.7,-124.42 -122.1,-153.75 -37.3,-29.25 -133,-102.34 -173.2,-144.46"
           style="fill:#eea987;fill-opacity:1;fill-rule:nonzero;stroke:none"
           id="path4650"
           inkscape:connector-curvature="0" /></g><g
         id="g4652"
         transform="scale(1.37123)"><path
           d="m 15297.3,4438.51 c 0,0 -34,-141.7 -46.7,-182.98 -12.5,-41.28 -93.1,-681.28 -112.9,-1081.66 0,0 482.5,-182.9 1146.2,-152.41 0,0 16.1,735.39 -44.9,943.46 -60.9,208.06 -171.3,402.78 -254.7,462.79 -74.1,53.39 -687,10.8 -687,10.8"
           style="fill:#eb4747;fill-opacity:1;fill-rule:nonzero;stroke:none"
           id="path4654"
           inkscape:connector-curvature="0" /></g><g
         id="g4656"
         transform="scale(1.39331)"><path
           d="m 16138.9,4014.68 c 0,0 -9.7,-58.78 -27.5,-115.41 -17.8,-56.7 -34.2,-74.79 -27.1,-107.23 5.4,-24.54 33.2,-42.92 40.1,-35.02 7.1,7.82 10.5,103.13 49.9,102.7 39.5,-0.43 -11.7,-118.06 11.7,-109.38 23.6,8.62 114,58.21 108.3,106.22 -5.6,48.02 -41.9,82.76 -39.5,154.46 2.1,65.09 -18.2,92.29 -18.2,92.29 l -97.7,-88.63"
           style="fill:#eea987;fill-opacity:1;fill-rule:nonzero;stroke:none"
           id="path4658"
           inkscape:connector-curvature="0" /></g><g
         id="g4660"
         transform="scale(1.23177)"><path
           d="m 16119,6417.74 c 0,0 62.4,-81.02 100.8,-89.63 38.4,-8.52 80.2,82.97 80.2,82.97 l -22.7,82.4 -158.3,-75.74"
           style="fill:#eea886;fill-opacity:1;fill-rule:nonzero;stroke:none"
           id="path4662"
           inkscape:connector-curvature="0" /></g><g
         id="g4664"
         transform="scale(1.23261)"><path
           d="m 16262,6440.49 c 0,0 29.7,93.38 33.9,107.74 4.1,14.44 -10.5,56.63 -37,96.95 -25.7,39.11 -58.1,82.18 -69.4,93.38 -5.9,5.84 -9.2,12.5 -28.6,3.73 -19.4,-8.76 -31,-26.85 -31,-26.85 0,0 -29.1,0.4 -41.7,-22.96 0,0 -27.4,-0.81 -37.3,-29.77 0,0 -26.7,-1.47 -32.2,-23.13 0,0 12.8,-39.83 13.4,-55.98 0.5,-16.14 32.9,-97.19 76,-170.2 0,0 64.1,-55.17 153.9,27.09"
           style="fill:#eea886;fill-opacity:1;fill-rule:nonzero;stroke:none"
           id="path4666"
           inkscape:connector-curvature="0" /></g><g
         id="g4668"
         transform="scale(1.22455)"><path
           d="m 16300,6604.86 c 0,0 -32.3,-37.56 -36.1,-52.67 -3.7,-15.11 -98.2,41.16 -98.2,41.16 0,0 87.7,49.65 134.3,11.51"
           style="fill:#cf8c6c;fill-opacity:1;fill-rule:nonzero;stroke:none"
           id="path4670"
           inkscape:connector-curvature="0" /></g><g
         id="g4672"
         transform="scale(1.22855)"><path
           d="m 16247.9,6751.39 c 0,0 52.1,-110.37 34.7,-119.89 -17.5,-9.52 -29.6,-2.44 -29.6,-2.44 l -2.8,-55.35 c 0,0 -22.6,-35.57 -54.7,-0.65 0,0 -17.6,-35.5 -44.7,1.95 0,0 -22,-18.23 -37.6,-3.09 -15.6,15.13 -41.5,89.61 -41.5,89.61 0,0 1.5,18.24 32.2,23.2 0,0 8,28.41 37.5,29.87 0,0 16.6,29.06 48.6,30.37 0,0 18.2,26.04 53,15.87 0,0 3,-4.64 4.9,-9.45"
           style="fill:#db9c7c;fill-opacity:1;fill-rule:nonzero;stroke:none"
           id="path4674"
           inkscape:connector-curvature="0" /></g><g
         id="g4676"
         transform="scale(1.23221)"><path
           d="m 16300,6554.05 c 0,0 -63,55.35 -110.6,70.44 -10.8,3.41 -21.8,4.79 -29.1,-3.89 -7.3,-8.77 -3.8,-30.35 22.3,-55.67 26,-25.4 48.1,-70.12 48.1,-70.12 0,0 34.4,-18.18 69.3,59.24"
           style="fill:#eea886;fill-opacity:1;fill-rule:nonzero;stroke:none"
           id="path4678"
           inkscape:connector-curvature="0" /></g><g
         id="g4680"
         transform="scale(1.22824)"><path
           d="m 16194,6746.65 c 0,0 64.5,-114.72 63.7,-128.23 -0.7,-13.44 42.3,9.52 42.1,21 -0.2,11.56 -46.7,113.66 -52.7,123.11 -6,9.44 -41.5,16.36 -53.1,-15.88"
           style="fill:#eea886;fill-opacity:1;fill-rule:nonzero;stroke:none"
           id="path4682"
           inkscape:connector-curvature="0" /></g><g
         id="g4684"
         transform="scale(1.22803)"><path
           d="m 16263,6741.61 c 0,0 -102.7,191.77 -117.9,184.77 -22,-10.18 -16.1,-63.28 70.6,-206.43 84.3,-139.17 47.3,21.66 47.3,21.66"
           style="fill:#eea886;fill-opacity:1;fill-rule:nonzero;stroke:none"
           id="path4686"
           inkscape:connector-curvature="0" /></g><g
         id="g4688"
         transform="scale(1.31072)"><path
           d="m 16026.8,5527.25 -198.2,262.98 c 0,0 354.3,274.43 463.6,99.95 0,0 7.8,-287.55 -265.4,-362.93"
           style="fill:#323657;fill-opacity:1;fill-rule:nonzero;stroke:none"
           id="path4690"
           inkscape:connector-curvature="0" /></g><g
         id="g4692"
         transform="scale(1.35734)"><path
           d="m 15361.4,5346.4 c 5.4,-85.17 48.9,-155.82 56.1,-186.61 7.3,-30.8 0,-101.45 9.1,-172.18 9.1,-70.65 36.3,-407.71 27.2,-503.71 -9.1,-96.06 659.1,-52.67 709.9,-23.72 0,0 -112.6,201.28 -115.6,284.6 -1,28.66 -18,117.81 29,183.08 24.9,34.41 71,144.03 117.1,224.11 0,0 -8.5,16.66 0,0 17.8,31.09 36.5,62.11 49.6,85.17 v 0 c 17,30.13 26.5,65.79 26.5,65.79 0,0 29.7,369.69 -51.9,411.32 -81.4,41.7 -125,48.92 -204.7,52.6 -79.7,3.61 -132.2,19.9 -132.2,19.9 l -186.7,-19.9 c 0,0 -119.6,-41.7 -166.8,-45.31 -47,-3.61 -106.8,-105.13 -101.4,-170.33 5.5,-65.27 -70.6,-119.64 -65.2,-204.81"
           style="fill:#323657;fill-opacity:1;fill-rule:nonzero;stroke:none"
           id="path4694"
           inkscape:connector-curvature="0" /></g><g
         id="g4696"
         transform="scale(1.38453)"><path
           d="m 16273.1,3888.19 c 0,0 -53,-13.51 -49.8,-192.49 l 59.9,10.04 c 0,0 -1.1,98.88 16.8,152.83 0,0 -3.1,34.96 -26.9,29.62"
           style="fill:#1d3b54;fill-opacity:1;fill-rule:nonzero;stroke:none"
           id="path4698"
           inkscape:connector-curvature="0" /></g><g
         id="g4700"
         transform="scale(1.40321)"><path
           d="m 15839.6,3606.66 460.4,130.63 -1.4,-567.06 -458.1,-274.58 -0.9,711.01"
           style="fill:#1d3b54;fill-opacity:1;fill-rule:nonzero;stroke:none"
           id="path4702"
           inkscape:connector-curvature="0" /></g><g
         id="g4704"
         transform="scale(1.40698)"><path
           d="m 15798,2887.88 57.5,-10.59 444.5,276.41 -5.5,570.94 -38.2,2.63 -458.3,-839.39"
           style="fill:#1d3b54;fill-opacity:1;fill-rule:nonzero;stroke:none"
           id="path4706"
           inkscape:connector-curvature="0" /></g><g
         id="g4708"
         transform="scale(1.38945)"><path
           d="m 15766.2,5615.4 c 0,0 144.8,0.5 210.3,-126.96 65.5,-127.46 72.6,-261.98 88.5,-309.83 15.9,-47.79 57.6,-328.99 73.5,-369.72 16,-40.67 110.6,-317.1 133.6,-472.85 23,-155.82 27.9,-313.87 27.9,-313.87 l -116.2,3.67 c 0,0 -115.3,423.84 -155,524.75 -34,86.22 -47,236.85 -66.5,289.9 -19.4,53.11 -139.8,426.64 -164.6,453.2 -24.7,26.55 -155,298.17 -31.5,321.71"
           style="fill:#eea886;fill-opacity:1;fill-rule:nonzero;stroke:none"
           id="path4710"
           inkscape:connector-curvature="0" /></g><g
         id="g4712"
         transform="scale(1.37314)"><path
           d="m 16001.4,5159.41 298.6,94.02 c 0,0 -91.5,440.38 -346.6,428.65 -204.5,-9.46 48,-522.67 48,-522.67"
           style="fill:#323657;fill-opacity:1;fill-rule:nonzero;stroke:none"
           id="path4714"
           inkscape:connector-curvature="0" /></g><g
         id="g4716"
         transform="scale(1.34492)"><path
           d="m 15962.1,6673.56 c -83.8,13.75 -275.3,-7.29 -329.6,-227.01 0,0 -0.1,-60.97 9.1,-109.89 9.1,-48.93 -49.1,-183.36 -38.8,-191.46 10.2,-8.18 54.9,-22.16 54.9,-22.16 0,0 31.6,-157.85 85.2,-162.61 53.6,-4.83 260.7,13.83 377.6,192.28 116.9,178.45 179.5,465.53 -158.4,520.85"
           style="fill:#eea886;fill-opacity:1;fill-rule:nonzero;stroke:none"
           id="path4718"
           inkscape:connector-curvature="0" /></g><g
         id="g4720"
         transform="scale(1.33287)"><path
           d="m 15966.2,6076.01 c 0,0 4.1,-22.21 8,-55.07 2,-16.73 3.9,-36.24 5.1,-56.87 3.4,-57.17 1.7,-123.34 -17.8,-165.28 0,0 105.8,-65.58 219.3,92.13 0,0 -11.1,196.79 54,300.78 65.2,104.06 -268.6,-115.69 -268.6,-115.69"
           style="fill:#eea886;fill-opacity:1;fill-rule:nonzero;stroke:none"
           id="path4722"
           inkscape:connector-curvature="0" /></g><g
         id="g4724"
         transform="scale(1.34757)"><path
           d="m 15601.8,6433.88 c 0,0 125.7,-108.65 258.9,-142.85 133.2,-34.29 203.7,-183.89 203.7,-183.89 0,0 235.6,235.09 93.4,463.2 -142.2,228.12 -555.8,126.38 -556,-136.46"
           style="fill:#434343;fill-opacity:1;fill-rule:nonzero;stroke:none"
           id="path4726"
           inkscape:connector-curvature="0" /></g><g
         id="g4728"
         transform="scale(1.32171)"><path
           d="m 16109.1,6071.78 c 2,-16.88 3.9,-36.55 5.2,-57.35 119.7,58.1 185.7,137.77 185.7,137.77 -70.4,-50.46 -190.9,-80.42 -190.9,-80.42"
           style="fill:#a77860;fill-opacity:1;fill-rule:nonzero;stroke:none"
           id="path4730"
           inkscape:connector-curvature="0" /></g><g
         id="g4732"
         transform="scale(1.33977)"><path
           d="m 15977.7,6319.83 c 0,0 137,-368.5 120.6,-457.17 0,0 72.6,12.47 201.7,-27.02 0,0 -62.4,657.36 -322.3,484.19"
           style="fill:#434343;fill-opacity:1;fill-rule:nonzero;stroke:none"
           id="path4734"
           inkscape:connector-curvature="0" /></g><g
         id="g4736"
         transform="scale(1.32695)"><path
           d="m 16300,5907.3 c 0,0 -45.5,-278.98 -214.3,-247.48 -168.6,31.5 -40.6,235.95 -40.6,235.95 0,0 65.8,59.08 254.9,11.53"
           style="fill:#eea886;fill-opacity:1;fill-rule:nonzero;stroke:none"
           id="path4738"
           inkscape:connector-curvature="0" /></g><g
         id="g4740"
         transform="scale(1.059)"><path
           d="m 16300,11748.2 c 0,-273.2 -98.2,-523.4 -261.3,-717.2 -204,-242.6 -510.2,-397.7 -853.6,-397.7 -353.9,0 -676,166 -882.4,433.2 -145.9,188.5 -232.6,425 -232.6,681.7 0,615.8 499.2,1115 1115,1115 615.7,0 1114.9,-499.2 1114.9,-1115"
           style="fill:#eef0f7;fill-opacity:1;fill-rule:nonzero;stroke:none"
           id="path4742"
           inkscape:connector-curvature="0" /></g><g
         id="g4744"
         transform="scale(1.04202)"><path
           d="m 16242.9,11332.1 c -4.2,4.1 -13.6,7.6 -19,11.2 -0.4,0.2 -0.8,0.4 -1.1,0.7 l -0.1,-0.2 c -49.7,27.5 -195.4,99.9 -483,182.5 0,0 -0.1,0 -0.2,0 -52.2,15.9 -91.6,26.3 -105.2,29.7 l -24.4,38.8 c -3.9,39.1 -3.1,97.4 -1.9,136.4 40.5,47 76.9,120.4 97.6,235 6.5,-5 11.6,5.8 11.6,5.8 -3.7,6.5 54.7,148.8 44.1,180.9 -5.9,18.3 -18,16 -27.5,10.7 1.4,8.3 2.9,16.9 4.4,26.1 0,0 23.1,218.2 -87.4,339.8 -11.4,11 -52.1,13.7 -52.1,13.7 -177.5,54.4 -283.9,30.1 -350.5,1.6 -98.8,-81 -106.3,-218.7 -101.8,-294.6 2,-17.9 4,-36 6,-53.6 0.1,-0.4 0.1,-0.6 0.1,-0.6 0.9,-7 1.7,-13.8 2.5,-20.6 -9.2,5.7 -21.3,8.6 -28,-9.4 -11.8,-31.7 31.3,-173.8 36.7,-182.6 0,0 9.3,-14.6 16.6,-8 0.1,0.1 0.1,0.3 0.1,0.3 20.4,-124.8 57.1,-202 95.6,-249.4 -2.7,-50.7 -10,-110.3 -15.2,-148.3 l -43.9,-45.9 v 0 0 c -2.3,-0.7 -4.6,-1.5 -6.9,-2.3 0,0.2 0,0.3 0,0.3 -496,-132.4 -636.2,-224.5 -636.2,-224.5 -12.4,-7.7 -25.2,-28.2 -38.1,-58.8 207.1,-268.2 532.9,-440.3 896.8,-440.3 349.7,0 660.5,158.1 867.5,404.2 -21.4,52.1 -36.8,101 -57.1,121.4"
           style="fill:#78c2ff;fill-opacity:1;fill-rule:nonzero;stroke:none"
           id="path4746"
           inkscape:connector-curvature="0" /></g><path
         d="m 7786.1,11376.5 h -21.14 v 1995.3 h 21.14 v -1995.3"
         style="fill:#e0e0e0;fill-opacity:1;fill-rule:nonzero;stroke:none"
         id="path4748"
         inkscape:connector-curvature="0" /><path
         d="m 9289.54,11376.5 h -21.14 v 1995.3 h 21.14 v -1995.3"
         style="fill:#e0e0e0;fill-opacity:1;fill-rule:nonzero;stroke:none"
         id="path4750"
         inkscape:connector-curvature="0" /><path
         d="m 10793,11376.5 h -21.2 v 1995.3 h 21.2 v -1995.3"
         style="fill:#e0e0e0;fill-opacity:1;fill-rule:nonzero;stroke:none"
         id="path4752"
         inkscape:connector-curvature="0" /><path
         d="m 12296.4,11376.5 h -21.1 v 1995.3 h 21.1 v -1995.3"
         style="fill:#e0e0e0;fill-opacity:1;fill-rule:nonzero;stroke:none"
         id="path4754"
         inkscape:connector-curvature="0" /><path
         d="m 13799.9,11376.5 h -21.2 v 1995.3 h 21.2 v -1995.3"
         style="fill:#e0e0e0;fill-opacity:1;fill-rule:nonzero;stroke:none"
         id="path4756"
         inkscape:connector-curvature="0" /><path
         d="m 8014.73,11189 h -239.2 v 69.3 h 239.2 v -69.3"
         style="fill:#b8b8b8;fill-opacity:1;fill-rule:nonzero;stroke:none"
         id="path4758"
         inkscape:connector-curvature="0" /><path
         d="m 8135.63,13565.7 h -360.1 v 52 h 360.1 v -52"
         style="fill:#d9d9d9;fill-opacity:1;fill-rule:nonzero;stroke:none"
         id="path4760"
         inkscape:connector-curvature="0" /><path
         d="m 8286.33,13469.5 h -510.8 v 52 h 510.8 v -52"
         style="fill:#d9d9d9;fill-opacity:1;fill-rule:nonzero;stroke:none"
         id="path4762"
         inkscape:connector-curvature="0" /><path
         d="m 9685.54,13565.7 h -422.78 v 52 h 422.78 v -52"
         style="fill:#d9d9d9;fill-opacity:1;fill-rule:nonzero;stroke:none"
         id="path4764"
         inkscape:connector-curvature="0" /><path
         d="m 9533.1,13469.5 h -270.34 v 52 h 270.34 v -52"
         style="fill:#d9d9d9;fill-opacity:1;fill-rule:nonzero;stroke:none"
         id="path4766"
         inkscape:connector-curvature="0" /><path
         d="m 11055,13565.7 h -262 v 52 h 262 v -52"
         style="fill:#d9d9d9;fill-opacity:1;fill-rule:nonzero;stroke:none"
         id="path4768"
         inkscape:connector-curvature="0" /><path
         d="M 11098.3,13469.5 H 10793 v 52 h 305.3 v -52"
         style="fill:#d9d9d9;fill-opacity:1;fill-rule:nonzero;stroke:none"
         id="path4770"
         inkscape:connector-curvature="0" /><path
         d="m 12678,13565.7 h -381.6 v 52 h 381.6 v -52"
         style="fill:#d9d9d9;fill-opacity:1;fill-rule:nonzero;stroke:none"
         id="path4772"
         inkscape:connector-curvature="0" /><path
         d="m 12601.8,13469.5 h -305.4 v 52 h 305.4 v -52"
         style="fill:#d9d9d9;fill-opacity:1;fill-rule:nonzero;stroke:none"
         id="path4774"
         inkscape:connector-curvature="0" /><path
         d="m 14017.2,13565.7 h -227.9 v 52 h 227.9 v -52"
         style="fill:#d9d9d9;fill-opacity:1;fill-rule:nonzero;stroke:none"
         id="path4776"
         inkscape:connector-curvature="0" /><path
         d="m 13971.7,13469.5 h -182.4 v 52 h 182.4 v -52"
         style="fill:#d9d9d9;fill-opacity:1;fill-rule:nonzero;stroke:none"
         id="path4778"
         inkscape:connector-curvature="0" /><path
         d="m 9518.16,11189 h -239.19 v 69.3 h 239.19 v -69.3"
         style="fill:#b8b8b8;fill-opacity:1;fill-rule:nonzero;stroke:none"
         id="path4780"
         inkscape:connector-curvature="0" /><path
         d="M 11032.2,11189 H 10793 v 69.3 h 239.2 v -69.3"
         style="fill:#b8b8b8;fill-opacity:1;fill-rule:nonzero;stroke:none"
         id="path4782"
         inkscape:connector-curvature="0" /><path
         d="m 12535.6,11189 h -239.2 v 69.3 h 239.2 v -69.3"
         style="fill:#b8b8b8;fill-opacity:1;fill-rule:nonzero;stroke:none"
         id="path4784"
         inkscape:connector-curvature="0" /><path
         d="m 14039.1,11189 h -239.2 v 69.3 h 239.2 v -69.3"
         style="fill:#b8b8b8;fill-opacity:1;fill-rule:nonzero;stroke:none"
         id="path4786"
         inkscape:connector-curvature="0" /><g
         id="g4788"><g
           id="g4790"
           clip-path="url(#clipPath4794)"><path
             d="m 13268.3,11969.4 c -469,0 -876.6,182.3 -1301.6,372.4 -524.6,234.6 -1067.1,477.3 -1789.9,410.8 -461.55,-42.4 -751.25,-211.5 -1006.85,-360.6 -231.43,-135.1 -450.24,-253.8 -746.58,-264 -478.92,-16.4 -645.06,167.3 -647.84,178.6 v 117.8 0 0 c 0.6,-2 105.16,-208.2 647.33,-205.7 267,1.2 464.06,116.2 692.24,249.3 265.16,154.8 565.71,330.1 1051.5,374.8 751.7,69.1 1307.5,-179.5 1845,-419.9 562.4,-251.5 1099.1,-487.4 1777.7,-282.7 v -97 c -193.5,-58.3 -348.2,-73.8 -521,-73.8"
             style="fill:url(#linearGradient4800);fill-opacity:1;fill-rule:nonzero;stroke:none"
             id="path4802"
             inkscape:connector-curvature="0" /></g></g><g
         id="g4804"><g
           id="g4806"
           clip-path="url(#clipPath4810)"><path
             d="m 10453.5,11992 c -346.1,-0.1 -620.64,209.3 -889.41,414.3 -203.79,155.4 -415.21,314.3 -659.27,392.6 -744.83,239.2 -1125.88,-197.5 -1129.29,-201.4 v 132.9 c 4.02,4.5 72,83.9 268.64,159.7 179.04,69 479.42,124.1 893.76,-5.5 262.49,-82.2 480.5,-248.4 691.33,-409.2 427.64,-326.1 797.04,-607.7 1438.44,-166.6 485.9,334.1 943.8,652.6 1394.4,768.9 440.8,113.8 900.3,30.5 1330.4,-356.4 l -3.2,-120.6 c -913.6,825.3 -1691.6,302.4 -2660.4,-363.9 -256.6,-176.5 -477.7,-244.8 -675.4,-244.8"
             style="fill:url(#linearGradient4816);fill-opacity:1;fill-rule:nonzero;stroke:none"
             id="path4818"
             inkscape:connector-curvature="0" /></g></g></g></g></svg>