<?xml version="1.0" encoding="UTF-8" standalone="no"?>
<!-- Created with Inkscape (http://www.inkscape.org/) -->

<svg
   xmlns:dc="http://purl.org/dc/elements/1.1/"
   xmlns:cc="http://creativecommons.org/ns#"
   xmlns:rdf="http://www.w3.org/1999/02/22-rdf-syntax-ns#"
   xmlns:svg="http://www.w3.org/2000/svg"
   xmlns="http://www.w3.org/2000/svg"
   xmlns:sodipodi="http://sodipodi.sourceforge.net/DTD/sodipodi-0.dtd"
   xmlns:inkscape="http://www.inkscape.org/namespaces/inkscape"
   version="1.1"
   id="svg9273"
   xml:space="preserve"
   width="2868.9705"
   height="2055.6284"
   viewBox="0 0 2868.9705 2055.6285"
   sodipodi:docname="45240.svg"
   inkscape:version="0.92.4 (unknown)"><metadata
     id="metadata9279"><rdf:RDF><cc:Work
         rdf:about=""><dc:format>image/svg+xml</dc:format><dc:type
           rdf:resource="http://purl.org/dc/dcmitype/StillImage" /><dc:title></dc:title></cc:Work></rdf:RDF></metadata><defs
     id="defs9277" /><sodipodi:namedview
     pagecolor="#ffffff"
     bordercolor="#666666"
     borderopacity="1"
     objecttolerance="10"
     gridtolerance="10"
     guidetolerance="10"
     inkscape:pageopacity="0"
     inkscape:pageshadow="2"
     inkscape:window-width="1920"
     inkscape:window-height="1029"
     id="namedview9275"
     showgrid="false"
     fit-margin-top="0"
     fit-margin-left="0"
     fit-margin-right="0"
     fit-margin-bottom="0"
     inkscape:zoom="0.34757075"
     inkscape:cx="1434.6801"
     inkscape:cy="1027.2133"
     inkscape:window-x="0"
     inkscape:window-y="28"
     inkscape:window-maximized="1"
     inkscape:current-layer="g9283" /><g
     id="g9281"
     inkscape:groupmode="layer"
     inkscape:label="ink_ext_XXXXXX"
     transform="matrix(1.3333333,0,0,-1.3333333,-167.98657,2277.0817)"><g
       id="g9283"
       transform="scale(0.1)"><g
         id="g9289"
         transform="scale(1.42447)"><path
           d="m 7495.37,1165.98 v 0 c 385.13,0 750.17,11.79 1082.16,30.26 -331.99,-18.47 -697.03,-30.26 -1082.16,-30.26 m 1511.23,58.69 c 2051.6,145.88 5970.3,50.9 6834.3,2448.64 -864,-2397.74 -4782.7,-2302.76 -6834.3,-2448.64 m 6837.6,2457.76 c 0,0.07 0,0.14 0,0.14 v -0.14 m 0.5,1.69 c 0.2,0.35 0.3,0.63 0.4,0.91 -0.1,-0.28 -0.2,-0.56 -0.4,-0.91 m 0.6,1.61 c 51.5,145.46 86.8,291.27 109.9,437.5 H 11120 l -381.6,1711.52 43.4,-43.39 237.1,237.07 -183.6,183.57 c 21.8,29.88 42.2,60.83 61.1,92.83 l 240.5,-99.9 128.6,309.67 -243.5,101.09 c 8.6,35.87 15.5,72.38 20.6,109.47 h 264.9 v 335.29 h -268.1 c -4.7,29.77 -10.8,59.1 -17.8,88.07 l 250.3,98.8 -123.1,311.85 -253.3,-99.97 c -21.5,36.2 -44.7,71.21 -69.9,104.68 l 193.3,193.29 -237.1,237.07 -195.1,-195.1 c -28.2,20.59 -57.3,39.96 -87.4,57.93 l 106,255.21 -309.7,128.57 -106.4,-256.41 c -34.2,8.38 -68.8,15.32 -104.1,20.55 v 277.85 h -335.27 v -277.85 c -28.71,-4.24 -57.01,-9.76 -84.87,-16.11 l -102.08,258.39 -311.84,-123.13 101.59,-257.25 c -36.09,-20.74 -70.98,-43.29 -104.46,-67.75 l -195.09,195.1 -237.08,-237.07 193.27,-193.29 c -21.27,-28.21 -41.14,-57.48 -59.74,-87.68 l -251.54,104.46 -128.6,-309.64 248.44,-103.17 c -9.13,-35.15 -16.57,-71 -22.32,-107.4 H 8527.4 v -335.29 h 264.88 c 4.21,-30.39 9.54,-60.41 16.07,-90.01 L 8563,6538.27 8652.01,6312.64 H 5351.77 5333.86 L 4885.65,4123.23 H 923.539 c 13.492,-66.9 30.593,-132.26 51.667,-195.72 -228.188,685.87 4.53,1598.56 359.164,2196.12 344.58,580.72 972.54,1059.31 669.16,1813.59 -311.92,775.46 -890.24,1037.44 -399.93,1998.33 699.66,1371.15 2334.23,1621.15 3696.5,1802.15 1179.75,156.8 2333.92,251.4 3484.1,251.4 1318.3,0 2631.3,-124.4 3969.9,-422.1 1007.9,-224.1 1949.9,-619.9 2520.5,-1540.7 476.4,-768.72 265.9,-1602.46 264.6,-2445.99 -2.1,-1294.75 760.8,-2610.87 306.1,-3894.58 m -3009.9,3748.59 c 58.1,-15.09 117.7,-26.72 178.2,-35.33 v -178.98 h 459 v 178.98 c 57,8.13 113.2,18.99 168.2,32.87 l 67.8,-165.28 424.6,174.3 -68.1,165.75 c 52.3,30.84 102.8,64.29 151.1,100.6 l 126.7,-126.7 324.6,324.54 -127,126.91 c 34.2,45.57 65.8,93.11 95.2,142.21 l 165.7,-69.29 177,423.48 -165.8,69.32 c 14.9,58 26.4,117.39 34.9,177.74 h 180.4 v 458.97 H 14847 c -8,56.79 -19,112.66 -32.8,167.4 l 167.2,68.63 -174.3,424.58 -167.9,-68.94 c -30.7,51.99 -64,102.24 -100.1,150.26 l 128.4,128.46 -324.6,324.5 -128.6,-128.6 c -45.3,34 -92.6,65.5 -141.4,94.6 l 70.2,168 -423.5,177 -70.1,-167.8 c -57.8,14.9 -116.9,26.4 -176.9,34.9 v 182.4 h -459 v -182.4 c -56.6,-8 -112.3,-18.8 -166.9,-32.5 l -69.1,168.4 -424.6,-174.3 69.1,-168.6 c -51.9,-30.6 -102.2,-63.7 -150.3,-99.7 l -128.6,128.6 -324.5,-324.5 128.4,-128.46 c -34.1,-45.31 -65.7,-92.53 -95,-141.35 l -167.4,69.96 -177,-423.5 166.7,-69.66 c -15,-57.91 -26.7,-117.14 -35.3,-177.38 h -180.9 v -458.97 h 180.5 c 7.9,-56.9 18.8,-112.87 32.5,-167.7 l -166.5,-68.34 174.3,-424.58 166.3,68.27 c 30.8,-52.25 64.1,-102.81 100.3,-151.11 l -126.9,-126.91 324.5,-324.54 126.7,126.7 c 45.6,-34.27 93,-66.06 142.2,-95.47 l -69,-165.19 423.4,-177.01 68.9,164.76 m -6288.35,580.21 c 45.01,-11.68 91.07,-20.7 137.9,-27.35 v -138.51 h 355.23 v 138.51 c 44.16,6.29 87.61,14.7 130.16,25.44 l 52.51,-127.91 328.61,134.88 -52.65,128.29 c 40.43,23.86 79.54,49.75 116.95,77.85 l 98.01,-98.04 251.18,251.16 -98.22,98.23 c 26.47,35.28 50.97,72.05 73.58,110.07 l 128.33,-53.63 136.96,327.75 -128.33,53.63 c 11.58,44.91 20.43,90.87 27.03,137.57 H 8244 v 355.22 h -140.05 c -6.25,43.96 -14.67,87.18 -25.41,129.56 l 129.45,53.12 -134.93,328.59 -130.01,-53.34 c -23.73,40.23 -49.5,79.11 -77.44,116.27 l 99.34,99.41 -251.18,251.2 -99.55,-99.6 c -35.03,26.3 -71.61,50.7 -109.44,73.3 l 54.33,130 -327.7,136.9 -54.26,-129.8 c -44.72,11.5 -90.5,20.4 -136.97,27 v 141.2 h -355.23 v -141.2 c -43.81,-6.2 -86.92,-14.6 -129.15,-25.2 l -53.51,130.3 -328.62,-134.8 53.54,-130.5 c -40.22,-23.7 -79.12,-49.3 -116.32,-77.2 l -99.52,99.6 -251.19,-251.2 99.37,-99.41 c -26.38,-35.06 -50.87,-71.6 -73.54,-109.39 l -129.53,54.13 -136.97,-327.75 129.02,-53.91 c -11.64,-44.81 -20.68,-90.66 -27.34,-137.28 h -140.02 v -355.22 h 139.67 c 6.21,-44.03 14.58,-87.35 25.19,-129.77 l -128.84,-52.91 134.91,-328.6 128.73,52.84 c 23.79,-40.44 49.54,-79.59 77.58,-116.95 l -98.23,-98.23 251.19,-251.16 98.03,98.04 c 35.27,-26.52 72.04,-51.12 110.05,-73.88 l -53.46,-127.85 327.76,-136.98 53.3,127.51 M 10225.2,6312.64 h -615.5 c -207.51,110.33 -348.9,328.76 -348.9,580.17 0,362.62 294.01,656.58 656.67,656.58 362.63,0 656.53,-293.96 656.53,-656.58 0,-251.41 -141.2,-469.84 -348.8,-580.17 m -1291.19,0 h -29.55 l 24.08,9.5 c 1.82,-3.17 3.65,-6.34 5.47,-9.5 m 4309.09,1694.41 c -550.2,0 -996.2,446 -996.2,996.15 0,550.17 446,996.17 996.2,996.17 550.1,0 996.1,-446 996.1,-996.17 0,-550.15 -446,-996.15 -996.1,-996.15 m -6380.53,450.73 c -425.8,0 -770.98,345.17 -770.98,770.98 0,425.78 345.18,770.96 770.98,770.96 425.77,0 770.96,-345.18 770.96,-770.96 0,-425.81 -345.19,-770.98 -770.96,-770.98"
           style="fill:#c5ebf8;fill-opacity:1;fill-rule:nonzero;stroke:none"
           id="path9291"
           inkscape:connector-curvature="0" /></g><g
         id="g9293"
         transform="scale(1.38473)"><path
           d="m 7710.45,1199.44 c -2486.6,0 -5792.71,479.73 -6681.61,2769.49 -9.12,23.47 -17.66,47.23 -25.65,71.28 8,-24.05 16.55,-47.81 25.67,-71.28 888.89,-2289.76 4194.99,-2769.49 6681.59,-2769.49 v 0 m 8585.05,2579.27 c 0.4,1.23 0.8,2.39 1.3,3.62 0.7,1.94 1.3,3.9 2,5.77 -0.7,-1.87 -1.3,-3.83 -2,-5.77 -0.5,-1.23 -0.9,-2.39 -1.3,-3.62 m 3.3,9.54 c 0.3,0.57 0.5,1.01 0.6,1.59 -0.1,-0.51 -0.3,-1.02 -0.6,-1.59 m 1,2.52 c 0.1,0.22 0.1,0.51 0.2,0.73 -0.1,-0.22 -0.1,-0.51 -0.2,-0.73"
           style="fill:#b7e6f7;fill-opacity:1;fill-rule:nonzero;stroke:none"
           id="path9295"
           inkscape:connector-curvature="0" /></g><g
         id="g9297"
         transform="scale(1.39434)"><path
           d="m 7657.33,1191.18 c -2469.47,0 -5752.79,476.42 -6635.55,2750.4 -9.06,23.31 -17.55,46.91 -25.501,70.79 -21.53,64.84 -39,131.61 -52.784,199.95 H 4991.22 L 4659.58,2592.34 h 5394.12 l 1519.3,665.98 -212.8,954 H 16300 c -23.6,-149.39 -59.7,-298.34 -112.3,-446.95 -0.1,-0.21 -0.2,-0.5 -0.2,-0.72 -0.2,-0.28 -0.2,-0.57 -0.4,-0.93 -0.1,-0.57 -0.3,-1 -0.6,-1.58 0,0 0,-0.07 0,-0.14 -0.7,-1.86 -1.3,-3.8 -2,-5.74 -0.5,-1.21 -0.9,-2.36 -1.3,-3.58 -882.7,-2449.55 -4886.1,-2352.52 -6981.98,-2501.55 -20.16,-1.43 -40.17,-2.94 -59.96,-4.37 -120.63,-9.04 -246.86,-17.36 -378.39,-24.67 -339.16,-18.87 -712.09,-30.91 -1105.54,-30.91"
           style="fill:#99dcf4;fill-opacity:1;fill-rule:nonzero;stroke:none"
           id="path9299"
           inkscape:connector-curvature="0" /></g><path
         d="m 15358.3,8249.6 -61.8,61.8 -151.8,680.74 h -579.2 c 295.6,157.16 496.8,468.31 496.8,826.43 0,516.53 -418.7,935.33 -935.2,935.33 -516.6,0 -935.4,-418.8 -935.4,-935.33 0,-358.12 201.4,-669.27 497,-826.43 h -962.5 c -2.6,4.5 -5.2,9.02 -7.8,13.54 l -34.3,-13.54 h -359.6 l -126.8,321.4 349.5,138.01 c -9.3,42.16 -16.9,84.92 -22.9,128.22 H 12147 v 477.63 h 381.9 c 8.2,51.8 18.8,102.9 31.8,153 l -353.9,146.9 183.2,441.1 358.3,-148.8 c 26.5,43 54.8,84.7 85.1,124.9 l -275.3,275.3 337.7,337.7 277.9,-277.9 c 47.7,34.8 97.4,67 148.8,96.5 l -144.7,366.5 444.2,175.4 145.4,-368.1 c 39.7,9 80,16.9 120.9,22.9 v 395.8 h 477.6 v -395.8 c 50.2,-7.4 99.6,-17.3 148.3,-29.2 l 151.6,365.2 441.1,-183.1 -151,-363.6 c 42.9,-25.6 84.3,-53.2 124.5,-82.5 l 277.9,277.9 337.7,-337.7 -275.3,-275.3 c 35.9,-47.7 69,-97.6 99.6,-149.1 l 360.8,142.4 175.3,-444.2 -356.5,-140.8 c 10,-41.2 18.6,-83 25.3,-125.4 h 381.9 v -477.63 h -377.3 c -7.3,-52.84 -17.1,-104.84 -29.3,-155.95 l 346.8,-143.99 -183.1,-441.12 -342.7,142.31 c -26.9,-45.58 -55.9,-89.67 -87,-132.23 l 261.5,-261.49 -337.7,-337.7"
         style="fill:#b6d1eb;fill-opacity:1;fill-rule:nonzero;stroke:none"
         id="path9301"
         inkscape:connector-curvature="0" /><path
         d="m 10028.5,11180.2 h -506.01 v 197.3 c -66.71,9.4 -132.33,22.3 -196.44,38.9 l -75.92,-181.6 -466.88,195.1 76.15,182.1 c -54.15,32.4 -106.52,67.5 -156.77,105.3 l -139.64,-139.7 -357.81,357.8 139.92,139.9 c -39.94,53.2 -76.62,109 -110.5,166.6 l -183.37,-75.3 -192.18,468.1 183.53,75.4 c -15.12,60.4 -27.04,122.1 -35.89,184.8 h -198.95 v 506 h 199.45 c 9.49,66.5 22.37,131.8 38.95,195.6 l -183.78,76.8 195.1,466.9 184.52,-77.2 c 32.28,53.9 67.18,105.9 104.75,155.9 l -141.55,141.6 357.81,357.7 141.77,-141.7 c 52.98,39.7 108.4,76.2 165.69,109.9 l -76.27,185.8 468.11,192.2 76.22,-185.7 c 60.16,15.1 121.57,27 183.98,35.9 v 201.1 h 506.01 v -201.1 c 66.2,-9.4 131.4,-22.1 195.1,-38.5 l 77.3,185 466.8,-195.1 -77.4,-185.2 c 53.9,-32.2 106,-66.9 155.9,-104.3 l 141.8,141.7 357.8,-357.7 -141.5,-141.6 c 39.8,-53 76.5,-108.3 110.3,-165.7 l 185.2,76 192.2,-468 -184.4,-75.7 c 15.3,-60.4 27.3,-121.9 36.2,-184.6 h 199.5 v -506 h -199 c -9.4,-66.5 -22,-132 -38.5,-195.9 l 182.8,-76.4 -195.1,-466.9 -182.8,76.4 c -32.2,-54.2 -67.1,-106.5 -104.8,-156.8 l 139.9,-139.9 -357.8,-357.8 -139.6,139.7 c -53.3,-40.1 -109,-76.9 -166.6,-110.9 l 75,-182.8 -468.1,-192.1 -74.8,182.2 c -60.6,-15.3 -122.5,-27.3 -185.4,-36.2 v -197.3 m -253,3064.1 c -606.54,0 -1098.23,-491.7 -1098.23,-1098.2 0,-606.6 491.69,-1098.3 1098.23,-1098.3 606.5,0 1098.2,491.7 1098.2,1098.3 0,606.5 -491.7,1098.2 -1098.2,1098.2"
         style="fill:#a2cbea;fill-opacity:1;fill-rule:nonzero;stroke:none"
         id="path9303"
         inkscape:connector-curvature="0" /><g
         id="g9305"
         transform="scale(1.3133)"><path
           d="m 14613,7831.15 h -497.9 v 194.13 c -65.6,9.35 -130.2,21.96 -193.2,38.33 l -74.7,-178.71 -459.3,191.99 74.8,179.18 c -53.3,31.89 -104.8,66.37 -154.2,103.55 l -137.4,-137.43 -352,352.02 137.6,137.64 c -39.2,52.4 -75.3,107.23 -108.7,163.9 l -180.4,-74.05 -189,460.53 180.5,74.13 c -14.9,59.46 -26.7,120.17 -35.3,181.88 h -195.7 v 497.86 h 196.2 c 9.3,65.3 22,129.5 38.3,192.4 l -180.8,75.5 192,459.4 181.5,-75.9 c 31.8,52.9 66.1,104.1 103,153.3 l -139.2,139.3 352,352 139.5,-139.5 c 52.1,39.1 106.7,75 163,108.2 l -75,182.8 460.5,189 75,-182.6 c 59.2,14.9 119.7,26.6 181,35.3 v 197.8 h 497.9 v -197.8 c 65.1,-9.3 129.2,-21.7 191.8,-37.9 l 76.1,182 459.3,-192 -76.1,-182.2 c 53,-31.6 104.2,-65.7 153.4,-102.6 l 139.5,139.5 352,-352 -139.3,-139.3 c 39.2,-52.1 75.3,-106.6 108.6,-163 l 182.2,74.8 189,-460.5 -181.4,-74.5 c 15,-59.3 26.9,-119.9 35.7,-181.5 h 196.2 v -497.86 h -195.8 c -9.2,-65.45 -21.6,-129.87 -37.8,-192.78 l 179.8,-75.19 -191.9,-459.32 -179.8,75.15 c -31.8,-53.26 -66.1,-104.82 -103.2,-154.25 l 137.7,-137.64 -352,-352.02 -137.5,137.43 c -52.3,-39.39 -107.1,-75.67 -163.8,-109.12 l 73.8,-179.78 -460.5,-189.06 -73.6,179.27 c -59.6,-15.05 -120.5,-26.83 -182.4,-35.65 v -194.13 m -249,3014.65 c -596.7,0 -1080.4,-483.8 -1080.4,-1080.52 0,-596.71 483.7,-1080.47 1080.4,-1080.47 596.8,0 1080.5,483.76 1080.5,1080.47 0,596.72 -483.7,1080.52 -1080.5,1080.52"
           style="fill:#96b3df;fill-opacity:1;fill-rule:nonzero;stroke:none"
           id="path9307"
           inkscape:connector-curvature="0" /></g><g
         id="g9309"
         transform="scale(1.18262)"><path
           d="m 15408.2,10241.1 c -100.4,-168.1 -143.4,-349.94 -144.2,-550.94 -1,-257.64 -210.8,-66.19 -180.8,-574.49 20,-338.17 -152.8,-1292.16 -110.3,-1628 l 1327.1,53.09 c -32.8,196.27 -213.3,2048.29 -224.2,2139.61 -30,252.86 -137.3,537.73 -324.7,734.83 -3.6,3.8 -119.5,-90.8 -134.2,-99.5 -53.5,-31.9 -110.3,-55.5 -171.3,-68.7 -9.4,-2 -22.8,-4 -37.4,-5.9"
           style="fill:#ffffff;fill-opacity:1;fill-rule:nonzero;stroke:none"
           id="path9311"
           inkscape:connector-curvature="0" /></g><g
         id="g9313"
         transform="scale(1.04112)"><path
           d="m 15873.3,11122.9 c 55.4,12.1 373.4,-113.1 402.4,-25 24.3,73.7 -41.4,194.7 -41.4,194.6 -180,298.3 -580.2,822.9 -752.1,1008.4 -168.8,182.5 -180.5,-95.6 -180.5,-95.6 109.6,-271.4 292.3,-727.4 571.6,-1082.4"
           style="fill:#eda4b8;fill-opacity:1;fill-rule:nonzero;stroke:none"
           id="path9315"
           inkscape:connector-curvature="0" /></g><g
         id="g9317"
         transform="scale(1.13283)"><path
           d="m 14799.3,10584.9 c 199.6,15.4 457.7,0.2 535.4,12.8 452.5,73.6 883.8,125.1 922,-82.1 43.3,-234.7 -436.7,-387.6 -828.8,-433.1 -341,-39.7 -577.5,5.2 -936.7,33.3 22.6,143.3 169.5,378.3 308.1,469.1"
           style="fill:#e9e9e9;fill-opacity:1;fill-rule:nonzero;stroke:none"
           id="path9319"
           inkscape:connector-curvature="0" /></g><path
         d="m 15790.9,13295.3 c 29.4,-5.6 62.2,-15 70,-22.6 89.1,-87.1 151.7,-159.4 197.5,-277 14.4,-36.8 210.6,-510.5 220.9,-508.4 l -217,7.1 c -132.5,184.4 -293.7,351.3 -374.1,565.9 -30.9,82.7 -20.7,258.7 102.7,235"
         style="fill:#eda4b8;fill-opacity:1;fill-rule:nonzero;stroke:none"
         id="path9321"
         inkscape:connector-curvature="0" /><g
         id="g9323"
         transform="scale(1.21522)"><path
           d="m 15769.6,10853.5 c 6.7,-42.8 19.1,-84.3 45.1,-122.6 30.9,-45.5 72.1,-79.7 104.7,-123.8 48.1,-65.1 65.8,-150.9 89.9,-227.6 38.9,-124.3 27.5,-257.4 54.8,-386.12 15.9,-75.21 35.1,-162.99 67.3,-232.81 27.5,-59.55 78.1,-111.68 102.1,-171.71 66.5,-166.33 -45.6,-392.6 -191.6,-482.19 -157.7,-96.84 -397.2,-70.35 -558,5.54 -135.3,63.9 -143.3,207.55 -158.8,344.41 -18.4,162.26 -43.5,354.39 -130.3,496.09 -118.1,192.59 -315.9,343.69 -394.5,559.09 -44.1,120.2 -89.6,244.5 -115.8,370 -24.3,116.7 -23.5,234 -0.6,350.8 10.1,51.3 18.2,132.1 46.2,176.4 28.8,45.4 73.5,55.5 126.4,75.3 69.3,25.9 135.9,72 207.4,90.4 176.5,45.7 404,-90.9 503.1,-230.1 57.5,-80.7 158,-169.3 180,-266.3 16.7,-73.3 11.1,-151.1 22.6,-224.8"
           style="fill:#485ea8;fill-opacity:1;fill-rule:nonzero;stroke:none"
           id="path9325"
           inkscape:connector-curvature="0" /></g><g
         id="g9327"
         transform="scale(1.15063)"><path
           d="m 16285.5,11420.6 c -14.4,-72.4 -119.4,-169.2 -145.8,-107.2 -16.1,37.9 -30.5,121.3 -15.9,193.8 14.4,72.4 2.3,81.7 68.3,68.5 66.1,-13.2 107.9,-82.6 93.4,-155.1"
           style="fill:#eda4b8;fill-opacity:1;fill-rule:nonzero;stroke:none"
           id="path9329"
           inkscape:connector-curvature="0" /></g><g
         id="g9331"
         transform="scale(1.14421)"><path
           d="m 16240.9,11241.9 c -11.2,146.9 -441.8,-126.2 -441.8,-126.2 l 46.1,-560.4 c 0,0 4.5,22.5 216.3,17.5 129,-3 238.5,3.2 232,123.8 -3.9,74.5 -48.6,494.5 -52.6,545.3"
           style="fill:#eda4b8;fill-opacity:1;fill-rule:nonzero;stroke:none"
           id="path9333"
           inkscape:connector-curvature="0" /></g><g
         id="g9335"
         transform="scale(1.14096)"><path
           d="m 16293.7,11131.8 c -61.1,-197.4 -236.5,-339.7 -420.2,-325.1 l -29.3,340.7 c 0,0 431.8,273.8 443,126.5 1.2,-15.6 6.2,-66 12.8,-130.4 -2.6,-3.2 -4.8,-7 -6.3,-11.7"
           style="fill:#e78482;fill-opacity:1;fill-rule:nonzero;stroke:none"
           id="path9337"
           inkscape:connector-curvature="0" /></g><g
         id="g9339"
         transform="scale(1.14312)"><path
           d="m 15784.7,11005.9 c 142.3,-67.6 371.4,15 449.7,145.6 47.4,79.1 65.6,159 59.6,247.5 -6.9,99.7 -36,188.5 -43.7,288.6 -3.3,43.2 -7.7,86.6 -20,128.3 -19.6,66.7 -59.9,127.6 -114.1,173 -53.4,44.6 -123.3,57 -188.3,78.5 -55.1,18.1 -117.4,41.8 -176.5,38.2 -40.6,-2.5 -61.3,-32 -88.9,-59.8 -149.3,-150.7 -178.5,-419.8 -136,-619.9 31.5,-148.9 111.8,-350.5 258.2,-420"
           style="fill:#eda4b8;fill-opacity:1;fill-rule:nonzero;stroke:none"
           id="path9341"
           inkscape:connector-curvature="0" /></g><g
         id="g9343"
         transform="scale(1.19744)"><path
           d="m 14944.8,7150.95 c 12.8,-267.49 92.9,-443.28 151,-595.44 302.8,-793.03 522.2,-1545.05 650.4,-1760.85 140.3,-236 553.8,188.16 553.8,188.16 0,0 -570.6,2363.78 -702.1,2515.7 -131.5,151.87 -663.4,-133.09 -653.1,-347.57"
           style="fill:#eda4b8;fill-opacity:1;fill-rule:nonzero;stroke:none"
           id="path9345"
           inkscape:connector-curvature="0" /></g><g
         id="g9347"
         transform="scale(1.19998)"><path
           d="m 14913.1,7135.78 c 12.8,-266.92 92.7,-442.34 150.7,-594.18 302.1,-791.35 521.1,-1541.77 649,-1757.11 139.9,-235.5 587.2,92 587.2,92 0,0 -505.3,2440.19 -636.6,2591.74 -131.2,151.59 -760.6,-118.43 -750.3,-332.45"
           style="fill:#3e508f;fill-opacity:1;fill-rule:nonzero;stroke:none"
           id="path9349"
           inkscape:connector-curvature="0" /></g><g
         id="g9351"
         transform="scale(1.24137)"><path
           d="m 15260.4,4315.86 c 0,0 101,-327.46 891.6,-1302.42 105.8,-130.42 148,58.24 148,58.24 0,0 -616.3,1454.76 -721.3,1594.6 -105.1,139.93 -318.3,-350.42 -318.3,-350.42"
           style="fill:#eda4b8;fill-opacity:1;fill-rule:nonzero;stroke:none"
           id="path9353"
           inkscape:connector-curvature="0" /></g><g
         id="g9355"
         transform="scale(1.23123)"><path
           d="m 15665.7,3539.22 c -280.3,508.43 -379.2,1165.17 -379.2,1165.17 0,0 480.1,210.03 586,69.03 53.5,-71.22 246.7,-494.38 427.5,-903.32 -140.8,-69.85 -632.9,-330.32 -634.3,-330.88"
           style="fill:#3e508f;fill-opacity:1;fill-rule:nonzero;stroke:none"
           id="path9357"
           inkscape:connector-curvature="0" /></g><g
         id="g9359"
         transform="scale(1.15417)"><path
           d="m 15526.4,7546.8 c -155.5,-230.3 -198,-426.11 -244.3,-588.74 -240.7,-847.1 -362.1,-1497.26 -389.4,-1756.23 -30,-283.24 413.9,-298.57 413.9,-298.57 0,0 993.4,2318.89 978.4,2526.83 -15.1,207.96 -634,301.32 -758.6,116.71"
           style="fill:#eda4b8;fill-opacity:1;fill-rule:nonzero;stroke:none"
           id="path9361"
           inkscape:connector-curvature="0" /></g><g
         id="g9363"
         transform="scale(1.09088)"><path
           d="m 15765.9,4918.49 c 0,0 -64.2,-398.39 283,-1784.06 46.4,-185.26 191.6,1.1 191.6,1.1 0,0 59.5,1546.45 18.3,1741.25 -41.1,194.8 -492.9,41.71 -492.9,41.71"
           style="fill:#eda4b8;fill-opacity:1;fill-rule:nonzero;stroke:none"
           id="path9365"
           inkscape:connector-curvature="0" /></g><g
         id="g9367"
         transform="scale(1.10233)"><path
           d="m 15479.7,3629.58 c -112.6,841.58 57.8,1709.65 57.8,1709.65 0,0 513.8,-15.15 554.6,-207.92 22.9,-108.59 201.6,-1067.92 207.9,-1501.73 h -820.3"
           style="fill:#485ea8;fill-opacity:1;fill-rule:nonzero;stroke:none"
           id="path9369"
           inkscape:connector-curvature="0" /></g><g
         id="g9371"
         transform="scale(1.18218)"><path
           d="m 14554.6,5478.42 c 63.2,352.74 145.8,701.92 247.5,1045.44 115.4,390.12 212.9,732.37 372.9,1105.48 41.2,95.78 -13.1,502.88 49.4,544.36 146,96.75 518.9,-21.28 717.8,-60.55 47.4,-9.4 77.6,-33.49 118.5,-59.24 66.8,-42.11 155,-269.03 177.7,-344.71 61.6,-205.72 15.2,-462.28 -94.4,-637.2 -87.7,-140 -170.5,-283.13 -251.1,-427.35 -69.2,-123.92 -155,-234.48 -226,-359.08 -158.7,-277.71 -261.8,-579.77 -377.6,-878.37 -39.1,-101 -287.7,-580.2 -288.9,-650.24 -6.1,-370.84 -337.5,156.07 -451.3,189.31 -65.6,19.12 -61.8,31.3 -57.8,101.84 3,53.89 10.8,107.43 18.9,160.72 13.5,90.09 28.3,179.92 44.4,269.59"
           style="fill:#485ea8;fill-opacity:1;fill-rule:nonzero;stroke:none"
           id="path9373"
           inkscape:connector-curvature="0" /></g><g
         id="g9375"
         transform="scale(1.1675)"><path
           d="m 15385.6,8082.82 c -32.6,649.86 -158.9,1605.89 -76.9,1698.36 144.1,162.75 150.9,518.22 255.2,648.72 156.1,195 290.8,286.6 485.8,4.3 66.1,-95.7 147.9,-669.42 163.4,-741.08 34.7,-158.83 47.8,-950.07 86.9,-1587.44 l -914.4,-22.86"
           style="fill:#eda4b8;fill-opacity:1;fill-rule:nonzero;stroke:none"
           id="path9377"
           inkscape:connector-curvature="0" /></g><g
         id="g9379"
         transform="scale(1.16834)"><path
           d="m 15374.5,8077.01 c -33.6,475.59 -65.6,868.97 -107,1150.05 -12.5,85.14 -38.4,167.57 -52.5,251.48 -13.1,77.66 23.8,184.48 55,254.55 31.8,71.43 65.2,142.92 95.5,215.13 29.9,71.08 53.1,144.58 76.4,217.98 7.2,22.8 45.8,189.1 68.8,191 2.5,0.3 89.3,7.7 123.7,15.1 61.7,13.3 119.2,37.2 173.4,69.4 14.8,8.8 132.1,104.6 135.8,100.7 189.7,-199.5 298.3,-487.8 328.7,-743.74 10.9,-92.44 -5.6,-1505.16 27.7,-1703.84 l -925.5,-17.81"
           style="fill:#7ecaf1;fill-opacity:1;fill-rule:nonzero;stroke:none"
           id="path9381"
           inkscape:connector-curvature="0" /></g><g
         id="g9383"
         transform="scale(1.18262)"><path
           d="m 15408.2,10241.1 c -100.4,-168.1 -143.4,-349.94 -144.2,-550.94 -0.9,-231.56 8.2,-465.29 21.8,-696.44 20,-338.14 73.7,-1130.91 116.1,-1466.76 l 898.1,13.8 c -32.8,196.27 -213.3,2048.29 -224.2,2139.61 -30,252.86 -137.3,537.73 -324.7,734.83 -3.6,3.8 -119.5,-90.8 -134.2,-99.5 -53.5,-31.9 -110.3,-55.5 -171.3,-68.7 -9.4,-2 -22.8,-4 -37.4,-5.9"
           style="fill:#ffffff;fill-opacity:1;fill-rule:nonzero;stroke:none"
           id="path9385"
           inkscape:connector-curvature="0" /></g><g
         id="g9387"
         transform="scale(1.18262)"><path
           d="m 15408.2,10241.1 c -100.4,-168.1 -143.4,-349.94 -144.2,-550.94 -0.9,-231.56 8.2,-465.29 21.8,-696.44 20,-338.14 73.7,-1130.91 116.1,-1466.76 l 898.1,13.8 c -32.8,196.27 -213.3,2048.29 -224.2,2139.61 -30,252.86 -137.3,537.73 -324.7,734.83 -3.6,3.8 -119.5,-90.8 -134.2,-99.5 -53.5,-31.9 -110.3,-55.5 -171.3,-68.7 -9.4,-2 -22.8,-4 -37.4,-5.9"
           style="fill:#ffffff;fill-opacity:1;fill-rule:nonzero;stroke:none"
           id="path9389"
           inkscape:connector-curvature="0" /></g><g
         id="g9391"
         transform="scale(1.15114)"><path
           d="m 15836.1,12278.9 c -66.4,-14.8 -133.2,-44.7 -198.2,-59.1 -99.6,-29.7 -251.5,-124 -304.6,-215.2 -198.8,-341.5 431.8,-340.3 568.9,-444 43,-32.5 66.7,-76.8 103.7,-108.5 85.9,-73.5 113.8,4.4 127.3,79.1 -3.4,-18.5 0.6,-4.6 11.8,41.7 24.5,101.4 24,184.2 83,272.4 51.7,77.6 72,218.5 17.8,300.1 -63.6,95.7 -219.4,136.8 -327.3,141.9 -27.4,1.2 -54.8,-2.3 -82.4,-8.4"
           style="fill:#485ea8;fill-opacity:1;fill-rule:nonzero;stroke:none"
           id="path9393"
           inkscape:connector-curvature="0" /></g><g
         id="g9395"
         transform="scale(1.09031)"><path
           d="m 15581.5,3017.39 c 54.7,8.07 71.8,0.46 126.7,9.45 54.2,8.9 107.4,27.88 156.6,52.19 48.5,24.11 119.2,73.37 160.9,106.66 5.3,4.22 10.6,7.71 15.9,10.92 74.2,-34.22 116.7,-31.92 196.1,1.65 7.6,3.21 12.5,7.79 15.2,13.2 2.3,-1.83 4.5,-3.94 6.3,-6.32 12.7,-16.24 15,-38.8 18,-58.52 5.6,-36.78 22.8,-189.49 15.3,-225.72 -10.7,-51.17 -289.2,-112.16 -380.6,-117.85 -123,-7.61 -217,-12.75 -338.5,6.97 -118.5,19.17 -84.8,193.8 8.1,207.37"
           style="fill:#36457c;fill-opacity:1;fill-rule:nonzero;stroke:none"
           id="path9397"
           inkscape:connector-curvature="0" /></g><g
         id="g9399"
         transform="scale(1.24871)"><path
           d="m 15681.8,2796.9 c 42.4,23.22 58.7,22.18 100.9,46.28 41.6,23.63 79.5,55.42 112.3,90.26 32.5,34.43 75.4,96.26 99.4,136.14 3,5.04 6.3,9.53 9.7,13.77 71.1,-5.52 105.2,9.29 160.1,60.87 5.2,4.96 7.7,10.25 8.4,15.45 2.5,-0.8 4.8,-1.92 7,-3.28 15.4,-9.45 24.1,-27.23 32.6,-42.45 15.6,-28.42 76.1,-148.23 81,-180.1 6.8,-45.09 -202.7,-179.63 -275.8,-211.98 -98.4,-43.65 -173.7,-76.4 -279.2,-97.14 -102.8,-20.34 -128.3,132.94 -56.4,172.18"
           style="fill:#36457c;fill-opacity:1;fill-rule:nonzero;stroke:none"
           id="path9401"
           inkscape:connector-curvature="0" /></g><path
         d="m 7847.08,10446.8 c 45.68,59.3 207.27,212.2 311.49,175.1 87.34,-31.1 96.49,-76.1 96.44,-76 183.49,-474.5 315.4,-919.17 393,-1289.21 76.32,-363.9 -204.15,-146.51 -204.15,-146.51 -199.85,363.81 -418.13,690.45 -596.78,1336.62"
         style="fill:#eda4b8;fill-opacity:1;fill-rule:nonzero;stroke:none"
         id="path9403"
         inkscape:connector-curvature="0" /><path
         d="m 8099.03,10590.2 c -72.41,744.1 -220.61,805.2 -350.19,1160 -189.79,519.5 -734.1,1047.4 -897.54,729.7 -80.1,-155.7 795.29,-1756.1 919.71,-2060.4 104.99,15.1 205.38,132.1 328.02,170.7"
         style="fill:#eda4b8;fill-opacity:1;fill-rule:nonzero;stroke:none"
         id="path9405"
         inkscape:connector-curvature="0" /><path
         d="m 7724.45,10327 c -111.32,253.3 -574.64,1270.2 -626.1,1363.7 -299.79,544.3 -446.73,777.3 -210.64,986.4 267.44,237 659.53,-349.7 901.56,-833.1 159.82,-319.1 230.87,-489.5 400.74,-1107 3.93,-192.6 -290.04,-524.6 -465.56,-410"
         style="fill:#84b6e3;fill-opacity:1;fill-rule:nonzero;stroke:none"
         id="path9407"
         inkscape:connector-curvature="0" /><path
         d="m 8731.72,9078.74 c -43.42,72.57 -84.25,128.52 -163.94,166.53 l -6.47,-2.81 c 2.86,-8.56 5.73,-17.11 8.6,-25.71 0,0 -16.04,22 3.41,-10.03 0.89,-2.57 1.75,-5.14 2.64,-7.76 -26.22,20.21 -55.16,28.86 -85.93,12.65 -101.23,-53.33 -28.13,-203.06 0.4,-279.38 23.18,-61.98 58.2,-119.82 94.26,-175.03 17.94,-27.4 92.68,-129.4 133.51,-122 48.79,8.9 142.98,50.9 138.8,91.8 -2.12,20.55 -118.73,211.46 -129.58,220.65 27.46,-23.28 56.57,-68.71 97.95,-66.83 42.65,1.98 -59.27,152.15 -93.65,197.92"
         style="fill:#eda4b8;fill-opacity:1;fill-rule:nonzero;stroke:none"
         id="path9409"
         inkscape:connector-curvature="0" /><path
         d="m 8636.4,9335.98 c -79.02,356.69 -240.68,1044.62 -460.43,1427.62 -119.32,67.3 -101.01,-62.5 -188.35,-31.4 -104.21,37.1 -255.66,-242.1 -301.33,-301.4 161.63,-584.6 492.43,-883.9 675.96,-1209.55 l 274.15,114.73"
         style="fill:#84b6e3;fill-opacity:1;fill-rule:nonzero;stroke:none"
         id="path9411"
         inkscape:connector-curvature="0" /><path
         d="m 8284.5,9351.75 c 27.68,-44.69 53.83,-88.14 77.75,-130.5 l 274.15,114.73 c -10.93,49.33 -22.92,100.64 -35.75,153.28 L 8284.5,9351.75"
         style="fill:#ffffff;fill-opacity:1;fill-rule:nonzero;stroke:none"
         id="path9413"
         inkscape:connector-curvature="0" /><path
         d="M 16136.6,4543.2 14018.3,3614.6 H 7623.41 v 5377.54 h 7521.29 l 991.9,-4448.94"
         style="fill:#8daadd;fill-opacity:1;fill-rule:nonzero;stroke:none"
         id="path9415"
         inkscape:connector-curvature="0" /><path
         d="m 7623.41,4579.5 v -964.9 h 6394.89 l 2118.3,928.6 -8.1,36.3 H 7623.41"
         style="fill:#6c85cb;fill-opacity:1;fill-rule:nonzero;stroke:none"
         id="path9417"
         inkscape:connector-curvature="0" /><path
         d="M 14018.3,3614.6 H 6497.03 L 7597.9,8992.14 h 7521.3 L 14018.3,3614.6"
         style="fill:#ffffff;fill-opacity:1;fill-rule:nonzero;stroke:none"
         id="path9419"
         inkscape:connector-curvature="0" /><path
         d="m 11641.1,4300.5 h -738.4 l 739.7,3497.9 756.5,-0.5 -757.8,-3497.4"
         style="fill:#ac86be;fill-opacity:1;fill-rule:nonzero;stroke:none"
         id="path9421"
         inkscape:connector-curvature="0" /><path
         d="m 12655,4300.5 883.6,3948.8 -758.5,0.6 -863.3,-3949.4 h 738.2"
         style="fill:#e95259;fill-opacity:1;fill-rule:nonzero;stroke:none"
         id="path9423"
         inkscape:connector-curvature="0" /><path
         d="m 10639.2,4300.5 558,2662.1 -752.4,0.4 -544.26,-2662.5 h 738.66"
         style="fill:#8daadd;fill-opacity:1;fill-rule:nonzero;stroke:none"
         id="path9425"
         inkscape:connector-curvature="0" /><path
         d="m 8599.67,4300.5 h -739.24 l 204.27,1074.6 744.8,-0.2 -209.83,-1074.4"
         style="fill:#7880be;fill-opacity:1;fill-rule:nonzero;stroke:none"
         id="path9427"
         inkscape:connector-curvature="0" /><path
         d="m 9585.07,4300.5 382.6,1892.1 -748.78,0.3 -372.81,-1892.4 h 738.99"
         style="fill:#fcd36d;fill-opacity:1;fill-rule:nonzero;stroke:none"
         id="path9429"
         inkscape:connector-curvature="0" /><path
         d="M 13593.1,3960.1 H 7052.88 c -16.96,0 -33.02,7.7 -43.7,20.8 -10.67,13.2 -14.83,30.5 -11.32,47.1 l 962.86,4541.9 c 5.59,26.4 28.96,44.6 54.87,44.6 3.9,0 7.85,-0.4 11.81,-1.2 30.38,-6.6 49.78,-36.4 43.36,-66.7 l -948.5,-4474.1 h 6470.84 c 31.1,0 56.3,-25.1 56.3,-56.2 0,-31 -25.2,-56.2 -56.3,-56.2"
         style="fill:#7880be;fill-opacity:1;fill-rule:nonzero;stroke:none"
         id="path9431"
         inkscape:connector-curvature="0" /><path
         d="m 6919.02,14738.8 c -106.08,43.2 -218.83,39 -328.27,11.8 -50.71,-12.6 -86.45,-20.9 -138.8,-23 -176.77,-7.1 -270.34,-247.9 -289.66,-394.5 -10.58,-80.6 3.75,-165.8 8.92,-246.2 13.54,-211.3 130.17,-448.7 358.05,-489.5 145.28,-26.1 310.97,19.7 425.15,112.5 285.62,231.9 366.04,865.7 -35.39,1028.9"
         style="fill:#485ea8;fill-opacity:1;fill-rule:nonzero;stroke:none"
         id="path9433"
         inkscape:connector-curvature="0" /><path
         d="M 3573.13,9216.51 V 8731 h 99.01 v 368.3 h 622.31 V 8731 h 99.03 v 485.51 h -820.35"
         style="fill:#f5d178;fill-opacity:1;fill-rule:nonzero;stroke:none"
         id="path9435"
         inkscape:connector-curvature="0" /><path
         d="m 5934.9,5927.9 c 0,0 -203.85,-521.1 216.46,-2198.4 33.66,-134.3 138.26,-125.8 194.26,-82.5 37.52,29 37.72,83.8 37.72,83.8 0,0 198.07,1910.9 148.19,2146.7 -49.87,235.8 -596.63,50.4 -596.63,50.4"
         style="fill:#eda4b8;fill-opacity:1;fill-rule:nonzero;stroke:none"
         id="path9437"
         inkscape:connector-curvature="0" /><path
         d="m 6475.73,9785.7 h -974.14 c 0.1,-4.3 0.23,-8.65 0.25,-12.8 0.64,-186.45 2,-372.86 4.55,-559.31 6.37,-471.52 -4.13,-350.31 23.25,-821.09 23.29,-400.5 315.99,-2220.4 357.96,-2317.4 42.61,-98.4 22.34,-277.4 107.11,-351.9 134.9,-118.5 398.66,-181.2 511.91,-33.2 76.52,99.9 41.97,612.3 55.91,739.7 11.81,108.2 11.37,219 16.31,320.2 19.89,406.5 -7.64,813.9 -9.29,1220.6 -2.33,569.9 -3.94,1120.06 -93.82,1815.2"
         style="fill:#394977;fill-opacity:1;fill-rule:nonzero;stroke:none"
         id="path9439"
         inkscape:connector-curvature="0" /><path
         d="m 6951.3,3557.5 c -66.34,9.7 -86.95,0.5 -153.43,11.4 -65.47,10.7 -129.96,33.7 -189.37,63.2 -58.73,29.1 -144.27,88.7 -194.69,129 -6.37,5.1 -12.82,9.4 -19.3,13.2 -89.72,-41.4 -141.12,-38.7 -237.26,2 -9.13,3.9 -15.08,9.4 -18.39,15.9 -2.77,-2.2 -5.29,-4.7 -7.57,-7.6 -15.42,-19.7 -18.11,-46.9 -21.75,-70.8 -6.72,-44.5 -27.63,-229.3 -18.53,-273 12.87,-62 349.87,-135.8 460.44,-142.6 148.89,-9.2 262.48,-15.5 409.49,8.3 143.35,23.2 102.67,234.6 -9.64,251"
         style="fill:#36457c;fill-opacity:1;fill-rule:nonzero;stroke:none"
         id="path9441"
         inkscape:connector-curvature="0" /><path
         d="m 6295.92,13922.2 c 19.63,-92.3 155.09,-214.2 187.84,-134.7 20.04,48.7 36.95,155.4 17.32,247.7 -19.62,92.2 -4.29,104.3 -88.43,86.4 -84.11,-17.9 -136.38,-107.2 -116.73,-199.4"
         style="fill:#eda4b8;fill-opacity:1;fill-rule:nonzero;stroke:none"
         id="path9443"
         inkscape:connector-curvature="0" /><path
         d="m 6464.83,13716.3 c 54.86,178.8 512.07,-279.5 512.07,-279.5 l -213.34,-681.2 c 0,0 0.72,29.1 -262.99,81.9 -160.73,32.2 -271.55,4.3 -229.96,151.9 25.73,91.2 175.23,665.1 194.22,726.9"
         style="fill:#eda4b8;fill-opacity:1;fill-rule:nonzero;stroke:none"
         id="path9445"
         inkscape:connector-curvature="0" /><path
         d="m 6417.3,13542.6 c 20.61,-260.8 197.67,-485.3 428.59,-518.3 l 131.01,412.5 c 0,0 -457.18,458.3 -512.07,279.5 -5.81,-18.9 10.45,37.2 -15.55,-40.5 2.38,-4.7 -32.47,-127 -31.98,-133.2"
         style="fill:#e78482;fill-opacity:1;fill-rule:nonzero;stroke:none"
         id="path9447"
         inkscape:connector-curvature="0" /><path
         d="m 7074.31,13310.6 c -179.41,-88 -471.25,13.2 -572.64,177.7 -61.31,99.4 -85.71,200.6 -79.38,312.9 7.12,126.6 42.66,239.7 50.82,366.8 3.53,54.8 8.37,109.9 23.33,163 23.87,84.8 73.9,162.7 142.01,221.2 66.93,57.4 155.61,74.3 237.66,102.5 69.51,23.9 148.27,54.9 223.13,51.2 51.66,-2.5 78.4,-39.6 113.75,-74.4 191.84,-188.8 233.01,-529.6 182.35,-784.1 -37.77,-189.4 -136.38,-446.4 -321.03,-536.8"
         style="fill:#eda4b8;fill-opacity:1;fill-rule:nonzero;stroke:none"
         id="path9449"
         inkscape:connector-curvature="0" /><path
         d="m 5232.05,5984.5 c 0,0 203.85,-521.2 -216.46,-2198.5 -33.66,-134.3 -138.26,-125.7 -194.26,-82.5 -37.54,29 -37.72,83.8 -37.72,83.8 0,0 -100.99,1945.5 -51.13,2181.3 49.87,235.8 499.57,15.9 499.57,15.9"
         style="fill:#eda4b8;fill-opacity:1;fill-rule:nonzero;stroke:none"
         id="path9451"
         inkscape:connector-curvature="0" /><path
         d="m 4723.13,9785.7 c -21.67,-47.15 -36.2,-90.16 -40.88,-125.55 -83.71,-636.18 -82.52,-1058.65 -84.84,-1633.15 -1.66,-406.6 43,-1665 67.71,-2137.6 9.77,-186 423.58,-317.9 558.45,-199.4 84.8,74.4 144.34,138.3 186.97,236.7 41.94,97 194.34,2261.5 217.62,2662 27.36,470.81 26,209.87 32.41,681.44 2.32,171.82 3.55,343.69 4.29,515.56 h -941.73"
         style="fill:#394977;fill-opacity:1;fill-rule:nonzero;stroke:none"
         id="path9453"
         inkscape:connector-curvature="0" /><path
         d="m 6423.7,10045.6 c 226.07,812 657.8,1984.4 580.56,2124.6 -135.9,246.7 87.47,33.9 -7.29,228.4 -141.66,290.8 -696.97,686.2 -1023.76,384.9 -110.79,-102.1 -97.1,-381.1 -137.22,-467.2 -88.93,-190.9 -330.59,-1187.2 -561.51,-1981.6 l 1149.22,-289.1"
         style="fill:#eda4b8;fill-opacity:1;fill-rule:nonzero;stroke:none"
         id="path9455"
         inkscape:connector-curvature="0" /><path
         d="m 6949.97,12865.4 c -41.92,26.2 -89.18,50 -140.54,71.7 -153.56,-86.6 -399.94,-1.6 -504.34,125.3 -3.14,3.8 -5.44,7.6 -7.61,11.4 -48.29,8.1 -97.48,15.6 -147.65,22.4 -132.03,14.3 -291.17,10.4 -385.27,-22 -385.51,-132.5 -431.7,-588.2 -451.39,-709.2 -94.07,-577.2 -399.58,-1558.4 -525.31,-2099.5 C 4683.37,9815.75 4591.62,9198.31 4591.62,9198.31 L 6649.57,8735 c 41.58,22.44 582.67,2817 649.06,3225.9 88.67,546.4 -106.06,752.5 -348.66,904.5"
         style="fill:#84b6e3;fill-opacity:1;fill-rule:nonzero;stroke:none"
         id="path9457"
         inkscape:connector-curvature="0" /><path
         d="m 4304.31,11028.9 c 71.89,20.8 292.58,48.8 354.76,-42.7 52.13,-76.7 32.9,-118.4 32.95,-118.3 -132.18,-491.3 -288.41,-927.97 -444.33,-1272.41 -153.34,-338.75 -251.26,2.33 -251.26,2.33 53.63,411.58 70.39,804.08 307.88,1431.08"
         style="fill:#eda4b8;fill-opacity:1;fill-rule:nonzero;stroke:none"
         id="path9459"
         inkscape:connector-curvature="0" /><path
         d="m 4442.12,10782.8 c -31.71,10.7 -182.72,110.6 -137.81,246.1 281.13,847.8 488.74,1049.8 716.22,1386.1 309.89,458.2 788.18,819 990.33,524.4 178.42,-260.1 -502.52,-584 -913.51,-1285.1 -66.81,-114 -257.48,-469.8 -536.52,-801.6 -0.05,-0.1 -31.36,-74.3 -118.71,-69.9"
         style="fill:#eda4b8;fill-opacity:1;fill-rule:nonzero;stroke:none"
         id="path9461"
         inkscape:connector-curvature="0" /><path
         d="m 4658.8,10830.6 c 169.3,218.8 821.07,1299.4 893.61,1377.6 422.65,455.6 637.61,502.1 459.18,762.1 -202.14,294.7 -725.66,-111 -1073.65,-524.6 -302.57,-359.7 -465.42,-689.4 -725,-1308.8 -50.45,-186 247.81,-375 445.86,-306.3"
         style="fill:#84b6e3;fill-opacity:1;fill-rule:nonzero;stroke:none"
         id="path9463"
         inkscape:connector-curvature="0" /><path
         d="m 5572.63,3536.7 c -66.34,9.7 -86.95,0.5 -153.41,11.4 -65.47,10.8 -129.98,33.7 -189.37,63.2 -58.75,29.2 -144.26,88.7 -194.68,129.1 -6.38,5.1 -12.83,9.3 -19.31,13.1 -89.74,-41.4 -141.12,-38.6 -237.29,2 -9.12,3.9 -15.05,9.5 -18.39,16 -2.77,-2.3 -5.29,-4.8 -7.54,-7.7 -15.4,-19.7 -18.11,-46.9 -21.74,-70.7 -6.75,-44.5 -27.66,-229.3 -18.54,-273.1 12.87,-61.9 349.85,-135.7 460.42,-142.5 148.91,-9.3 262.53,-15.6 409.49,8.3 143.34,23.1 102.69,234.5 -9.64,250.9"
         style="fill:#36457c;fill-opacity:1;fill-rule:nonzero;stroke:none"
         id="path9465"
         inkscape:connector-curvature="0" /><path
         d="m 6431.76,3729.4 c 54.08,558.4 136.5,1974.5 99.77,2148.1 -49.87,235.8 -596.63,50.5 -596.63,50.5 0,0 -243.94,-522.4 189.23,-2186.1 l 307.63,-12.5"
         style="fill:#394977;fill-opacity:1;fill-rule:nonzero;stroke:none"
         id="path9467"
         inkscape:connector-curvature="0" /><path
         d="m 5063.14,3726.3 c 348.05,1502.9 364.11,2367.9 364.11,2367.9 0,0 -773.49,285.7 -753.37,-150.7 8.47,-183.5 26.2,-1641.5 61.98,-2224.6 l 327.28,7.4"
         style="fill:#394977;fill-opacity:1;fill-rule:nonzero;stroke:none"
         id="path9469"
         inkscape:connector-curvature="0" /><path
         d="M 4971.05,7176.1 H 3162.98 V 8764.46 H 4971.05 V 7176.1"
         style="fill:#485ea8;fill-opacity:1;fill-rule:nonzero;stroke:none"
         id="path9471"
         inkscape:connector-curvature="0" /><path
         d="m 4870.61,7176.1 h -1808.1 v 1588.36 h 1808.1 V 7176.1"
         style="fill:#6173b3;fill-opacity:1;fill-rule:nonzero;stroke:none"
         id="path9473"
         inkscape:connector-curvature="0" /><path
         d="m 4870.61,8038.3 h -1808.1 v 726.16 h 1808.1 V 8038.3"
         style="fill:#788bc8;fill-opacity:1;fill-rule:nonzero;stroke:none"
         id="path9475"
         inkscape:connector-curvature="0" /><path
         d="m 4210.12,9402.41 c 7.81,84.23 7.93,153.49 -33.91,231.19 l -6.93,1.59 c -2.66,-8.61 -5.43,-17.21 -8.2,-25.81 0,0 0.05,27.24 -3.16,-10.13 -0.84,-2.57 -1.66,-5.19 -2.47,-7.81 -9.2,31.78 -27.49,55.85 -61.89,60.95 -113.2,16.8 -142.61,-147.26 -164.66,-225.66 -17.89,-63.71 -23.85,-131.08 -27.33,-196.93 -4,-75.33 41.42,-118.58 89.62,-174.54 22.64,-7.86 165.69,-50.86 163.71,12.16 -0.34,10.83 -43.15,39.05 -48.93,55.56 -23.38,66.79 15.1,122.69 23.97,185.32 12.46,-36.63 1.83,-96.34 38.85,-120.91 35.59,-23.58 42.07,157.83 41.33,215.02"
         style="fill:#eda4b8;fill-opacity:1;fill-rule:nonzero;stroke:none"
         id="path9477"
         inkscape:connector-curvature="0" /><path
         d="m 4037.7,8027.8 c 0,-32.3 -26.24,-58.6 -58.57,-58.6 h -184.18 c -32.35,0 -58.58,26.3 -58.58,58.6 0,32.4 26.23,58.6 58.58,58.6 h 184.18 c 32.33,0 58.57,-26.2 58.57,-58.6"
         style="fill:#f5d178;fill-opacity:1;fill-rule:nonzero;stroke:none"
         id="path9479"
         inkscape:connector-curvature="0" /><path
         d="m 4285.13,9666.28 c 146.93,334.52 308.32,773.82 432.89,1236.82 -0.03,-0.1 -6.85,6.4 -58.95,83.1 -62.18,91.5 -358.69,202.4 -430.61,181.5 -214.88,-567.2 -188.06,-1060.8 -232.33,-1432.07 l 289,-69.35"
         style="fill:#84b6e3;fill-opacity:1;fill-rule:nonzero;stroke:none"
         id="path9481"
         inkscape:connector-curvature="0" /><path
         d="m 4010.47,9886.83 c -4.03,-52.34 -8.56,-102.86 -14.34,-151.2 l 289,-69.35 c 20.34,46.31 40.95,94.76 61.71,144.88 l -336.37,75.67"
         style="fill:#ffffff;fill-opacity:1;fill-rule:nonzero;stroke:none"
         id="path9483"
         inkscape:connector-curvature="0" /><path
         d="m 6317.87,10767.5 c 0,0 -325.43,-530.4 -384.89,-519.8 -70.47,12.7 -101.19,629.3 -101.19,629.3 l 598.36,1895.1 159.26,-35.8 -271.54,-1968.8"
         style="fill:#ec345b;fill-opacity:1;fill-rule:nonzero;stroke:none"
         id="path9485"
         inkscape:connector-curvature="0" /><path
         d="m 6679.5,12812.5 c -19.55,-86.8 -98.49,-143 -176.27,-125.5 -77.8,17.5 -125.03,102.1 -105.46,188.9 19.53,86.8 108.7,160 186.51,142.5 77.8,-17.5 114.78,-119.1 95.22,-205.9"
         style="fill:#ec345b;fill-opacity:1;fill-rule:nonzero;stroke:none"
         id="path9487"
         inkscape:connector-curvature="0" /><path
         d="m 6543.2,12750.1 c -73.36,46.3 -114.9,118.8 -114.14,194 -14.68,-20.6 -25.8,-43.8 -31.29,-68.2 -19.57,-86.8 27.64,-171.4 105.46,-188.9 46.25,-10.4 92.76,5.4 127.11,37.9 -28.22,-0.8 -57.48,6.5 -87.14,25.2"
         style="fill:#ce2d4e;fill-opacity:1;fill-rule:nonzero;stroke:none"
         id="path9489"
         inkscape:connector-curvature="0" /><path
         d="m 6360.23,13261.9 224.05,-243.5 -269.01,-261.2 -238.75,349.8 c 0,0 142.12,173.9 283.71,154.9"
         style="fill:#ffffff;fill-opacity:1;fill-rule:nonzero;stroke:none"
         id="path9491"
         inkscape:connector-curvature="0" /><path
         d="m 6584.28,13018.4 69.89,-337.5 350.86,148.4 c 0,0 -15.79,196.6 -137.76,245.5 l -282.99,-56.4"
         style="fill:#ffffff;fill-opacity:1;fill-rule:nonzero;stroke:none"
         id="path9493"
         inkscape:connector-curvature="0" /><path
         d="m 7606.21,14718.4 c 13.34,89.8 -39.74,102.9 -118.54,108.5 -76.71,5.5 -154.96,0 -231.98,13.8 -85.59,15.4 -155.7,48.8 -234.67,80.2 -136.38,54.2 -290.77,50.9 -434.62,12.6 -215.86,-57.5 -408.64,-365.7 -423.15,-593.3 -4.77,-75.2 27.41,-64.5 71.9,-125.4 20.31,-27.8 47.47,-62.9 76.93,-81.5 26.03,-16.4 67.85,-11.9 98.07,-15.5 15.78,13.8 42.54,-23.7 49.56,-40 11.42,-26.5 11.42,-73.5 52.1,-70.7 36.48,2.5 58.13,43.4 68.46,73.1 22.05,63.2 27.61,130.2 44.49,194.7 34.72,132.5 157.43,105 267.22,100.7 188.26,-7.3 360.15,-19.2 538.01,66.6 98.34,47.5 160.75,171.9 176.22,276.2"
         style="fill:#485ea8;fill-opacity:1;fill-rule:nonzero;stroke:none"
         id="path9495"
         inkscape:connector-curvature="0" /><g
         id="g9497"
         transform="scale(1.07509)"><path
           d="m 15060.3,13470.5 457.2,-290.9 -1215.9,-1743.2 -1249.8,772.9 c -64.4,39.8 -148.6,22.9 -192.6,-38.7 l -1055.5,-1478.5 -1967.52,1379.5 c -31.9,22.4 -71.53,30.9 -109.85,23.5 -38.32,-7.5 -71.9,-30.1 -93.2,-62.8 -278.12,-427.5 -556.21,-854.9 -834.31,-1282.4 -149.1,-229.2 -314.28,-455.6 -446.61,-694.5 -25.15,-98.15 -15.86,-134.93 9.88,-179.89 46.4,-80.97 159.02,-79.59 218.36,11.58 l 1212.48,1863.71 1962.47,-1375.9 c 64.6,-45.4 153.6,-30.1 199.5,34.1 l 1060.1,1485.1 1251,-773.7 c 65,-40.2 149.9,-22.6 193.6,40 l 1300.6,1864.7 485.9,-309.2 53.9,1491.3 -1239.7,-736.7"
           style="fill:#5468ba;fill-opacity:1;fill-rule:nonzero;stroke:none"
           id="path9499"
           inkscape:connector-curvature="0" /></g><g
         id="g9501"
         transform="scale(1.05697)"><path
           d="m 15764.1,10365.4 c 43.4,35.3 214,-172.3 483.3,112.8 52.6,55.6 -241.6,197 -241.5,196.9 -291,182.1 -876.2,464.8 -1109.7,551.4 -229.7,85.1 -116.1,-164.5 -116.1,-164.5 217.1,-189.6 580.6,-508.9 984,-696.6"
           style="fill:#eda4b8;fill-opacity:1;fill-rule:nonzero;stroke:none"
           id="path9503"
           inkscape:connector-curvature="0" /></g><g
         id="g9505"
         transform="scale(1.15936)"><path
           d="m 14535.1,9828.17 c 180.6,75.11 1554.5,607.33 1653.2,426.73 111.7,-204.7 -47.3,-413.29 -637.4,-654.9 -310.4,-127.06 -638.6,-161.64 -980.6,-245.14 -22.7,140 -136.3,346.69 -35.2,473.31"
           style="fill:#e9e9e9;fill-opacity:1;fill-rule:nonzero;stroke:none"
           id="path9507"
           inkscape:connector-curvature="0" /></g><path
         d="m 15231.4,12153.7 c 28.8,8.3 62.3,14.7 72.7,11.5 118.8,-37.5 207.3,-73.7 301.3,-157.9 29.5,-26.4 418.6,-360.2 426.8,-353.7 l -196.8,-91.7 c -201.4,104.6 -420.7,180.7 -589.3,335.7 -65,59.8 -135.5,221.4 -14.7,256.1"
         style="fill:#eda4b8;fill-opacity:1;fill-rule:nonzero;stroke:none"
         id="path9509"
         inkscape:connector-curvature="0" /></g></g></svg>