<?xml version="1.0" encoding="UTF-8" standalone="no"?>
<!-- Created with Inkscape (http://www.inkscape.org/) -->

<svg
        xmlns:dc="http://purl.org/dc/elements/1.1/"
        xmlns:cc="http://creativecommons.org/ns#"
        xmlns:rdf="http://www.w3.org/1999/02/22-rdf-syntax-ns#"
        xmlns:svg="http://www.w3.org/2000/svg"
        xmlns:sodipodi="http://sodipodi.sourceforge.net/DTD/sodipodi-0.dtd"
        xmlns:inkscape="http://www.inkscape.org/namespaces/inkscape"
        xmlns="http://www.w3.org/2000/svg"
        version="1.1"
        id="svg9273"
        xml:space="preserve"
        width="1064.8901"
        height="704.84473"
        viewBox="0 0 1064.8902 704.84474"
        sodipodi:docname="45240.svg"
        inkscape:version="0.92.4 (5da689c313, 2019-01-14)"><metadata
     id="metadata9279"><rdf:RDF><cc:Work
         rdf:about=""><dc:format>image/svg+xml</dc:format><dc:type
        rdf:resource="http://purl.org/dc/dcmitype/StillImage"/><dc:title></dc:title></cc:Work></rdf:RDF></metadata>
    <defs
            id="defs9277"/>
    <sodipodi:namedview
            pagecolor="#ffffff"
            bordercolor="#666666"
            borderopacity="1"
            objecttolerance="10"
            gridtolerance="10"
            guidetolerance="10"
            inkscape:pageopacity="0"
            inkscape:pageshadow="2"
            inkscape:window-width="1920"
            inkscape:window-height="968"
            id="namedview9275"
            showgrid="false"
            fit-margin-top="0"
            fit-margin-left="0"
            fit-margin-right="0"
            fit-margin-bottom="0"
            inkscape:zoom="0.34757075"
            inkscape:cx="1194.332"
            inkscape:cy="-95.779451"
            inkscape:window-x="0"
            inkscape:window-y="32"
            inkscape:window-maximized="1"
            inkscape:current-layer="g9283"/>
    <g
            id="g9281"
            inkscape:groupmode="layer"
            inkscape:label="ink_ext_XXXXXX"
            transform="matrix(1.3333333,0,0,-1.3333333,-408.33466,2049.2908)"><g
       id="g9283"
       transform="scale(0.1)"><path
         d="m 7788.2698,12548.011 -18.5466,17.749 -45.5555,195.505 h -173.8198 c 88.7107,45.136 149.0911,134.496 149.0911,237.346 0,148.345 -125.6529,268.622 -280.6559,268.622 -155.0329,0 -280.716,-120.277 -280.716,-268.622 0,-102.85 60.4408,-192.21 149.1512,-237.346 h -288.8489 c -0.7803,1.293 -1.5606,2.591 -2.3408,3.889 l -10.2935,-3.889 h -107.9169 l -38.053,92.304 104.8858,39.636 c -2.7909,12.108 -5.0717,24.389 -6.8724,36.825 H 6824.55 v 137.172 h 114.6091 c 2.4609,14.877 5.642,29.552 9.5433,43.941 l -106.2063,42.189 54.9787,126.681 107.5269,-42.734 c 7.9527,12.349 16.4456,24.325 25.5387,35.871 l -82.6183,79.064 101.3447,96.986 83.3985,-79.812 c 14.3149,9.995 29.2301,19.243 44.6553,27.715 l -43.4248,105.257 133.3057,50.374 43.6347,-105.717 c 11.9142,2.585 24.0082,4.854 36.2825,6.577 v 113.671 h 143.3289 v -113.671 c 15.0652,-2.125 29.8901,-4.968 44.5052,-8.387 l 45.4955,104.885 132.3754,-52.586 -45.3153,-104.424 c 12.8744,-7.352 25.2984,-15.279 37.3628,-23.694 l 83.3986,79.812 101.3443,-96.986 -82.6181,-79.064 c 10.7739,-13.7 20.7073,-28.031 29.8902,-42.822 l 108.2769,40.897 52.6083,-127.571 -106.9869,-40.437 c 3.0013,-11.833 5.582,-23.838 7.593,-36.015 h 114.6088 v -137.172 h -113.2286 c -2.1907,-15.176 -5.1319,-30.11 -8.7929,-44.788 l 104.0756,-41.354 -54.9487,-126.687 -102.8456,40.871 c -8.0725,-13.09 -16.7753,-25.754 -26.1089,-37.976 l 78.4769,-75.099 -101.3443,-96.986"
         style="fill:#b6d1eb;fill-opacity:1;fill-rule:nonzero;stroke:none;stroke-width:0.29357776"
         id="path9301"
         inkscape:connector-curvature="0" /><path
            d="m 6188.7825,13389.665 h -151.8549 v 56.663 c -20.0199,2.699 -39.7127,6.404 -58.9522,11.172 l -22.7838,-52.155 -140.112,56.032 22.8529,52.298 c -16.2506,9.305 -31.967,19.386 -47.0472,30.242 l -41.9063,-40.121 -107.3797,102.758 41.9904,40.178 c -11.9862,15.279 -22.9939,31.305 -33.1614,47.847 l -55.0298,-21.625 -57.6738,134.435 55.0779,21.655 c -4.5375,17.346 -8.1148,35.066 -10.7707,53.074 h -59.7054 v 145.319 h 59.8555 c 2.848,19.099 6.7133,37.853 11.689,56.176 l -55.1529,22.056 58.55,134.092 55.375,-22.172 c 9.6873,15.48 20.1609,30.414 31.4357,44.774 l -42.4795,40.667 107.3797,102.729 42.5456,-40.695 c 15.8995,11.401 32.5312,21.884 49.724,31.563 l -22.8888,53.36 140.481,55.199 22.8738,-53.332 c 18.0542,4.337 36.4835,7.754 55.213,10.31 v 57.755 h 151.8549 v -57.755 c 19.8668,-2.699 39.4334,-6.347 58.55,-11.056 l 23.1979,53.13 140.088,-56.031 -23.228,-53.189 c 16.1755,-9.248 31.8109,-19.213 46.786,-29.954 l 42.5546,40.695 107.3766,-102.729 -42.4645,-40.667 c 11.9441,-15.221 22.9579,-31.103 33.1014,-47.588 l 55.579,21.826 57.6798,-134.407 -55.339,-21.74 c 4.5916,-17.347 8.1928,-35.009 10.8637,-53.017 h 59.8705 v -145.319 h -59.7204 c -2.821,-19.099 -6.6023,-37.911 -11.554,-56.263 l 54.8588,-21.941 -58.5501,-134.091 -54.8587,21.941 c -9.6633,-15.565 -20.1369,-30.585 -31.4507,-45.032 l 41.9842,-40.178 -107.3766,-102.758 -41.8944,40.121 c -15.9954,-11.517 -32.7112,-22.085 -49.9971,-31.851 l 22.5078,-52.499 -140.4781,-55.17 -22.4477,52.327 c -18.1862,-4.394 -36.7626,-7.84 -55.639,-10.396 v -56.663 m -75.926,879.993 c -182.0243,0 -329.5817,-141.214 -329.5817,-315.398 0,-174.212 147.5574,-315.426 329.5817,-315.426 182.0123,0 329.5727,141.214 329.5727,315.426 0,174.184 -147.5604,315.398 -329.5727,315.398"
            style="fill:#a2cbea;fill-opacity:1;fill-rule:nonzero;stroke:none;stroke-width:0.29357776"
            id="path9303"
            inkscape:connector-curvature="0"/><g
            id="g9305"
            transform="matrix(0.39412481,0,0,0.37717281,3179.203,10178.77)"><path
           d="m 14613,7831.15 h -497.9 v 194.13 c -65.6,9.35 -130.2,21.96 -193.2,38.33 l -74.7,-178.71 -459.3,191.99 74.8,179.18 c -53.3,31.89 -104.8,66.37 -154.2,103.55 l -137.4,-137.43 -352,352.02 137.6,137.64 c -39.2,52.4 -75.3,107.23 -108.7,163.9 l -180.4,-74.05 -189,460.53 180.5,74.13 c -14.9,59.46 -26.7,120.17 -35.3,181.88 h -195.7 v 497.86 h 196.2 c 9.3,65.3 22,129.5 38.3,192.4 l -180.8,75.5 192,459.4 181.5,-75.9 c 31.8,52.9 66.1,104.1 103,153.3 l -139.2,139.3 352,352 139.5,-139.5 c 52.1,39.1 106.7,75 163,108.2 l -75,182.8 460.5,189 75,-182.6 c 59.2,14.9 119.7,26.6 181,35.3 v 197.8 h 497.9 v -197.8 c 65.1,-9.3 129.2,-21.7 191.8,-37.9 l 76.1,182 459.3,-192 -76.1,-182.2 c 53,-31.6 104.2,-65.7 153.4,-102.6 l 139.5,139.5 352,-352 -139.3,-139.3 c 39.2,-52.1 75.3,-106.6 108.6,-163 l 182.2,74.8 189,-460.5 -181.4,-74.5 c 15,-59.3 26.9,-119.9 35.7,-181.5 h 196.2 v -497.86 h -195.8 c -9.2,-65.45 -21.6,-129.87 -37.8,-192.78 l 179.8,-75.19 -191.9,-459.32 -179.8,75.15 c -31.8,-53.26 -66.1,-104.82 -103.2,-154.25 l 137.7,-137.64 -352,-352.02 -137.5,137.43 c -52.3,-39.39 -107.1,-75.67 -163.8,-109.12 l 73.8,-179.78 -460.5,-189.06 -73.6,179.27 c -59.6,-15.05 -120.5,-26.83 -182.4,-35.65 v -194.13 m -249,3014.65 c -596.7,0 -1080.4,-483.8 -1080.4,-1080.52 0,-596.71 483.7,-1080.47 1080.4,-1080.47 596.8,0 1080.5,483.76 1080.5,1080.47 0,596.72 -483.7,1080.52 -1080.5,1080.52"
           style="fill:#96b3df;fill-opacity:1;fill-rule:nonzero;stroke:none"
           id="path9307"
           inkscape:connector-curvature="0" /></g><g
            id="g9309"
            transform="matrix(0.35490739,0,0,0.33964221,3179.203,10178.77)"><path
           d="m 15408.2,10241.1 c -100.4,-168.1 -143.4,-349.94 -144.2,-550.94 -1,-257.64 -210.8,-66.19 -180.8,-574.49 20,-338.17 -152.8,-1292.16 -110.3,-1628 l 1327.1,53.09 c -32.8,196.27 -213.3,2048.29 -224.2,2139.61 -30,252.86 -137.3,537.73 -324.7,734.83 -3.6,3.8 -119.5,-90.8 -134.2,-99.5 -53.5,-31.9 -110.3,-55.5 -171.3,-68.7 -9.4,-2 -22.8,-4 -37.4,-5.9"
           style="fill:#ffffff;fill-opacity:1;fill-rule:nonzero;stroke:none"
           id="path9311"
           inkscape:connector-curvature="0" /></g><g
            id="g9313"
            transform="matrix(0.31244287,0,0,0.29900416,3179.203,10178.77)"><path
           d="m 15873.3,11122.9 c 55.4,12.1 373.4,-113.1 402.4,-25 24.3,73.7 -41.4,194.7 -41.4,194.6 -180,298.3 -580.2,822.9 -752.1,1008.4 -168.8,182.5 -180.5,-95.6 -180.5,-95.6 109.6,-271.4 292.3,-727.4 571.6,-1082.4"
           style="fill:#eda4b8;fill-opacity:1;fill-rule:nonzero;stroke:none"
           id="path9315"
           inkscape:connector-curvature="0" /></g><g
            id="g9317"
            transform="matrix(0.33996529,0,0,0.32534279,3179.203,10178.77)"><path
           d="m 14799.3,10584.9 c 199.6,15.4 457.7,0.2 535.4,12.8 452.5,73.6 883.8,125.1 922,-82.1 43.3,-234.7 -436.7,-387.6 -828.8,-433.1 -341,-39.7 -577.5,5.2 -936.7,33.3 22.6,143.3 169.5,378.3 308.1,469.1"
           style="fill:#e9e9e9;fill-opacity:1;fill-rule:nonzero;stroke:none"
           id="path9319"
           inkscape:connector-curvature="0" /></g><path
            d="m 7918.094,13997.11 c 8.8229,-1.608 18.6662,-4.308 21.007,-6.491 26.7392,-25.014 45.5256,-45.779 59.2706,-79.553 4.3214,-10.568 63.2015,-146.612 66.2923,-146.01 l -65.1219,2.04 c -39.7638,52.958 -88.1403,100.891 -112.2683,162.523 -9.2735,23.751 -6.2123,74.298 30.8203,67.491"
            style="fill:#eda4b8;fill-opacity:1;fill-rule:nonzero;stroke:none;stroke-width:0.29357776"
            id="path9321"
            inkscape:connector-curvature="0"/><g
            id="g9323"
            transform="matrix(0.36469074,0,0,0.34900476,3179.203,10178.77)"><path
           d="m 15769.6,10853.5 c 6.7,-42.8 19.1,-84.3 45.1,-122.6 30.9,-45.5 72.1,-79.7 104.7,-123.8 48.1,-65.1 65.8,-150.9 89.9,-227.6 38.9,-124.3 27.5,-257.4 54.8,-386.12 15.9,-75.21 35.1,-162.99 67.3,-232.81 27.5,-59.55 78.1,-111.68 102.1,-171.71 66.5,-166.33 -45.6,-392.6 -191.6,-482.19 -157.7,-96.84 -397.2,-70.35 -558,5.54 -135.3,63.9 -143.3,207.55 -158.8,344.41 -18.4,162.26 -43.5,354.39 -130.3,496.09 -118.1,192.59 -315.9,343.69 -394.5,559.09 -44.1,120.2 -89.6,244.5 -115.8,370 -24.3,116.7 -23.5,234 -0.6,350.8 10.1,51.3 18.2,132.1 46.2,176.4 28.8,45.4 73.5,55.5 126.4,75.3 69.3,25.9 135.9,72 207.4,90.4 176.5,45.7 404,-90.9 503.1,-230.1 57.5,-80.7 158,-169.3 180,-266.3 16.7,-73.3 11.1,-151.1 22.6,-224.8"
           style="fill:#485ea8;fill-opacity:1;fill-rule:nonzero;stroke:none"
           id="path9325"
           inkscape:connector-curvature="0" /></g><g
            id="g9327"
            transform="matrix(0.34530712,0,0,0.33045485,3179.203,10178.77)"><path
           d="m 16285.5,11420.6 c -14.4,-72.4 -119.4,-169.2 -145.8,-107.2 -16.1,37.9 -30.5,121.3 -15.9,193.8 14.4,72.4 2.3,81.7 68.3,68.5 66.1,-13.2 107.9,-82.6 93.4,-155.1"
           style="fill:#eda4b8;fill-opacity:1;fill-rule:nonzero;stroke:none"
           id="path9329"
           inkscape:connector-curvature="0" /></g><g
            id="g9331"
            transform="matrix(0.34338046,0,0,0.32861106,3179.203,10178.77)"><path
           d="m 16240.9,11241.9 c -11.2,146.9 -441.8,-126.2 -441.8,-126.2 l 46.1,-560.4 c 0,0 4.5,22.5 216.3,17.5 129,-3 238.5,3.2 232,123.8 -3.9,74.5 -48.6,494.5 -52.6,545.3"
           style="fill:#eda4b8;fill-opacity:1;fill-rule:nonzero;stroke:none"
           id="path9333"
           inkscape:connector-curvature="0" /></g><g
            id="g9335"
            transform="matrix(0.34240512,0,0,0.32767768,3179.203,10178.77)"><path
           d="m 16293.7,11131.8 c -61.1,-197.4 -236.5,-339.7 -420.2,-325.1 l -29.3,340.7 c 0,0 431.8,273.8 443,126.5 1.2,-15.6 6.2,-66 12.8,-130.4 -2.6,-3.2 -4.8,-7 -6.3,-11.7"
           style="fill:#e78482;fill-opacity:1;fill-rule:nonzero;stroke:none"
           id="path9337"
           inkscape:connector-curvature="0" /></g><g
            id="g9339"
            transform="matrix(0.34305334,0,0,0.32829802,3179.203,10178.77)"><path
           d="m 15784.7,11005.9 c 142.3,-67.6 371.4,15 449.7,145.6 47.4,79.1 65.6,159 59.6,247.5 -6.9,99.7 -36,188.5 -43.7,288.6 -3.3,43.2 -7.7,86.6 -20,128.3 -19.6,66.7 -59.9,127.6 -114.1,173 -53.4,44.6 -123.3,57 -188.3,78.5 -55.1,18.1 -117.4,41.8 -176.5,38.2 -40.6,-2.5 -61.3,-32 -88.9,-59.8 -149.3,-150.7 -178.5,-419.8 -136,-619.9 31.5,-148.9 111.8,-350.5 258.2,-420"
           style="fill:#eda4b8;fill-opacity:1;fill-rule:nonzero;stroke:none"
           id="path9341"
           inkscape:connector-curvature="0" /></g><g
            id="g9343"
            transform="matrix(0.35935492,0,0,0.34389844,3179.203,10178.77)"><path
           d="m 14944.8,7150.95 c 12.8,-267.49 92.9,-443.28 151,-595.44 302.8,-793.03 522.2,-1545.05 650.4,-1760.85 140.3,-236 553.8,188.16 553.8,188.16 0,0 -570.6,2363.78 -702.1,2515.7 -131.5,151.87 -663.4,-133.09 -653.1,-347.57"
           style="fill:#eda4b8;fill-opacity:1;fill-rule:nonzero;stroke:none"
           id="path9345"
           inkscape:connector-curvature="0" /></g><g
            id="g9347"
            transform="matrix(0.36011718,0,0,0.34462791,3179.203,10178.77)"><path
           d="m 14913.1,7135.78 c 12.8,-266.92 92.7,-442.34 150.7,-594.18 302.1,-791.35 521.1,-1541.77 649,-1757.11 139.9,-235.5 587.2,92 587.2,92 0,0 -505.3,2440.19 -636.6,2591.74 -131.2,151.59 -760.6,-118.43 -750.3,-332.45"
           style="fill:#3e508f;fill-opacity:1;fill-rule:nonzero;stroke:none"
           id="path9349"
           inkscape:connector-curvature="0" /></g><g
            id="g9351"
            transform="matrix(0.37253843,0,0,0.3565149,3179.203,10178.77)"><path
           d="m 15260.4,4315.86 c 0,0 101,-327.46 891.6,-1302.42 105.8,-130.42 148,58.24 148,58.24 0,0 -616.3,1454.76 -721.3,1594.6 -105.1,139.93 -318.3,-350.42 -318.3,-350.42"
           style="fill:#eda4b8;fill-opacity:1;fill-rule:nonzero;stroke:none"
           id="path9353"
           inkscape:connector-curvature="0" /></g><g
            id="g9355"
            transform="matrix(0.36949539,0,0,0.35360275,3179.203,10178.77)"><path
           d="m 15665.7,3539.22 c -280.3,508.43 -379.2,1165.17 -379.2,1165.17 0,0 480.1,210.03 586,69.03 53.5,-71.22 246.7,-494.38 427.5,-903.32 -140.8,-69.85 -632.9,-330.32 -634.3,-330.88"
           style="fill:#3e508f;fill-opacity:1;fill-rule:nonzero;stroke:none"
           id="path9357"
           inkscape:connector-curvature="0" /></g><g
            id="g9359"
            transform="matrix(0.34636948,0,0,0.33147152,3179.203,10178.77)"><path
           d="m 15526.4,7546.8 c -155.5,-230.3 -198,-426.11 -244.3,-588.74 -240.7,-847.1 -362.1,-1497.26 -389.4,-1756.23 -30,-283.24 413.9,-298.57 413.9,-298.57 0,0 993.4,2318.89 978.4,2526.83 -15.1,207.96 -634,301.32 -758.6,116.71"
           style="fill:#eda4b8;fill-opacity:1;fill-rule:nonzero;stroke:none"
           id="path9361"
           inkscape:connector-curvature="0" /></g><g
            id="g9363"
            transform="matrix(0.32737598,0,0,0.31329496,3179.203,10178.77)"><path
           d="m 15765.9,4918.49 c 0,0 -64.2,-398.39 283,-1784.06 46.4,-185.26 191.6,1.1 191.6,1.1 0,0 59.5,1546.45 18.3,1741.25 -41.1,194.8 -492.9,41.71 -492.9,41.71"
           style="fill:#eda4b8;fill-opacity:1;fill-rule:nonzero;stroke:none"
           id="path9365"
           inkscape:connector-curvature="0" /></g><g
            id="g9367"
            transform="matrix(0.33081216,0,0,0.31658334,3179.203,10178.77)"><path
           d="m 15479.7,3629.58 c -112.6,841.58 57.8,1709.65 57.8,1709.65 0,0 513.8,-15.15 554.6,-207.92 22.9,-108.59 201.6,-1067.92 207.9,-1501.73 h -820.3"
           style="fill:#485ea8;fill-opacity:1;fill-rule:nonzero;stroke:none"
           id="path9369"
           inkscape:connector-curvature="0" /></g><g
            id="g9371"
            transform="matrix(0.35477535,0,0,0.33951584,3179.203,10178.77)"><path
           d="m 14554.6,5478.42 c 63.2,352.74 145.8,701.92 247.5,1045.44 115.4,390.12 212.9,732.37 372.9,1105.48 41.2,95.78 -13.1,502.88 49.4,544.36 146,96.75 518.9,-21.28 717.8,-60.55 47.4,-9.4 77.6,-33.49 118.5,-59.24 66.8,-42.11 155,-269.03 177.7,-344.71 61.6,-205.72 15.2,-462.28 -94.4,-637.2 -87.7,-140 -170.5,-283.13 -251.1,-427.35 -69.2,-123.92 -155,-234.48 -226,-359.08 -158.7,-277.71 -261.8,-579.77 -377.6,-878.37 -39.1,-101 -287.7,-580.2 -288.9,-650.24 -6.1,-370.84 -337.5,156.07 -451.3,189.31 -65.6,19.12 -61.8,31.3 -57.8,101.84 3,53.89 10.8,107.43 18.9,160.72 13.5,90.09 28.3,179.92 44.4,269.59"
           style="fill:#485ea8;fill-opacity:1;fill-rule:nonzero;stroke:none"
           id="path9373"
           inkscape:connector-curvature="0" /></g><g
            id="g9375"
            transform="matrix(0.35036984,0,0,0.33529983,3179.203,10178.77)"><path
           d="m 15385.6,8082.82 c -32.6,649.86 -158.9,1605.89 -76.9,1698.36 144.1,162.75 150.9,518.22 255.2,648.72 156.1,195 290.8,286.6 485.8,4.3 66.1,-95.7 147.9,-669.42 163.4,-741.08 34.7,-158.83 47.8,-950.07 86.9,-1587.44 l -914.4,-22.86"
           style="fill:#eda4b8;fill-opacity:1;fill-rule:nonzero;stroke:none"
           id="path9377"
           inkscape:connector-curvature="0" /></g><g
            id="g9379"
            transform="matrix(0.35062193,0,0,0.33554107,3179.203,10178.77)"><path
           d="m 15374.5,8077.01 c -33.6,475.59 -65.6,868.97 -107,1150.05 -12.5,85.14 -38.4,167.57 -52.5,251.48 -13.1,77.66 23.8,184.48 55,254.55 31.8,71.43 65.2,142.92 95.5,215.13 29.9,71.08 53.1,144.58 76.4,217.98 7.2,22.8 45.8,189.1 68.8,191 2.5,0.3 89.3,7.7 123.7,15.1 61.7,13.3 119.2,37.2 173.4,69.4 14.8,8.8 132.1,104.6 135.8,100.7 189.7,-199.5 298.3,-487.8 328.7,-743.74 10.9,-92.44 -5.6,-1505.16 27.7,-1703.84 l -925.5,-17.81"
           style="fill:#7ecaf1;fill-opacity:1;fill-rule:nonzero;stroke:none"
           id="path9381"
           inkscape:connector-curvature="0" /></g><g
            id="g9383"
            transform="matrix(0.35490739,0,0,0.33964221,3179.203,10178.77)"><path
           d="m 15408.2,10241.1 c -100.4,-168.1 -143.4,-349.94 -144.2,-550.94 -0.9,-231.56 8.2,-465.29 21.8,-696.44 20,-338.14 73.7,-1130.91 116.1,-1466.76 l 898.1,13.8 c -32.8,196.27 -213.3,2048.29 -224.2,2139.61 -30,252.86 -137.3,537.73 -324.7,734.83 -3.6,3.8 -119.5,-90.8 -134.2,-99.5 -53.5,-31.9 -110.3,-55.5 -171.3,-68.7 -9.4,-2 -22.8,-4 -37.4,-5.9"
           style="fill:#ffffff;fill-opacity:1;fill-rule:nonzero;stroke:none"
           id="path9385"
           inkscape:connector-curvature="0" /></g><g
            id="g9387"
            transform="matrix(0.35490739,0,0,0.33964221,3179.203,10178.77)"><path
           d="m 15408.2,10241.1 c -100.4,-168.1 -143.4,-349.94 -144.2,-550.94 -0.9,-231.56 8.2,-465.29 21.8,-696.44 20,-338.14 73.7,-1130.91 116.1,-1466.76 l 898.1,13.8 c -32.8,196.27 -213.3,2048.29 -224.2,2139.61 -30,252.86 -137.3,537.73 -324.7,734.83 -3.6,3.8 -119.5,-90.8 -134.2,-99.5 -53.5,-31.9 -110.3,-55.5 -171.3,-68.7 -9.4,-2 -22.8,-4 -37.4,-5.9"
           style="fill:#ffffff;fill-opacity:1;fill-rule:nonzero;stroke:none"
           id="path9389"
           inkscape:connector-curvature="0" /></g><g
            id="g9391"
            transform="matrix(0.34546017,0,0,0.33060132,3179.203,10178.77)"><path
           d="m 15836.1,12278.9 c -66.4,-14.8 -133.2,-44.7 -198.2,-59.1 -99.6,-29.7 -251.5,-124 -304.6,-215.2 -198.8,-341.5 431.8,-340.3 568.9,-444 43,-32.5 66.7,-76.8 103.7,-108.5 85.9,-73.5 113.8,4.4 127.3,79.1 -3.4,-18.5 0.6,-4.6 11.8,41.7 24.5,101.4 24,184.2 83,272.4 51.7,77.6 72,218.5 17.8,300.1 -63.6,95.7 -219.4,136.8 -327.3,141.9 -27.4,1.2 -54.8,-2.3 -82.4,-8.4"
           style="fill:#485ea8;fill-opacity:1;fill-rule:nonzero;stroke:none"
           id="path9393"
           inkscape:connector-curvature="0" /></g><g
            id="g9395"
            transform="matrix(0.32720492,0,0,0.31313126,3179.203,10178.77)"><path
           d="m 15581.5,3017.39 c 54.7,8.07 71.8,0.46 126.7,9.45 54.2,8.9 107.4,27.88 156.6,52.19 48.5,24.11 119.2,73.37 160.9,106.66 5.3,4.22 10.6,7.71 15.9,10.92 74.2,-34.22 116.7,-31.92 196.1,1.65 7.6,3.21 12.5,7.79 15.2,13.2 2.3,-1.83 4.5,-3.94 6.3,-6.32 12.7,-16.24 15,-38.8 18,-58.52 5.6,-36.78 22.8,-189.49 15.3,-225.72 -10.7,-51.17 -289.2,-112.16 -380.6,-117.85 -123,-7.61 -217,-12.75 -338.5,6.97 -118.5,19.17 -84.8,193.8 8.1,207.37"
           style="fill:#36457c;fill-opacity:1;fill-rule:nonzero;stroke:none"
           id="path9397"
           inkscape:connector-curvature="0" /></g><g
            id="g9399"
            transform="matrix(0.37474118,0,0,0.35862291,3179.203,10178.77)"><path
           d="m 15681.8,2796.9 c 42.4,23.22 58.7,22.18 100.9,46.28 41.6,23.63 79.5,55.42 112.3,90.26 32.5,34.43 75.4,96.26 99.4,136.14 3,5.04 6.3,9.53 9.7,13.77 71.1,-5.52 105.2,9.29 160.1,60.87 5.2,4.96 7.7,10.25 8.4,15.45 2.5,-0.8 4.8,-1.92 7,-3.28 15.4,-9.45 24.1,-27.23 32.6,-42.45 15.6,-28.42 76.1,-148.23 81,-180.1 6.8,-45.09 -202.7,-179.63 -275.8,-211.98 -98.4,-43.65 -173.7,-76.4 -279.2,-97.14 -102.8,-20.34 -128.3,132.94 -56.4,172.18"
           style="fill:#36457c;fill-opacity:1;fill-rule:nonzero;stroke:none"
           id="path9401"
           inkscape:connector-curvature="0" /></g><path
            d="m 5534.1325,13179.036 c 13.7087,17.03 62.2023,60.943 93.479,50.288 26.211,-8.932 28.9569,-21.856 28.9419,-21.827 55.0658,-136.274 94.6524,-263.981 117.9403,-370.255 22.9039,-104.51 -61.2659,-42.077 -61.2659,-42.077 -59.9755,104.485 -125.4819,198.294 -179.0953,383.871"
            style="fill:#eda4b8;fill-opacity:1;fill-rule:nonzero;stroke:none;stroke-width:0.29357776"
            id="path9403"
            inkscape:connector-curvature="0"/><path
            d="m 5609.7434,13220.22 c -21.7304,213.701 -66.2056,231.249 -105.093,333.145 -56.9564,149.198 -220.3053,300.808 -269.354,209.566 -24.0383,-44.716 238.6686,-504.343 276.0074,-591.736 31.5077,4.337 61.635,37.939 98.4396,49.025"
            style="fill:#eda4b8;fill-opacity:1;fill-rule:nonzero;stroke:none;stroke-width:0.29357776"
            id="path9405"
            inkscape:connector-curvature="0"/><path
            d="m 5497.3309,13144.629 c -33.4073,72.747 -172.4509,364.795 -187.8942,391.648 -89.9678,156.32 -134.0649,223.237 -63.2137,283.289 80.2596,68.065 197.9268,-100.432 270.5606,-239.262 47.9624,-91.643 69.2847,-140.581 120.2631,-317.924 1.1795,-55.314 -87.0417,-150.663 -139.7158,-117.751"
            style="fill:#84b6e3;fill-opacity:1;fill-rule:nonzero;stroke:none;stroke-width:0.29357776"
            id="path9407"
            inkscape:connector-curvature="0"/><path
            d="m 5799.6153,12786.136 c -13.0305,20.842 -25.2836,36.91 -49.1988,47.826 l -1.9416,-0.806 c 0.8582,-2.459 1.7196,-4.914 2.5808,-7.384 0,0 -4.8136,6.318 1.0234,-2.88 0.2671,-0.739 0.5252,-1.477 0.7922,-2.229 -7.8687,5.804 -16.5536,8.288 -25.7878,3.633 -30.3793,-15.316 -8.4419,-58.318 0.1201,-80.237 6.9564,-17.8 17.466,-34.411 28.2877,-50.267 5.3838,-7.869 27.8135,-37.163 40.0666,-35.038 14.6421,2.556 42.9087,14.618 41.6543,26.364 -0.6362,5.902 -35.6311,60.73 -38.8873,63.37 8.2409,-6.686 16.9768,-19.733 29.3951,-19.193 12.7993,0.568 -17.7871,43.696 -28.1047,56.841"
            style="fill:#eda4b8;fill-opacity:1;fill-rule:nonzero;stroke:none;stroke-width:0.29357776"
            id="path9409"
            inkscape:connector-curvature="0"/><path
            d="m 5771.0096,12860.014 c -23.7142,102.44 -72.2287,300.01 -138.1763,410.005 -35.8083,19.328 -30.3134,-17.95 -56.5244,-9.018 -31.2737,10.655 -76.7242,-69.529 -90.4299,-86.561 48.5056,-167.893 147.7796,-253.85 202.8574,-347.376 l 82.2732,32.95"
            style="fill:#84b6e3;fill-opacity:1;fill-rule:nonzero;stroke:none;stroke-width:0.29357776"
            id="path9411"
            inkscape:connector-curvature="0"/><path
            d="m 5665.4035,12864.544 c 8.3068,-12.835 16.1545,-25.314 23.3329,-37.48 l 82.2732,32.95 c -3.2801,14.168 -6.8784,28.903 -10.7287,44.021 l -94.8774,-39.491"
            style="fill:#ffffff;fill-opacity:1;fill-rule:nonzero;stroke:none;stroke-width:0.29357776"
            id="path9413"
            inkscape:connector-curvature="0"/><path
            d="m 8021.8392,11483.553 -635.7071,-266.689 H 5467.0086 v 1544.401 h 2257.1591 l 297.6715,-1277.712"
            style="fill:#8daadd;fill-opacity:1;fill-rule:nonzero;stroke:none;stroke-width:0.29357776"
            id="path9415"
            inkscape:connector-curvature="0"/><path
            d="m 5467.0086,11493.978 v -277.114 h 1919.1235 l 635.7071,266.689 -2.4305,10.425 H 5467.0086"
            style="fill:#6c85cb;fill-opacity:1;fill-rule:nonzero;stroke:none;stroke-width:0.29357776"
            id="path9417"
            inkscape:connector-curvature="0"/><path
            d="M 7386.1321,11216.864 H 5128.979 l 330.374,1544.401 h 2257.1622 l -330.3831,-1544.401"
            style="fill:#ffffff;fill-opacity:1;fill-rule:nonzero;stroke:none;stroke-width:0.29357776"
            id="path9419"
            inkscape:connector-curvature="0"/><path
            d="m 6672.728,11413.851 h -221.5958 l 221.986,1004.579 227.0276,-0.144 -227.4178,-1004.435"
            style="fill:#ac86be;fill-opacity:1;fill-rule:nonzero;stroke:none;stroke-width:0.29357776"
            id="path9421"
            inkscape:connector-curvature="0"/><path
            d="m 6977.0021,11413.851 265.1708,1134.074 -227.628,0.173 -259.0786,-1134.247 h 221.5358"
            style="fill:#e95259;fill-opacity:1;fill-rule:nonzero;stroke:none;stroke-width:0.29357776"
            id="path9423"
            inkscape:connector-curvature="0"/><path
            d="m 6372.0551,11413.851 167.4574,764.541 -225.7973,0.115 -163.3339,-764.656 h 221.6738"
            style="fill:#8daadd;fill-opacity:1;fill-rule:nonzero;stroke:none;stroke-width:0.29357776"
            id="path9425"
            inkscape:connector-curvature="0"/><path
            d="m 5759.9868,11413.851 h -221.8479 l 61.302,308.619 223.5164,-0.06 -62.9705,-308.562"
            style="fill:#7880be;fill-opacity:1;fill-rule:nonzero;stroke:none;stroke-width:0.29357776"
            id="path9427"
            inkscape:connector-curvature="0"/><path
            d="m 6055.7079,11413.851 114.8194,543.401 -224.711,0.09 -111.8812,-543.487 h 221.7728"
            style="fill:#fcd36d;fill-opacity:1;fill-rule:nonzero;stroke:none;stroke-width:0.29357776"
            id="path9429"
            inkscape:connector-curvature="0"/><path
            d="M 7258.5282,11316.09 H 5295.7911 c -5.0899,0 -9.9095,2.211 -13.1145,5.973 -3.2022,3.792 -4.4506,8.76 -3.3972,13.528 L 5568.2363,12640 c 1.6775,7.582 8.6909,12.809 16.4665,12.809 1.1704,0 2.3559,-0.116 3.5443,-0.345 9.1171,-1.895 14.939,-10.454 13.0124,-19.155 l -284.6474,-1284.938 h 1941.9161 c 9.3335,0 16.896,-7.209 16.896,-16.141 0,-8.903 -7.5625,-16.14 -16.896,-16.14"
            style="fill:#7880be;fill-opacity:1;fill-rule:nonzero;stroke:none;stroke-width:0.29357776"
            id="path9431"
            inkscape:connector-curvature="0"/><path
            d="m 5255.6193,14411.675 c -31.8349,12.408 -65.6715,11.201 -98.5147,3.389 -15.2182,-3.618 -25.9439,-6.002 -41.6543,-6.605 -53.0491,-2.039 -81.1298,-71.196 -86.9277,-113.299 -3.1751,-23.147 1.1254,-47.617 2.6769,-70.707 4.0634,-60.684 39.0644,-128.864 107.4518,-140.581 43.5989,-7.496 93.3229,5.657 127.5886,32.309 85.7154,66.6 109.8496,248.625 -10.6206,295.494"
            style="fill:#485ea8;fill-opacity:1;fill-rule:nonzero;stroke:none;stroke-width:0.29357776"
            id="path9433"
            inkscape:connector-curvature="0"/><path
            d="m 4251.5088,12825.703 v -139.436 h 29.7132 v 105.774 h 186.7569 v -105.774 h 29.7191 v 139.436 h -246.1892"
            style="fill:#f5d178;fill-opacity:1;fill-rule:nonzero;stroke:none;stroke-width:0.29357776"
            id="path9435"
            inkscape:connector-curvature="0"/><path
            d="m 4960.2822,11881.232 c 0,0 -61.1759,-149.658 64.9603,-631.369 10.1014,-38.571 41.4921,-36.13 58.2979,-23.694 11.2599,8.329 11.3199,24.067 11.3199,24.067 0,0 59.4413,548.8 44.4722,616.521 -14.9661,67.72 -179.0503,14.475 -179.0503,14.475"
            style="fill:#eda4b8;fill-opacity:1;fill-rule:nonzero;stroke:none;stroke-width:0.29357776"
            id="path9437"
            inkscape:connector-curvature="0"/><path
            d="m 5122.5867,12989.171 h -292.3419 c 0.03,-1.235 0.069,-2.484 0.075,-3.676 0.192,-53.547 0.6002,-107.084 1.3655,-160.631 1.9116,-135.418 -1.2395,-100.607 6.9774,-235.812 6.9893,-115.022 94.8294,-637.687 107.4247,-665.545 12.7874,-28.26 6.7043,-79.668 32.144,-101.064 40.4839,-34.033 119.6389,-52.04 153.6255,-9.535 22.9639,28.691 12.5953,175.849 16.7787,212.438 3.5443,31.074 3.4123,62.896 4.8947,91.96 5.9691,116.744 -2.2927,233.747 -2.7879,350.55 -0.6992,163.671 -1.1824,321.675 -28.1557,521.315"
            style="fill:#394977;fill-opacity:1;fill-rule:nonzero;stroke:none;stroke-width:0.29357776"
            id="path9439"
            inkscape:connector-curvature="0"/><path
            d="m 5265.3066,11200.465 c -19.9088,2.786 -26.094,0.144 -46.0447,3.274 -19.6477,3.073 -39.0014,9.679 -56.8305,18.151 -17.6251,8.357 -43.2958,25.474 -58.427,37.048 -1.9116,1.465 -3.8473,2.7 -5.792,3.791 -26.9252,-11.89 -42.3505,-11.114 -71.2023,0.574 -2.74,1.121 -4.5256,2.7 -5.5189,4.567 -0.8313,-0.632 -1.5875,-1.35 -2.2718,-2.183 -4.6276,-5.658 -5.4349,-13.469 -6.5273,-20.334 -2.0166,-12.779 -8.2918,-65.853 -5.5608,-78.404 3.8623,-17.805 104.9969,-39 138.1793,-40.953 44.6823,-2.642 78.7709,-4.452 122.889,2.383 43.0196,6.663 30.8115,67.376 -2.893,72.086"
            style="fill:#36457c;fill-opacity:1;fill-rule:nonzero;stroke:none;stroke-width:0.29357776"
            id="path9441"
            inkscape:connector-curvature="0"/><path
            d="m 5068.6253,14177.152 c 5.8911,-26.508 46.5429,-61.517 56.3713,-38.685 6.014,13.986 11.0888,44.63 5.1977,71.138 -5.8879,26.48 -1.2874,29.955 -26.538,24.814 -25.2416,-5.141 -40.928,-30.787 -35.031,-57.267"
            style="fill:#eda4b8;fill-opacity:1;fill-rule:nonzero;stroke:none;stroke-width:0.29357776"
            id="path9443"
            inkscape:connector-curvature="0"/><path
            d="m 5119.3156,14118.019 c 16.4637,51.35 153.6736,-80.271 153.6736,-80.271 l -64.0239,-195.637 c 0,0 0.2161,8.358 -78.924,23.521 -48.2355,9.248 -81.4929,1.235 -69.0116,43.625 7.7217,26.192 52.587,191.013 58.2859,208.762"
            style="fill:#eda4b8;fill-opacity:1;fill-rule:nonzero;stroke:none;stroke-width:0.29357776"
            id="path9445"
            inkscape:connector-curvature="0"/><path
            d="m 5105.0517,14068.133 c 6.1852,-74.9 59.3213,-139.375 128.6211,-148.853 l 39.3164,118.468 c 0,0 -137.201,131.621 -153.6736,80.271 -1.7435,-5.428 3.1361,10.683 -4.6666,-11.632 0.7143,-1.349 -9.7443,-36.473 -9.5973,-38.254"
            style="fill:#e78482;fill-opacity:1;fill-rule:nonzero;stroke:none;stroke-width:0.29357776"
            id="path9447"
            inkscape:connector-curvature="0"/><path
            d="m 5302.2222,14001.504 c -53.8414,-25.273 -141.4233,3.791 -171.8508,51.035 -18.3992,28.547 -25.7217,57.611 -23.8221,89.863 2.1367,36.359 12.8024,68.84 15.2512,105.343 1.0593,15.738 2.5119,31.563 7.0014,46.813 7.1634,24.353 22.1775,46.726 42.6176,63.527 20.0858,16.485 46.699,21.338 71.3224,29.438 20.8601,6.863 44.4962,15.766 66.9619,14.703 15.5033,-0.717 23.528,-11.372 34.1367,-21.367 57.5716,-54.222 69.9269,-152.098 54.7237,-225.189 -11.3349,-54.395 -40.928,-128.204 -96.342,-154.166"
            style="fill:#eda4b8;fill-opacity:1;fill-rule:nonzero;stroke:none;stroke-width:0.29357776"
            id="path9449"
            inkscape:connector-curvature="0"/><path
            d="m 4749.3551,11897.487 c 0,0 61.1759,-149.686 -64.9602,-631.398 -10.1015,-38.57 -41.4922,-36.1 -58.2979,-23.693 -11.2659,8.328 -11.3199,24.067 -11.3199,24.067 0,0 -30.3074,558.737 -15.3443,626.457 14.9662,67.721 149.9223,4.567 149.9223,4.567"
            style="fill:#eda4b8;fill-opacity:1;fill-rule:nonzero;stroke:none;stroke-width:0.29357776"
            id="path9451"
            inkscape:connector-curvature="0"/><path
            d="m 4596.6269,12989.171 c -6.5033,-13.541 -10.8637,-25.893 -12.2683,-36.057 -25.1215,-182.707 -24.7644,-304.038 -25.4607,-469.032 -0.4981,-116.773 12.9044,-478.18 20.32,-613.907 2.932,-53.418 127.1175,-91.3 167.5924,-57.267 25.4486,21.367 43.3167,39.719 56.1101,67.979 12.5863,27.858 58.3219,649.491 65.3084,764.512 8.2108,135.214 7.8026,60.273 9.7263,195.706 0.6962,49.346 1.0654,98.706 1.2875,148.066 h -282.6157"
            style="fill:#394977;fill-opacity:1;fill-rule:nonzero;stroke:none;stroke-width:0.29357776"
            id="path9453"
            inkscape:connector-curvature="0"/><path
            d="m 5106.9724,13063.814 c 67.8443,233.201 197.4075,569.909 174.2276,610.173 -40.7839,70.851 26.25,9.736 -2.1877,65.595 -42.5126,83.516 -209.1626,197.073 -307.2331,110.542 -33.2484,-29.323 -29.14,-109.45 -41.1801,-134.178 -26.6882,-54.825 -99.211,-340.958 -168.5106,-569.104 l 344.8839,-83.028"
            style="fill:#eda4b8;fill-opacity:1;fill-rule:nonzero;stroke:none;stroke-width:0.29357776"
            id="path9455"
            inkscape:connector-curvature="0"/><path
            d="m 5264.9075,13873.645 c -12.5803,7.524 -26.7632,14.36 -42.1765,20.591 -46.0837,-24.871 -120.0231,-0.459 -151.3538,35.986 -0.9423,1.092 -1.6325,2.183 -2.2837,3.275 -14.492,2.326 -29.2541,4.479 -44.3102,6.433 -39.6225,4.106 -87.3809,2.987 -115.6205,-6.319 -115.6926,-38.053 -129.5544,-168.928 -135.4634,-203.678 -28.2306,-165.769 -119.915,-447.565 -157.6469,-602.965 -31.3578,-129.166 -58.8921,-306.492 -58.8921,-306.492 l 617.5962,-133.061 c 12.4783,6.446 174.8609,809.028 194.7846,926.462 26.6102,156.924 -31.8288,216.114 -104.6337,259.768"
            style="fill:#84b6e3;fill-opacity:1;fill-rule:nonzero;stroke:none;stroke-width:0.29357776"
            id="path9457"
            inkscape:connector-curvature="0"/><path
            d="m 4470.9379,13346.212 c 21.5743,5.973 87.804,14.015 106.4644,-12.263 15.6443,-22.028 9.8734,-34.004 9.8884,-33.976 -39.6676,-141.098 -86.5526,-266.508 -133.3447,-365.429 -46.0176,-97.287 -75.4037,0.669 -75.4037,0.669 16.0945,118.204 21.1242,230.927 92.3956,410.999"
            style="fill:#eda4b8;fill-opacity:1;fill-rule:nonzero;stroke:none;stroke-width:0.29357776"
            id="path9459"
            inkscape:connector-curvature="0"/><path
            d="m 4512.295,13275.533 c -9.5162,3.073 -54.8347,31.764 -41.3571,70.679 84.3678,243.483 146.6721,301.496 214.9395,398.081 92.9988,131.592 236.5349,235.212 297.2007,150.604 53.5443,-74.699 -150.8077,-167.722 -274.1468,-369.074 -20.0499,-32.74 -77.2704,-134.924 -161.0111,-230.215 -0.015,-0.03 -9.4112,-21.339 -35.6252,-20.075"
            style="fill:#eda4b8;fill-opacity:1;fill-rule:nonzero;stroke:none;stroke-width:0.29357776"
            id="path9461"
            inkscape:connector-curvature="0"/><path
            d="m 4577.3212,13289.261 c 50.8074,62.838 246.4054,373.181 268.1748,395.639 126.8384,130.847 191.3484,144.201 137.8011,218.871 -60.6627,84.637 -217.7724,-31.878 -322.2052,-150.662 -90.8021,-103.303 -139.6738,-197.992 -217.5745,-375.88 -15.1401,-53.418 74.3685,-107.698 133.8038,-87.968"
            style="fill:#84b6e3;fill-opacity:1;fill-rule:nonzero;stroke:none;stroke-width:0.29357776"
            id="path9463"
            inkscape:connector-curvature="0"/><path
            d="m 4851.564,11194.492 c -19.9087,2.786 -26.0939,0.143 -46.0387,3.274 -19.6477,3.101 -39.0073,9.678 -56.8304,18.15 -17.631,8.387 -43.2929,25.474 -58.424,37.077 -1.9146,1.465 -3.8503,2.671 -5.795,3.762 -26.9312,-11.89 -42.3505,-11.086 -71.2114,0.575 -2.7369,1.12 -4.5165,2.728 -5.5188,4.595 -0.8313,-0.661 -1.5876,-1.379 -2.2628,-2.212 -4.6216,-5.657 -5.4349,-13.469 -6.5242,-20.304 -2.0257,-12.78 -8.3009,-65.854 -5.564,-78.433 3.8624,-17.777 104.9909,-38.973 138.1733,-40.925 44.6883,-2.672 78.786,-4.481 122.889,2.384 43.0168,6.634 30.8176,67.346 -2.893,72.057"
            style="fill:#36457c;fill-opacity:1;fill-rule:nonzero;stroke:none;stroke-width:0.29357776"
            id="path9465"
            inkscape:connector-curvature="0"/><path
            d="m 5109.3912,11249.834 c 16.2296,160.369 40.964,567.066 29.9413,616.923 -14.9661,67.72 -179.0503,14.504 -179.0503,14.504 0,0 -73.207,-150.031 56.7885,-627.837 l 92.3205,-3.59"
            style="fill:#394977;fill-opacity:1;fill-rule:nonzero;stroke:none;stroke-width:0.29357776"
            id="path9467"
            inkscape:connector-curvature="0"/><path
            d="m 4698.6647,11248.944 c 104.4508,431.625 109.2704,680.048 109.2704,680.048 0,0 -232.1264,82.052 -226.0882,-43.28 2.5418,-52.701 7.8626,-471.43 18.6003,-638.893 l 98.2175,2.125"
            style="fill:#394977;fill-opacity:1;fill-rule:nonzero;stroke:none;stroke-width:0.29357776"
            id="path9469"
            inkscape:connector-curvature="0"/><path
            d="m 4671.0283,12239.708 h -542.6066 v 456.168 h 542.6066 v -456.168"
            style="fill:#485ea8;fill-opacity:1;fill-rule:nonzero;stroke:none;stroke-width:0.29357776"
            id="path9471"
            inkscape:connector-curvature="0"/><path
            d="m 4640.886,12239.708 h -542.6156 v 456.168 h 542.6156 v -456.168"
            style="fill:#6173b3;fill-opacity:1;fill-rule:nonzero;stroke:none;stroke-width:0.29357776"
            id="path9473"
            inkscape:connector-curvature="0"/><path
            d="m 4640.886,12487.327 h -542.6156 v 208.549 h 542.6156 v -208.549"
            style="fill:#788bc8;fill-opacity:1;fill-rule:nonzero;stroke:none;stroke-width:0.29357776"
            id="path9475"
            inkscape:connector-curvature="0"/><path
            d="m 4442.6712,12879.092 c 2.3438,24.191 2.3798,44.082 -10.1765,66.397 l -2.0797,0.457 c -0.7983,-2.473 -1.6296,-4.943 -2.4609,-7.413 0,0 0.015,7.824 -0.9483,-2.91 -0.2521,-0.737 -0.4981,-1.49 -0.7412,-2.242 -2.7609,9.127 -8.2499,16.039 -18.5733,17.504 -33.9717,4.825 -42.7977,-42.292 -49.415,-64.808 -5.3688,-18.297 -7.1574,-37.645 -8.2017,-56.557 -1.2005,-21.635 12.4302,-34.056 26.8951,-50.127 6.7944,-2.258 49.724,-14.607 49.1298,3.492 -0.102,3.111 -12.9494,11.215 -14.684,15.957 -7.0164,19.181 4.5316,35.235 7.1935,53.223 3.7393,-10.521 0.5492,-27.669 11.659,-34.725 10.6806,-6.772 12.6253,45.328 12.4032,61.752"
            style="fill:#eda4b8;fill-opacity:1;fill-rule:nonzero;stroke:none;stroke-width:0.29357776"
            id="path9477"
            inkscape:connector-curvature="0"/><path
            d="m 4390.9275,12484.312 c 0,-9.277 -7.8747,-16.83 -17.577,-16.83 h -55.2729 c -9.7084,0 -17.58,7.553 -17.58,16.83 0,9.305 7.8716,16.83 17.58,16.83 h 55.2729 c 9.7023,0 17.577,-7.525 17.577,-16.83"
            style="fill:#f5d178;fill-opacity:1;fill-rule:nonzero;stroke:none;stroke-width:0.29357776"
            id="path9479"
            inkscape:connector-curvature="0"/><path
            d="m 4465.1819,12954.874 c 44.0941,96.073 92.5277,222.238 129.9114,355.209 -0.01,-0.03 -2.0557,1.838 -17.691,23.866 -18.6604,26.278 -107.6438,58.127 -129.2272,52.125 -64.486,-162.896 -56.4373,-304.656 -69.7229,-411.283 l 86.7297,-19.917"
            style="fill:#84b6e3;fill-opacity:1;fill-rule:nonzero;stroke:none;stroke-width:0.29357776"
            id="path9481"
            inkscape:connector-curvature="0"/><path
            d="m 4382.7557,13018.215 c -1.2094,-15.032 -2.5689,-29.54 -4.3035,-43.424 l 86.7297,-19.917 c 6.1041,13.301 12.2892,27.215 18.5194,41.609 l -100.9456,21.732"
            style="fill:#ffffff;fill-opacity:1;fill-rule:nonzero;stroke:none;stroke-width:0.29357776"
            id="path9483"
            inkscape:connector-curvature="0"/><path
            d="m 5075.2125,13271.139 c 0,0 -97.6623,-152.328 -115.5065,-149.284 -21.1482,3.648 -30.3673,180.732 -30.3673,180.732 l 179.5694,544.262 47.7943,-10.281 -81.4899,-565.429"
            style="fill:#ec345b;fill-opacity:1;fill-rule:nonzero;stroke:none;stroke-width:0.29357776"
            id="path9485"
            inkscape:connector-curvature="0"/><path
            d="m 5183.7387,13858.452 c -5.867,-24.928 -29.5571,-41.069 -52.8991,-36.043 -23.348,5.026 -37.5219,29.323 -31.6488,54.251 5.8609,24.929 32.6211,45.951 55.9721,40.925 23.348,-5.025 34.4457,-34.204 28.5758,-59.133"
            style="fill:#ec345b;fill-opacity:1;fill-rule:nonzero;stroke:none;stroke-width:0.29357776"
            id="path9487"
            inkscape:connector-curvature="0"/><path
            d="m 5142.8347,13840.531 c -22.0155,13.298 -34.4818,34.119 -34.2537,55.716 -4.4055,-5.916 -7.7427,-12.579 -9.3902,-19.587 -5.8731,-24.928 8.2948,-49.225 31.6488,-54.251 13.8797,-2.986 27.8375,1.551 38.146,10.885 -8.4689,-0.23 -17.2499,1.867 -26.1509,7.237"
            style="fill:#ce2d4e;fill-opacity:1;fill-rule:nonzero;stroke:none;stroke-width:0.29357776"
            id="path9489"
            inkscape:connector-curvature="0"/><path
            d="m 5087.9249,13987.518 67.238,-69.933 -80.7306,-75.014 -71.6495,100.46 c 0,0 42.6506,49.943 85.1421,44.487"
            style="fill:#ffffff;fill-opacity:1;fill-rule:nonzero;stroke:none;stroke-width:0.29357776"
            id="path9491"
            inkscape:connector-curvature="0"/><path
            d="m 5155.1629,13917.585 20.9742,-96.927 105.294,42.619 c 0,0 -4.7386,56.463 -41.3421,70.506 l -84.9261,-16.198"
            style="fill:#ffffff;fill-opacity:1;fill-rule:nonzero;stroke:none;stroke-width:0.29357776"
            id="path9493"
            inkscape:connector-curvature="0"/><path
            d="m 5461.8468,14405.816 c 4.0034,25.79 -11.926,29.553 -35.5741,31.161 -23.0209,1.58 -46.504,0 -69.6179,3.964 -25.6858,4.422 -46.726,14.015 -70.4251,23.032 -40.928,15.567 -87.2608,14.619 -130.4306,3.619 -64.7801,-16.513 -122.6339,-105.027 -126.9884,-170.392 -1.4315,-21.597 8.2258,-18.524 21.5773,-36.015 6.0952,-7.984 14.2459,-18.064 23.087,-23.406 7.8117,-4.71 20.3619,-3.418 29.431,-4.451 4.7357,3.963 12.7664,-6.807 14.8731,-11.488 3.4272,-7.611 3.4272,-21.109 15.6353,-20.305 10.9478,0.719 17.445,12.465 20.5451,20.994 6.6173,18.151 8.2858,37.393 13.3516,55.917 10.4195,38.053 47.2452,30.155 80.1934,28.921 56.4973,-2.097 108.082,-5.515 161.4582,19.126 29.5121,13.642 48.2415,49.369 52.8841,79.323"
            style="fill:#485ea8;fill-opacity:1;fill-rule:nonzero;stroke:none;stroke-width:0.29357776"
            id="path9495"
            inkscape:connector-curvature="0"/><g
            id="g9497"
            transform="matrix(0.32263736,0,0,0.30876016,3179.203,10178.77)"><path
           d="m 15060.3,13470.5 457.2,-290.9 -1215.9,-1743.2 -1249.8,772.9 c -64.4,39.8 -148.6,22.9 -192.6,-38.7 l -1055.5,-1478.5 -1967.52,1379.5 c -31.9,22.4 -71.53,30.9 -109.85,23.5 -38.32,-7.5 -71.9,-30.1 -93.2,-62.8 -278.12,-427.5 -556.21,-854.9 -834.31,-1282.4 -149.1,-229.2 -314.28,-455.6 -446.61,-694.5 -25.15,-98.15 -15.86,-134.93 9.88,-179.89 46.4,-80.97 159.02,-79.59 218.36,11.58 l 1212.48,1863.71 1962.47,-1375.9 c 64.6,-45.4 153.6,-30.1 199.5,34.1 l 1060.1,1485.1 1251,-773.7 c 65,-40.2 149.9,-22.6 193.6,40 l 1300.6,1864.7 485.9,-309.2 53.9,1491.3 -1239.7,-736.7"
           style="fill:#5468ba;fill-opacity:1;fill-rule:nonzero;stroke:none"
           id="path9499"
           inkscape:connector-curvature="0" /></g><g
            id="g9501"
            transform="matrix(0.3171995,0,0,0.30355619,3179.203,10178.77)"><path
           d="m 15764.1,10365.4 c 43.4,35.3 214,-172.3 483.3,112.8 52.6,55.6 -241.6,197 -241.5,196.9 -291,182.1 -876.2,464.8 -1109.7,551.4 -229.7,85.1 -116.1,-164.5 -116.1,-164.5 217.1,-189.6 580.6,-508.9 984,-696.6"
           style="fill:#eda4b8;fill-opacity:1;fill-rule:nonzero;stroke:none"
           id="path9503"
           inkscape:connector-curvature="0" /></g><g
            id="g9505"
            transform="matrix(0.34792701,0,0,0.33296206,3179.203,10178.77)"><path
           d="m 14535.1,9828.17 c 180.6,75.11 1554.5,607.33 1653.2,426.73 111.7,-204.7 -47.3,-413.29 -637.4,-654.9 -310.4,-127.06 -638.6,-161.64 -980.6,-245.14 -22.7,140 -136.3,346.69 -35.2,473.31"
           style="fill:#e9e9e9;fill-opacity:1;fill-rule:nonzero;stroke:none"
           id="path9507"
           inkscape:connector-curvature="0" /></g><path
            d="m 7750.1865,13669.249 c 8.6432,2.383 18.6963,4.221 21.8176,3.302 35.6522,-10.77 62.2112,-21.166 90.4208,-45.348 8.853,-7.582 125.6229,-103.448 128.0839,-101.581 l -59.0603,-26.335 c -60.4405,30.04 -126.2532,51.896 -176.8505,96.411 -19.5067,17.174 -40.6639,63.584 -4.4115,73.551"
            style="fill:#eda4b8;fill-opacity:1;fill-rule:nonzero;stroke:none;stroke-width:0.29357776"
            id="path9509"
            inkscape:connector-curvature="0"/></g></g></svg>