<?xml version="1.0" encoding="UTF-8" standalone="no"?>
<!-- Created with Inkscape (http://www.inkscape.org/) -->

<svg
   xmlns:dc="http://purl.org/dc/elements/1.1/"
   xmlns:cc="http://creativecommons.org/ns#"
   xmlns:rdf="http://www.w3.org/1999/02/22-rdf-syntax-ns#"
   xmlns:svg="http://www.w3.org/2000/svg"
   xmlns="http://www.w3.org/2000/svg"
   xmlns:sodipodi="http://sodipodi.sourceforge.net/DTD/sodipodi-0.dtd"
   xmlns:inkscape="http://www.inkscape.org/namespaces/inkscape"
   version="1.1"
   id="svg3825"
   xml:space="preserve"
   width="2829.3333"
   height="2829.3333"
   viewBox="0 0 2829.3333 2829.3333"
   sodipodi:docname="59904.svg"
   inkscape:version="0.92.4 (unknown)"><metadata
     id="metadata3831"><rdf:RDF><cc:Work
         rdf:about=""><dc:format>image/svg+xml</dc:format><dc:type
           rdf:resource="http://purl.org/dc/dcmitype/StillImage" /><dc:title></dc:title></cc:Work></rdf:RDF></metadata><defs
     id="defs3829" /><sodipodi:namedview
     pagecolor="#ffffff"
     bordercolor="#666666"
     borderopacity="1"
     objecttolerance="10"
     gridtolerance="10"
     guidetolerance="10"
     inkscape:pageopacity="0"
     inkscape:pageshadow="2"
     inkscape:window-width="1920"
     inkscape:window-height="1029"
     id="namedview3827"
     showgrid="false"
     inkscape:zoom="0.30678606"
     inkscape:cx="1414.6666"
     inkscape:cy="1414.6666"
     inkscape:window-x="0"
     inkscape:window-y="28"
     inkscape:window-maximized="1"
     inkscape:current-layer="g3835" /><g
     id="g3833"
     inkscape:groupmode="layer"
     inkscape:label="ink_ext_XXXXXX"
     transform="matrix(1.3333333,0,0,-1.3333333,0,2829.3333)"><g
       id="g3835"
       transform="scale(0.1)"><g
         id="g3841"
         transform="scale(1.19913)"><path
           d="m 11412.1,5047.33 c -2699.53,0 -4887.94,296.22 -4887.94,661.56 0,365.35 2188.41,661.49 4887.94,661.49 2699.6,0 4887.9,-296.14 4887.9,-661.49 0,-365.34 -2188.3,-661.56 -4887.9,-661.56"
           style="fill:#c295d1;fill-opacity:1;fill-rule:nonzero;stroke:none"
           id="path3843"
           inkscape:connector-curvature="0" /></g><path
         d="m 8414,1487.8 c -3237.1,0 -5861.28,355.1 -5861.28,793.2 0,438.1 2624.18,793.3 5861.28,793.3 3237.1,0 5861.2,-355.2 5861.2,-793.3 0,-438.1 -2624.1,-793.2 -5861.2,-793.2"
         style="fill:#c295d1;fill-opacity:1;fill-rule:nonzero;stroke:none"
         id="path3845"
         inkscape:connector-curvature="0" /><path
         d="M 10838.5,14472.9 V 6752.3"
         style="fill:#fff8cd;fill-opacity:1;fill-rule:nonzero;stroke:none"
         id="path3847"
         inkscape:connector-curvature="0" /><path
         d="m 10804.5,6752.3 h 68.102 v 7720.58 h -68.102 z"
         style="fill:#41568b;fill-opacity:1;fill-rule:nonzero;stroke:none"
         id="path3849"
         inkscape:connector-curvature="0" /><path
         d="M 10838.5,14472.9 12212.1,6975.5"
         style="fill:#fff8cd;fill-opacity:1;fill-rule:nonzero;stroke:none"
         id="path3851"
         inkscape:connector-curvature="0" /><path
         d="m 10805,14466.7 1373.6,-7497.3 67,12.3 -1373.5,7497.3"
         style="fill:#41568b;fill-opacity:1;fill-rule:nonzero;stroke:none"
         id="path3853"
         inkscape:connector-curvature="0" /><path
         d="M 10838.5,14472.9 9375.31,7006.5"
         style="fill:#fff8cd;fill-opacity:1;fill-rule:nonzero;stroke:none"
         id="path3855"
         inkscape:connector-curvature="0" /><path
         d="M 10805.1,14479.4 9341.86,7013.1 9408.75,7000 10872,14466.3"
         style="fill:#41568b;fill-opacity:1;fill-rule:nonzero;stroke:none"
         id="path3857"
         inkscape:connector-curvature="0" /><g
         id="g3859"
         transform="scale(1.11652)"><path
           d="M 7586.6,11498.6 H 11828 V 16300 H 7586.6 v -4801.4"
           style="fill:#f7f4e0;fill-opacity:1;fill-rule:nonzero;stroke:none"
           id="path3861"
           inkscape:connector-curvature="0" /></g><g
         id="g3863"
         transform="scale(1.08819)"><path
           d="M 11337.3,14342.7 H 11637 V 16300 h -299.7 v -1957.3"
           style="fill:#8cb6e5;fill-opacity:1;fill-rule:nonzero;stroke:none"
           id="path3865"
           inkscape:connector-curvature="0" /></g><g
         id="g3867"
         transform="scale(1.0652)"><path
           d="m 11083.9,14652.3 h 306 V 16300 h -306 v -1647.7"
           style="fill:#2c3a8a;fill-opacity:1;fill-rule:nonzero;stroke:none"
           id="path3869"
           inkscape:connector-curvature="0" /></g><g
         id="g3871"
         transform="scale(1.0192)"><path
           d="m 11063.4,15313.5 h 319.8 v 986.5 h -319.8 v -986.5"
           style="fill:#fabdd6;fill-opacity:1;fill-rule:nonzero;stroke:none"
           id="path3873"
           inkscape:connector-curvature="0" /></g><path
         d="m 9749.09,14261.8 -846.03,-113.2 c -1.32,19.8 -2.29,39.9 -2.29,60.2 0,481.5 374.61,875.4 848.32,906.6 v -853.6"
         style="fill:#2c3a8a;fill-opacity:1;fill-rule:nonzero;stroke:none"
         id="path3875"
         inkscape:connector-curvature="0" /><path
         d="m 9785.68,14144.5 577.92,-656 c -153.3,-118 -345.5,-188.4 -553.89,-188.4 -440.25,0 -807.01,312.8 -890.91,728.3 l 866.88,116.1"
         style="fill:#fabdd6;fill-opacity:1;fill-rule:nonzero;stroke:none"
         id="path3877"
         inkscape:connector-curvature="0" /><path
         d="m 9870.21,14231.8 v 883.6 c 473.79,-31.2 848.19,-425.1 848.19,-906.6 0,-249.5 -100.7,-475.9 -263.8,-640.2 l -584.39,663.2"
         style="fill:#80d6f7;fill-opacity:1;fill-rule:nonzero;stroke:none"
         id="path3879"
         inkscape:connector-curvature="0" /><g
         id="g3881"
         transform="scale(1.07234)"><path
           d="M 9889.53,16300 H 8300.35 c -4.38,0 -7.94,-3.6 -7.94,-7.9 0,-4.4 3.56,-8 7.94,-8 h 1589.18 c 4.38,0 7.92,3.6 7.92,8 0,4.3 -3.54,7.9 -7.92,7.9"
           style="fill:#41568b;fill-opacity:1;fill-rule:nonzero;stroke:none"
           id="path3883"
           inkscape:connector-curvature="0" /></g><g
         id="g3885"
         transform="scale(1.04585)"><path
           d="M 10140,16300 H 8510.53 c -4.49,0 -8.14,-3.6 -8.14,-8.1 0,-4.6 3.65,-8.2 8.14,-8.2 H 10140 c 4.4,0 8.1,3.6 8.1,8.2 0,4.5 -3.7,8.1 -8.1,8.1"
           style="fill:#41568b;fill-opacity:1;fill-rule:nonzero;stroke:none"
           id="path3887"
           inkscape:connector-curvature="0" /></g><g
         id="g3889"
         transform="scale(1.01936)"><path
           d="M 10403.5,16300 H 8731.71 c -4.61,0 -8.36,-3.7 -8.36,-8.4 0,-4.6 3.75,-8.3 8.36,-8.3 h 1671.79 c 4.6,0 8.3,3.7 8.3,8.3 0,4.7 -3.7,8.4 -8.3,8.4"
           style="fill:#41568b;fill-opacity:1;fill-rule:nonzero;stroke:none"
           id="path3891"
           inkscape:connector-curvature="0" /></g><path
         d="M 10604.9,16184.2 H 8900.77 c -4.7,0 -8.52,-3.8 -8.52,-8.5 0,-4.8 3.82,-8.6 8.52,-8.6 h 1704.13 c 4.7,0 8.5,3.8 8.5,8.6 0,4.7 -3.8,8.5 -8.5,8.5"
         style="fill:#41568b;fill-opacity:1;fill-rule:nonzero;stroke:none"
         id="path3893"
         inkscape:connector-curvature="0" /><path
         d="M 10604.9,15752.4 H 8900.77 c -4.7,0 -8.52,-3.8 -8.52,-8.5 0,-4.8 3.82,-8.6 8.52,-8.6 h 1704.13 c 4.7,0 8.5,3.8 8.5,8.6 0,4.7 -3.8,8.5 -8.5,8.5"
         style="fill:#41568b;fill-opacity:1;fill-rule:nonzero;stroke:none"
         id="path3895"
         inkscape:connector-curvature="0" /><path
         d="m 12776,15136.5 h -1703.9 c -4.8,0 -8.6,-3.8 -8.6,-8.5 0,-4.7 3.8,-8.6 8.6,-8.6 H 12776 c 4.7,0 8.5,3.9 8.5,8.6 0,4.7 -3.8,8.5 -8.5,8.5"
         style="fill:#41568b;fill-opacity:1;fill-rule:nonzero;stroke:none"
         id="path3897"
         inkscape:connector-curvature="0" /><path
         d="m 12776,14704.7 h -1703.9 c -4.8,0 -8.6,-3.8 -8.6,-8.5 0,-4.7 3.8,-8.5 8.6,-8.5 H 12776 c 4.7,0 8.5,3.8 8.5,8.5 0,4.7 -3.8,8.5 -8.5,8.5"
         style="fill:#41568b;fill-opacity:1;fill-rule:nonzero;stroke:none"
         id="path3899"
         inkscape:connector-curvature="0" /><path
         d="m 12776,14273.1 h -1703.9 c -4.8,0 -8.6,-3.8 -8.6,-8.5 0,-4.8 3.8,-8.6 8.6,-8.6 H 12776 c 4.7,0 8.5,3.8 8.5,8.6 0,4.7 -3.8,8.5 -8.5,8.5"
         style="fill:#41568b;fill-opacity:1;fill-rule:nonzero;stroke:none"
         id="path3901"
         inkscape:connector-curvature="0" /><path
         d="m 12776,13841.4 h -1703.9 c -4.8,0 -8.6,-3.8 -8.6,-8.5 0,-4.7 3.8,-8.5 8.6,-8.5 H 12776 c 4.7,0 8.5,3.8 8.5,8.5 0,4.7 -3.8,8.5 -8.5,8.5"
         style="fill:#41568b;fill-opacity:1;fill-rule:nonzero;stroke:none"
         id="path3903"
         inkscape:connector-curvature="0" /><path
         d="m 12776,13409.7 h -1703.9 c -4.8,0 -8.6,-3.8 -8.6,-8.5 0,-4.7 3.8,-8.5 8.6,-8.5 H 12776 c 4.7,0 8.5,3.8 8.5,8.5 0,4.7 -3.8,8.5 -8.5,8.5"
         style="fill:#41568b;fill-opacity:1;fill-rule:nonzero;stroke:none"
         id="path3905"
         inkscape:connector-curvature="0" /><g
         id="g3907"
         transform="scale(1.06972)"><path
           d="m 14548.2,16001.7 c -22.2,-142.8 -79,-273.8 -146.7,-400.2 -44.7,-83.3 -112.3,-146.7 -166.1,-222.9 -26.6,-37.7 -49.3,-69.7 -23.3,-107.8 55.5,-81.4 203,-93.4 293.4,-95 58.9,-1.1 111.3,3.5 165.3,29 81.1,38.1 94,97.4 118.9,178 42.5,137.8 53.9,286.1 56.6,430.2 1.2,77.8 6.8,161.3 2.4,238.6 -2.4,45.3 -13.5,93.8 -40.4,129.3 -38.7,51 -148.6,119.1 -215.6,79.5 -58.6,-34.7 -35,-199 -44.5,-258.7"
           style="fill:#191b38;fill-opacity:1;fill-rule:nonzero;stroke:none"
           id="path3909"
           inkscape:connector-curvature="0" /></g><path
         d="m 13396.5,14373.2 c 32.1,-102.7 -52.2,-216.8 -188.3,-255.2 -5.3,-1.4 -10.3,-2.4 -15.5,-3.5 l 0.2,-0.3 c 0,0 -3.1,-0.6 -8.4,-1.8 l -0.4,-0.1 c -8.9,-1.8 -23.1,-4.6 -41.4,-8 -72.4,-13.5 -286.6,326.4 -208,341 34,6.3 65.9,11.4 92.9,15.1 -36.6,16 -72.2,33.6 -85.2,47.1 -9.8,10.4 -15.1,64.9 2.3,74.6 58.8,33 356.6,-105.6 356.6,-105.6 v -0.1 c 46.2,-22.1 81,-57.6 95.2,-103.2"
         style="fill:#f8a27d;fill-opacity:1;fill-rule:nonzero;stroke:none"
         id="path3911"
         inkscape:connector-curvature="0" /><g
         id="g3913"
         transform="scale(1.03225)"><path
           d="m 14273.4,14226.4 c -23.4,-124.5 -52.7,-224.1 112.7,-255.4 165.4,-31.2 318.3,44.2 342,168.7 0,0 623.4,1670.9 613,1883.6 -10.4,212.5 -103.5,229.5 -325.7,271.5 -112.4,5.2 -411.6,-302.5 -440.8,-455 l -301.2,-1613.4"
           style="fill:#8cb6e5;fill-opacity:1;fill-rule:nonzero;stroke:none"
           id="path3915"
           inkscape:connector-curvature="0" /></g><path
         d="m 13267.3,14484.6 1687.1,394.4 c 130.3,11.6 247,54.2 262.5,-118.7 15.7,-172.9 -77.3,-322.7 -207.5,-334.4 l -1712,-276.2 -30.1,334.9"
         style="fill:#8cb6e5;fill-opacity:1;fill-rule:nonzero;stroke:none"
         id="path3917"
         inkscape:connector-curvature="0" /><path
         d="m 13176.2,13969.2 87.3,57.7 -1365.7,2006.9 -34.9,-23.1 1313.3,-2041.5"
         style="fill:#6d432c;fill-opacity:1;fill-rule:nonzero;stroke:none"
         id="path3919"
         inkscape:connector-curvature="0" /><path
         d="m 13039.2,14422.5 c 41.2,-40.9 73.4,-98.2 93.3,-138.6 26.5,-54.2 41,-116.6 -1.6,-166.1 -37.9,-43.7 -118.8,-89.9 -167,-30.8 -49.6,60.8 -79.9,154.2 -105.1,227.5 -14.3,41.7 -22.5,119.7 23.9,144.4 59.7,32 113.1,6.8 156.5,-36.4"
         style="fill:#f8a27d;fill-opacity:1;fill-rule:nonzero;stroke:none"
         id="path3921"
         inkscape:connector-curvature="0" /><g
         id="g3923"
         transform="scale(1.04683)"><path
           d="m 15114.2,12751.6 h 324 l 731.3,-33.6 c 46.8,-231.7 130.5,-483.5 65.9,-665.9 -87.1,-246 -257.6,-369.7 -458.6,-369.7 h -338.6 -324 -338.5 c -202.9,0 -374.5,160.4 -461.2,410.7 -62.9,181.4 26.9,388.1 98.3,658.5 h 701.4"
           style="fill:#41568b;fill-opacity:1;fill-rule:nonzero;stroke:none"
           id="path3925"
           inkscape:connector-curvature="0" /></g><path
         d="m 14719.5,6839.3 c 121.6,-138.9 65.2,-356.9 -103.9,-359.3 -168.7,-2.7 -948.6,-65 -930.7,89.9 4.1,35.8 376.7,195.9 634.7,281.9 215.1,72 313.1,86.6 399.9,-12.5"
         style="fill:#191b38;fill-opacity:1;fill-rule:nonzero;stroke:none"
         id="path3927"
         inkscape:connector-curvature="0" /><path
         d="m 14316.3,6848.6 c 0,0 52.5,174.2 32.3,446.9 l 323.4,-8 c -7.4,-278.8 12.5,-420.8 12.5,-420.8 0,0 -109.6,-145.6 -350.6,-122.8 -241.2,22.9 -17.6,104.7 -17.6,104.7"
         style="fill:#f8a27d;fill-opacity:1;fill-rule:nonzero;stroke:none"
         id="path3929"
         inkscape:connector-curvature="0" /><path
         d="m 14990,12996.5 -816,-2935.2 c -61.8,-189.7 13.3,-450.9 193,-510.4 179.8,-59.6 395.9,105.3 482.9,367.9 l 1114.7,2672.3 -974.6,405.4"
         style="fill:#41568b;fill-opacity:1;fill-rule:nonzero;stroke:none"
         id="path3931"
         inkscape:connector-curvature="0" /><path
         d="m 14685.6,6917.3 172.4,3071.8 c -2,276.7 -157.1,499.9 -346.4,498.5 -189.2,-1.3 -341.1,-226.9 -339.1,-503.6 l 131.2,-3069.5 381.9,2.8"
         style="fill:#41568b;fill-opacity:1;fill-rule:nonzero;stroke:none"
         id="path3933"
         inkscape:connector-curvature="0" /><g
         id="g3935"
         transform="scale(1.17082)"><path
           d="m 16097.8,6208.03 c 149.6,-49.79 202.2,-234.62 79,-309.61 -123.4,-74.9 -670.9,-457.88 -724.7,-336 -12.4,28.01 192.8,307.13 345.5,481.96 127.5,145.97 193.4,199.18 300.2,163.65"
           style="fill:#191b38;fill-opacity:1;fill-rule:nonzero;stroke:none"
           id="path3937"
           inkscape:connector-curvature="0" /></g><g
         id="g3939"
         transform="scale(1.15359)"><path
           d="m 16032.7,6130.78 c 0,0 -37.2,153.26 -171.9,348.3 l 245.4,135.84 c 116.6,-211.51 193.8,-309.04 193.8,-309.04 0,0 -17.9,-156.9 -208.3,-245.57 -190.3,-88.69 -59,70.47 -59,70.47"
           style="fill:#f8a27d;fill-opacity:1;fill-rule:nonzero;stroke:none"
           id="path3941"
           inkscape:connector-curvature="0" /></g><g
         id="g3943"
         transform="scale(1.07112)"><path
           d="m 14771.7,11702.3 862.6,-2579.95 c 39.9,-181.87 224,-356.73 396.7,-319.86 172.7,37.16 269,271.87 214.9,524.6 l -365.3,2678.41 -1108.9,-303.2"
           style="fill:#41568b;fill-opacity:1;fill-rule:nonzero;stroke:none"
           id="path3945"
           inkscape:connector-curvature="0" /></g><g
         id="g3947"
         transform="scale(1.15207)"><path
           d="m 16300,6352.55 -1220.4,2375.19 c -123.1,206.32 -337.2,305.36 -478.4,221.08 -141.1,-84.2 -155.8,-319.6 -32.6,-525.92 l 1446.8,-2240.22 284.6,169.87"
           style="fill:#41568b;fill-opacity:1;fill-rule:nonzero;stroke:none"
           id="path3949"
           inkscape:connector-curvature="0" /></g><g
         id="g3951"
         transform="scale(1.04877)"><path
           d="m 14621.4,14455.3 c -263.8,817.5 -15,1387.9 -15,1387.9 l 448.4,223.9 h 391.5 l 448.7,-223.9 c 0,0 405,-589.2 141.5,-1406.7 -219.5,-679.7 218,-1843.6 218,-1843.6 0,0 -452.5,-180 -1003.7,-200.8 -551.6,20.8 -1061.1,200.8 -1061.1,200.8 0,0 651,1182.7 431.7,1862.4"
           style="fill:#8cb6e5;fill-opacity:1;fill-rule:nonzero;stroke:none"
           id="path3953"
           inkscape:connector-curvature="0" /></g><g
         id="g3955"
         transform="scale(1.03471)"><path
           d="m 15066.3,14651.9 c -126.9,828.5 20.7,1547.4 20.7,1547.4 l 196.9,100.7 372.4,-14.4 82.6,-41.2 c 0,0 11.9,-764 -114.8,-1592.5 -105.5,-689 211.6,-2058.5 211.6,-2058.5 0,0 -192.6,-60.7 -466.9,-32.8 -265.1,21 -652,108.2 -652,108.2 0,0 455,1294.1 349.5,1983.1"
           style="fill:#ffffff;fill-opacity:1;fill-rule:nonzero;stroke:none"
           id="path3957"
           inkscape:connector-curvature="0" /></g><g
         id="g3959"
         transform="scale(1.09325)"><path
           d="m 16075.8,11834.5 c 96.9,16.8 190.3,-73.4 208.6,-201.4 0.7,-5 1.1,-9.7 1.4,-14.3 h 0.3 c 0,0 0.2,-2.9 0.6,-7.8 v -0.8 c 3,-39.6 13.3,-209.3 -6.2,-316.6 -5.6,-31.6 -13.9,-57.8 -25.7,-73.5 -18.2,-24.3 -73.5,-37.4 -123.7,-37.6 -4.3,-0.1 -21.6,0.7 -25.8,1 -23.3,2.3 -115.4,0.4 -120.8,20.7 -24.7,91 -31.7,223.4 -32.3,306.4 -18.8,-31.3 -39.1,-61.6 -52.9,-71.6 -10.5,-7.7 -60.8,-5.9 -67.4,11 -22.8,57.3 138.8,310.7 138.8,310.7 l 0.1,-0.1 c 25.5,39.3 61.9,66.6 105,73.9"
           style="fill:#f8a27d;fill-opacity:1;fill-rule:nonzero;stroke:none"
           id="path3961"
           inkscape:connector-curvature="0" /></g><g
         id="g3963"
         transform="scale(1.09092)"><path
           d="m 15859.6,13218.7 c 59.3,-104.3 99.2,-193.9 237.7,-115.4 138.4,78.5 202.7,226.6 143.8,331 0,0 -572.1,1587.6 -709.7,1734.7 -137.4,147 -215.2,102.4 -401.1,-3.2 -84.5,-65 -112.3,-470.1 -40,-598.1 l 769.3,-1349"
           style="fill:#8cb6e5;fill-opacity:1;fill-rule:nonzero;stroke:none"
           id="path3965"
           inkscape:connector-curvature="0" /></g><g
         id="g3967"
         transform="scale(1.091)"><path
           d="m 15992.1,11754.9 -155,1580.6 c 5.1,119.8 -19.5,231 139.5,224.2 159,-6.7 283.9,-109.1 278.9,-228.9 l 44.5,-1588.8 -307.9,12.9"
           style="fill:#8cb6e5;fill-opacity:1;fill-rule:nonzero;stroke:none"
           id="path3969"
           inkscape:connector-curvature="0" /></g><g
         id="g3971"
         transform="scale(1.14008)"><path
           d="m 13878.9,16297.5 c -122,2.5 -421,-113.5 -500.6,-281.5 -44.8,-94.8 43.9,-342.3 155.5,-385.3 36.7,-14.1 74.7,50.1 95.9,80.2 18.9,26.8 29.3,111.4 40.8,146.5 17.1,51.9 41.1,96.5 56.3,147.2 10.2,34.3 14.8,96 38.2,118.8 l 113.9,174.1"
           style="fill:#191b38;fill-opacity:1;fill-rule:nonzero;stroke:none"
           id="path3973"
           inkscape:connector-curvature="0" /></g><g
         id="g3975"
         transform="scale(1.07724)"><path
           d="m 14629.6,16300 h 444.3 v -730.2 l -385.8,-582.7 -58.5,582.7 v 730.2"
           style="fill:#e68771;fill-opacity:1;fill-rule:nonzero;stroke:none"
           id="path3977"
           inkscape:connector-curvature="0" /></g><g
         id="g3979"
         transform="scale(1.12022)"><path
           d="m 14461.5,15322 c 0,0 -261.8,-253.7 -452.5,-260.5 -115.5,-4 -325.4,379.5 -324.2,427.7 9.2,381.6 162.5,810.8 162.5,810.8 h 759 l -144.8,-978"
           style="fill:#f8a27d;fill-opacity:1;fill-rule:nonzero;stroke:none"
           id="path3981"
           inkscape:connector-curvature="0" /></g><g
         id="g3983"
         transform="scale(1.16277)"><path
           d="m 13965.2,14790.6 c -12.9,44.3 5.9,132.7 -11,222.2 74.2,35.9 16.9,64.7 -87.5,137.6 -72.8,-4.7 -522.1,269.1 -549,536.3 0,0 265.5,613.3 788.2,181.1 522.7,-432.1 -140.7,-1077.2 -140.7,-1077.2"
           style="fill:#191b38;fill-opacity:1;fill-rule:nonzero;stroke:none"
           id="path3985"
           inkscape:connector-curvature="0" /></g><g
         id="g3987"
         transform="scale(1.1256)"><path
           d="m 14789.4,15770.4 c -1.7,-12.3 -3.6,-24.3 -5.4,-35.8 -47.5,-303.8 52.5,-491 166.6,-791.2 30.7,-80.8 72.9,-156 112.9,-232.4 38.8,-74.2 118.7,-137 109.2,-223.1 -7.4,-67.2 -147.3,-79.2 -199.4,-74.1 -99.5,9.9 -186.8,67.1 -289.3,52.8 -189,-26.5 -413.5,-246.9 -586,-43.7 -89.5,105.4 -38.4,259.9 14.8,370.2 128,265.1 296.7,508.7 335,807.4 19.2,150.9 5.8,303.6 91.5,436.2 34.3,53.1 111.9,263.3 184.1,173.2 77.8,-96.9 82.9,-318.3 66,-439.5"
           style="fill:#191b38;fill-opacity:1;fill-rule:nonzero;stroke:none"
           id="path3989"
           inkscape:connector-curvature="0" /></g><g
         id="g3991"
         transform="scale(1.08692)"><path
           d="m 15048.7,16161.3 c 0,-76.8 -46,-138.9 -102.7,-138.9 -56.8,0 -102.9,62.1 -102.9,138.9 0,76.6 46.1,138.7 102.9,138.7 56.7,0 102.7,-62.1 102.7,-138.7"
           style="fill:#f8a27d;fill-opacity:1;fill-rule:nonzero;stroke:none"
           id="path3993"
           inkscape:connector-curvature="0" /></g><g
         id="g3995"
         transform="scale(1.064)"><path
           d="m 14597.6,16299.9 c 0,0 178.3,-36.4 301,0.1 0,0 -48.1,-179.5 -145.7,-181.1 -105.4,-1.7 -155.3,181 -155.3,181"
           style="fill:#ffffff;fill-opacity:1;fill-rule:nonzero;stroke:none"
           id="path3997"
           inkscape:connector-curvature="0" /></g><g
         id="g3999"
         transform="scale(1.07705)"><path
           d="m 14535.8,16300 c 0,0 1.7,-12.1 -1.2,-29.8 -2.7,-17.4 -10.1,-40.6 -19.7,-60.7 -0.9,-1.1 -2.3,-7.8 -1.7,-1.4 0.5,-3.8 0.6,-2.6 0.9,-4.4 0.9,-1.4 1.5,-3 5,-4.4 6.9,-2.3 16.9,-3.5 25,-3.1 16.7,0.3 29,0.1 29,0.1 0,0 -9.5,-7.7 -26.5,-14.1 -8.7,-2.4 -18.9,-6.8 -33.2,-4.2 -7,1.1 -16.3,6 -20.7,14.8 -2,3.3 -3.6,10 -3.7,11.8 0,12.3 2.2,10.8 3.2,14.9 9.7,21.4 21.4,40 29.3,55.2 8.4,14.8 14.3,25.3 14.3,25.3"
           style="fill:#e68771;fill-opacity:1;fill-rule:nonzero;stroke:none"
           id="path4001"
           inkscape:connector-curvature="0" /></g><g
         id="g4003"
         transform="scale(1.08531)"><path
           d="m 14268.7,16246 c 2.8,-27 17.9,-47.7 33.5,-46.1 15.7,1.8 26.1,25.2 23.2,52.3 -3,27.1 -17.9,47.8 -33.7,45.9 -15.6,-1.6 -26.1,-24.9 -23,-52.1"
           style="fill:#191b38;fill-opacity:1;fill-rule:nonzero;stroke:none"
           id="path4005"
           inkscape:connector-curvature="0" /></g><g
         id="g4007"
         transform="scale(1.08404)"><path
           d="m 14618.2,16240.3 c 3.2,-30.1 19.9,-53 37.3,-51.1 17.4,1.9 28.8,27.7 25.6,57.8 -3.2,30.2 -19.9,53 -37.4,51.1 -17.2,-1.9 -28.8,-27.7 -25.5,-57.8"
           style="fill:#191b38;fill-opacity:1;fill-rule:nonzero;stroke:none"
           id="path4009"
           inkscape:connector-curvature="0" /></g><g
         id="g4011"
         transform="scale(1.09504)"><path
           d="m 14204.7,16273.1 c 0,0 -2.2,0.1 -5.8,0.8 -3.4,0.5 -9.1,2.5 -14.6,2.6 -5.4,0.3 -10.8,0.7 -17.4,-0.2 -6.4,0.2 -12.6,-1.7 -18.9,-2.7 -5.5,-2.3 -11.8,-3.8 -16,-7.5 -5.5,-2.4 -8.4,-7 -12.2,-10.8 -2.1,-1.9 -2.3,-4.4 -3.8,-6.3 -1.1,-2.1 -2.1,-4 -2.9,-5.5 -1.7,-3.2 -3.1,-5.2 -3.1,-5.2 0,0 -0.8,1.9 -1.6,5.5 -0.4,2 -0.8,4.3 -1.2,6.9 -0.3,2.8 -1.8,6.2 -0.3,9.4 2.3,6.2 3.3,15.8 10.6,21.9 3.3,3.2 6.2,7.6 10.8,9.1 4.3,2.1 8.7,4.4 13.2,6.1 l 14,1.8 c 4.6,1 9,-0.9 13.2,-1.3 8.3,-0.7 16,-6 21.9,-9.1 6.1,-2.9 7.9,-8.3 10.7,-10.7 2.3,-2.9 3.4,-4.8 3.4,-4.8"
           style="fill:#191b38;fill-opacity:1;fill-rule:nonzero;stroke:none"
           id="path4013"
           inkscape:connector-curvature="0" /></g><g
         id="g4015"
         transform="scale(1.09255)"><path
           d="m 14517,16278.6 c 0,0 1.3,1.8 3.9,4.4 3.1,2.1 5.6,7.2 12,9.4 6.2,2.3 14.3,6.7 22.9,6.4 4.2,-0.1 8.9,1.2 13.4,-0.4 l 13.6,-3.4 c 4.3,-2.2 8.3,-5 12.3,-7.6 4.4,-2 6.8,-6.7 9.8,-10.3 6.5,-6.9 6.3,-16.7 7.9,-23.1 1.2,-3.3 -0.8,-6.6 -1.3,-9.3 -0.8,-2.6 -1.5,-4.8 -2.1,-6.7 -1.3,-3.5 -2.3,-5.3 -2.3,-5.3 0,0 -1.1,2.2 -2.4,5.5 -0.7,1.6 -1.4,3.6 -2.3,5.8 -1.2,2.1 -1.1,4.6 -3,6.7 -3.3,4.3 -5.8,9.2 -10.9,12.3 -3.7,4.1 -9.8,6.3 -15,9.3 -6.1,1.7 -12.1,4.4 -18.5,4.9 -6.4,1.7 -11.8,1.9 -17.3,2.3 -5.5,0.6 -11.3,-0.7 -14.9,-0.8 -3.7,-0.3 -5.8,-0.1 -5.8,-0.1"
           style="fill:#191b38;fill-opacity:1;fill-rule:nonzero;stroke:none"
           id="path4017"
           inkscape:connector-curvature="0" /></g><g
         id="g4019"
         transform="scale(1.06989)"><path
           d="m 15183.9,16218.8 h 37.6 v 81.2 h -37.6 v -81.2"
           style="fill:#41568b;fill-opacity:1;fill-rule:nonzero;stroke:none"
           id="path4021"
           inkscape:connector-curvature="0" /></g><path
         d="m 8305.94,7707.9 c 0,-150.5 123.12,-273.7 273.66,-273.7 h 2293.6 c 150.5,0 273.6,123.2 273.6,273.7 v 1390.4 c 0,150.5 -123.1,273.6 -273.6,273.6 H 8579.6 c -150.54,0 -273.66,-123.1 -273.66,-273.6 V 7707.9"
         style="fill:#41568b;fill-opacity:1;fill-rule:nonzero;stroke:none"
         id="path4023"
         inkscape:connector-curvature="0" /><path
         d="m 11123.1,7606.3 v 0 c 0,-189.3 -154.8,-344.1 -344.1,-344.1 H 7895.37 c -189.23,0 -344.06,154.8 -344.06,344.1 h 3571.79"
         style="fill:#2c3a8a;fill-opacity:1;fill-rule:nonzero;stroke:none"
         id="path4025"
         inkscape:connector-curvature="0" /><path
         d="m 9708.56,7606.3 v 0 c 0,-39.4 -32.21,-71.6 -71.52,-71.6 h -599.66 c -39.26,0 -71.52,32.2 -71.52,71.6 h 742.7"
         style="fill:#fab80a;fill-opacity:1;fill-rule:nonzero;stroke:none"
         id="path4027"
         inkscape:connector-curvature="0" /><path
         d="M 8413.96,7834.2 H 11038.8 V 9123.7 H 8413.96 V 7834.2"
         style="fill:#fff8cd;fill-opacity:1;fill-rule:nonzero;stroke:none"
         id="path4029"
         inkscape:connector-curvature="0" /><path
         d="m 9690.97,9252.1 c 0,-19.6 15.84,-35.4 35.32,-35.4 19.59,0 35.47,15.8 35.47,35.4 0,19.6 -15.88,35.3 -35.47,35.3 -19.48,0 -35.32,-15.7 -35.32,-35.3"
         style="fill:#fab80a;fill-opacity:1;fill-rule:nonzero;stroke:none"
         id="path4031"
         inkscape:connector-curvature="0" /><path
         d="m 3433.24,1999.6 h -117.12 l -180.9,5061.3 H 3614.2 L 3433.24,1999.6"
         style="fill:#b75c0e;fill-opacity:1;fill-rule:nonzero;stroke:none"
         id="path4033"
         inkscape:connector-curvature="0" /><path
         d="m 13253.2,1999.6 h -117.1 l -181,5061.3 h 478.9 l -180.8,-5061.3"
         style="fill:#b75c0e;fill-opacity:1;fill-rule:nonzero;stroke:none"
         id="path4035"
         inkscape:connector-curvature="0" /><path
         d="M 13941.5,7002.2 H 2586.97 v 301 H 13941.5 v -301"
         style="fill:#ca6610;fill-opacity:1;fill-rule:nonzero;stroke:none"
         id="path4037"
         inkscape:connector-curvature="0" /><path
         d="m 10247.7,2905.5 c 63.6,8.6 175.7,-7.9 236.1,-40.8 84.7,-45.8 -175.8,-257.1 -224.8,-300.1 -38.6,-33.8 -205.7,-53.9 -254.2,-53.4 -85.77,0.7 -38.02,32.7 -64.62,123.6 -15.89,54.4 -0.59,160.5 44.72,199.7 63.5,55 183.6,60.4 262.8,71"
         style="fill:#191b38;fill-opacity:1;fill-rule:nonzero;stroke:none"
         id="path4039"
         inkscape:connector-curvature="0" /><path
         d="m 7237.55,7162.3 h -317.66 l -717.37,-32.8 c -113.13,-224.4 -128.03,-474.2 -64.7,-653.3 85.36,-241.3 252.76,-362.8 449.89,-362.8 h 332.18 317.66 332.27 c 199.17,0 367.45,157.5 452.52,403 61.68,177.9 -26.41,380.7 -96.47,645.9 h -688.32"
         style="fill:#2c3a8a;fill-opacity:1;fill-rule:nonzero;stroke:none"
         id="path4041"
         inkscape:connector-curvature="0" /><path
         d="m 10160.1,2863.6 c 0,0 -49.9,163.1 -32.2,418.7 l -303,-8.8 c 8.09,-261.2 -9.94,-394.3 -9.94,-394.3 0,0 103.1,-136.2 329.04,-113.7 225.9,22.4 16.1,98.1 16.1,98.1"
         style="fill:#f8a27d;fill-opacity:1;fill-rule:nonzero;stroke:none"
         id="path4043"
         inkscape:connector-curvature="0" /><path
         d="m 7181.52,7275.4 2777.17,-948.7 c 181.31,-45.7 351.01,-235.7 308.41,-407.9 -42.5,-172.3 -281.03,-261.5 -532.91,-199.4 l -2675.74,450.4 123.07,1105.6"
         style="fill:#2c3a8a;fill-opacity:1;fill-rule:nonzero;stroke:none"
         id="path4045"
         inkscape:connector-curvature="0" /><path
         d="m 9813.7,2926.6 -173.55,2878 c 0.78,259.4 145.19,469.2 322.63,468.6 177.32,-0.5 320.62,-211.3 319.82,-470.6 l -111,-2877.2 -357.9,1.2"
         style="fill:#2c3a8a;fill-opacity:1;fill-rule:nonzero;stroke:none"
         id="path4047"
         inkscape:connector-curvature="0" /><path
         d="m 9782.23,2843.3 c -113.43,-130.7 -59.44,-328.6 98.6,-336.3 501.47,-24.7 434.07,149.5 517.17,347.3 12.8,30.6 -56.1,3.2 -237.9,9.3 -77.1,2.7 -127.7,19.9 -186.6,20.6 -108.35,1.3 -139.63,18.6 -191.27,-40.9"
         style="fill:#191b38;fill-opacity:1;fill-rule:nonzero;stroke:none"
         id="path4049"
         inkscape:connector-curvature="0" /><path
         d="m 7724.46,3386.1 c 63.63,8.6 175.73,-8 236.1,-40.8 84.68,-45.8 -175.69,-257.1 -224.8,-300.1 -38.58,-33.9 -205.69,-53.9 -254.22,-53.4 -85.75,0.6 -38,32.8 -64.61,123.6 -15.87,54.4 -0.58,160.5 44.73,199.7 63.53,54.9 183.58,60.4 262.8,71"
         style="fill:#191b38;fill-opacity:1;fill-rule:nonzero;stroke:none"
         id="path4051"
         inkscape:connector-curvature="0" /><path
         d="m 7636.86,3344.3 c 0,0 -49.89,163 -32.15,418.6 l -303.05,-8.9 c 8.09,-261.1 -9.94,-394.2 -9.94,-394.2 0,0 103.1,-136.2 329.16,-113.7 225.87,22.4 15.98,98.2 15.98,98.2"
         style="fill:#f8a27d;fill-opacity:1;fill-rule:nonzero;stroke:none"
         id="path4053"
         inkscape:connector-curvature="0" /><path
         d="m 6236.92,7109 1198.63,-301.7 c 181.24,-45.7 350.88,-235.7 308.3,-408 -42.48,-172.2 -281.02,-261.5 -532.91,-199.3 l -1073.12,276.2 99.1,632.8"
         style="fill:#2c3a8a;fill-opacity:1;fill-rule:nonzero;stroke:none"
         id="path4055"
         inkscape:connector-curvature="0" /><path
         d="m 7290.46,3407.2 -173.55,2878 c 0.79,259.4 145.29,469.2 322.63,468.6 177.44,-0.6 320.63,-211.3 319.8,-470.7 L 7648.36,3406 l -357.9,1.2"
         style="fill:#2c3a8a;fill-opacity:1;fill-rule:nonzero;stroke:none"
         id="path4057"
         inkscape:connector-curvature="0" /><path
         d="m 7258.98,3323.8 c -113.42,-130.6 -59.44,-328.5 98.71,-336.2 501.33,-24.8 434,149.4 517.02,347.3 12.87,30.6 -56.03,3.1 -237.85,9.4 -77.08,2.5 -127.7,19.7 -186.6,20.4 -108.35,1.4 -139.63,18.6 -191.28,-40.9"
         style="fill:#191b38;fill-opacity:1;fill-rule:nonzero;stroke:none"
         id="path4059"
         inkscape:connector-curvature="0" /><path
         d="m 6779.87,7868 c -63.83,-89.7 -17.74,-227.8 102.7,-308.1 4.67,-3.2 9.16,-5.7 13.74,-8.4 l -0.2,-0.2 c 0,0 2.93,-1.6 7.65,-4.4 l 0.73,-0.4 c 38.69,-22.1 205.12,-114.5 322.92,-146.7 34.59,-9.6 64.99,-13.8 86.63,-9.6 33.42,6.6 73.47,56.3 97.93,106.8 2.14,4.3 9.74,22.2 11.4,26.7 8.96,24.5 55.34,116.7 37.41,132.1 -80,68.8 -210.37,140 -293.93,180.4 40.68,4 81.02,9.9 97.84,19 12.9,7 35.32,58.4 21.58,73.3 -46.87,50.7 -381,10.1 -381,10.1 l 0.1,-0.1 c -52.04,-7 -97.3,-30.6 -125.5,-70.5"
         style="fill:#8e593b;fill-opacity:1;fill-rule:nonzero;stroke:none"
         id="path4061"
         inkscape:connector-curvature="0" /><path
         d="m 5495.59,8512.3 c -83.7,-104.6 -143.73,-196.3 -282.58,-85.2 -138.86,111.1 -183.53,285.9 -99.88,390.5 0,0 912.54,1650.6 1090.27,1788.5 177.83,138 255.69,74.9 442.29,-74.4 81.46,-86.8 -35.47,-307.8 -138.07,-436 L 5495.59,8512.3"
         style="fill:#ffffff;fill-opacity:1;fill-rule:nonzero;stroke:none"
         id="path4063"
         inkscape:connector-curvature="0" /><path
         d="m 6941.13,7935.7 -1519.06,918.4 c -123.22,52.7 -223.39,131.1 -293.3,-32.5 -69.91,-163.5 -26.84,-338.7 96.32,-391.4 l 1580.5,-811.2 135.54,316.7"
         style="fill:#ffffff;fill-opacity:1;fill-rule:nonzero;stroke:none"
         id="path4065"
         inkscape:connector-curvature="0" /><path
         d="m 7362.27,11678.4 -15.31,-0.8 c 0.18,-3.3 0.27,-6.5 0.27,-9.8 0,-44.8 -16.82,-85.8 -44.39,-116.2 -27.61,-30.3 -65.72,-50 -108.81,-52.3 -2.93,-0.2 -5.84,-0.3 -8.74,-0.3 -42.77,0 -82.1,17.4 -111.57,46.2 -29.44,28.9 -48.81,69.1 -51.31,114.6 -0.19,3.4 -0.28,6.7 -0.28,10 0,44.8 16.81,85.7 44.37,116.1 27.6,30.3 65.72,49.9 108.84,52.3 2.93,0.1 5.84,0.2 8.72,0.2 42.78,0 82.12,-17.4 111.6,-46.2 29.45,-28.9 48.82,-69.1 51.3,-114.6 l 15.31,0.8 15.31,0.9 c -2.9,53.2 -25.65,100.6 -60.46,134.8 -34.79,34.1 -81.86,55 -133.06,55 -3.45,0 -6.92,-0.1 -10.41,-0.3 -51.51,-2.8 -97.25,-26.4 -129.84,-62.3 -32.62,-35.9 -52.34,-84.2 -52.34,-136.7 0,-3.9 0.1,-7.8 0.32,-11.7 2.92,-53.2 25.66,-100.7 60.47,-134.8 34.78,-34.1 81.84,-54.9 133.03,-54.9 3.45,0 6.93,0.1 10.42,0.3 51.5,2.8 97.24,26.4 129.83,62.3 32.62,35.9 52.35,84.3 52.35,136.8 0,3.8 -0.1,7.6 -0.31,11.5 l -15.31,-0.9"
         style="fill:#fab80a;fill-opacity:1;fill-rule:nonzero;stroke:none"
         id="path4067"
         inkscape:connector-curvature="0" /><path
         d="m 7789.99,11701.9 -15.31,-0.8 c 0.18,-3.3 0.27,-6.6 0.27,-9.9 0,-44.8 -16.83,-85.7 -44.42,-116.1 -27.62,-30.3 -65.75,-50 -108.84,-52.3 -2.95,-0.2 -5.88,-0.3 -8.8,-0.3 -42.74,0 -82.04,17.4 -111.5,46.3 -29.43,28.8 -48.8,69 -51.32,114.5 -0.18,3.3 -0.27,6.6 -0.27,9.9 0,44.8 16.82,85.8 44.42,116.1 27.62,30.4 65.77,50 108.89,52.4 2.93,0.1 5.83,0.2 8.72,0.2 42.72,0 82.04,-17.3 111.52,-46.2 29.45,-28.9 48.83,-69.1 51.33,-114.6 l 15.31,0.8 15.31,0.9 c -2.92,53.2 -25.68,100.7 -60.49,134.8 -34.78,34.1 -81.83,55 -132.98,55 -3.45,0 -6.92,-0.1 -10.41,-0.3 -51.52,-2.8 -97.27,-26.4 -129.89,-62.3 -32.64,-35.9 -52.4,-84.2 -52.4,-136.8 0,-3.8 0.11,-7.7 0.33,-11.6 2.94,-53.2 25.68,-100.6 60.46,-134.7 34.76,-34.1 81.79,-55.1 132.97,-55 3.48,0 6.98,0 10.5,0.2 51.48,2.9 97.22,26.5 129.83,62.4 32.64,35.9 52.4,84.2 52.4,136.7 0,3.9 -0.11,7.7 -0.32,11.6 l -15.31,-0.9"
         style="fill:#fab80a;fill-opacity:1;fill-rule:nonzero;stroke:none"
         id="path4069"
         inkscape:connector-curvature="0" /><path
         d="m 6837.06,11769.1 178.37,-97.3 -16.66,-25.7 z"
         style="fill:#fab80a;fill-opacity:1;fill-rule:nonzero;stroke:none"
         id="path4071"
         inkscape:connector-curvature="0" /><path
         d="m 7363.11,11663.2 72.5,3.9 -1.69,30.7 -72.49,-4"
         style="fill:#fab80a;fill-opacity:1;fill-rule:nonzero;stroke:none"
         id="path4073"
         inkscape:connector-curvature="0" /><path
         d="m 7294.74,10821.5 -64.6,-643.2 -425.91,643.2 v 805.8 h 490.51 v -805.8"
         style="fill:#6d432c;fill-opacity:1;fill-rule:nonzero;stroke:none"
         id="path4075"
         inkscape:connector-curvature="0" /><path
         d="m 6870.58,11224.9 c 0,0 298.86,-289.9 516.93,-297.5 132.03,-4.7 371.73,433.5 370.47,488.5 -10.52,436 -185.82,926.4 -185.82,926.4 h -867.03 l 165.45,-1117.4"
         style="fill:#8e593b;fill-opacity:1;fill-rule:nonzero;stroke:none"
         id="path4077"
         inkscape:connector-curvature="0" /><path
         d="m 7362.56,11615.3 c 0,-85.1 51.06,-153.9 114.01,-153.9 62.94,0 114.01,68.8 114.01,153.9 0,84.9 -51.07,153.8 -114.01,153.8 -62.95,0 -114.01,-68.9 -114.01,-153.8"
         style="fill:#8e593b;fill-opacity:1;fill-rule:nonzero;stroke:none"
         id="path4079"
         inkscape:connector-curvature="0" /><path
         d="m 9881.32,9979.8 c 76.79,-78.9 220.78,-58.5 321.58,45.4 4,4.1 7.3,8.1 10.7,12 l 0.3,-0.1 c 0,0 2,2.4 5.6,6.6 l 0.6,0.7 c 28.6,34.1 149.7,181.1 202.6,291.1 15.6,32.3 25.3,61.4 25,83.4 -0.3,34.1 -42,82.5 -87.3,115.7 -3.9,2.8 -20.1,13.5 -24.2,16 -22.4,13.2 -104.7,75.4 -123.1,60.7 -82.1,-66.2 -175.7,-181.7 -230.64,-256.5 3.52,40.7 4.98,81.5 -0.97,99.6 -4.58,14 -51.16,45.4 -68.21,34.5 -58.36,-37 -78.68,-372.9 -78.68,-372.9 l 0.15,0.1 c -2.59,-52.5 12.47,-101.3 46.57,-136.3"
         style="fill:#8e593b;fill-opacity:1;fill-rule:nonzero;stroke:none"
         id="path4081"
         inkscape:connector-curvature="0" /><path
         d="m 9013.9,8798.5 c 60.9,-119.4 119.85,-211.8 -38.59,-292.6 -158.43,-80.9 -336.17,-49.7 -397.07,69.6 0,0 -1128.66,1511 -1181.28,1729.8 -52.57,218.9 36.93,263.8 249.84,372.5 112.64,38.4 266.02,-159.1 340.66,-305.4 L 9013.9,8798.5"
         style="fill:#ffffff;fill-opacity:1;fill-rule:nonzero;stroke:none"
         id="path4083"
         inkscape:connector-curvature="0" /><path
         d="M 9843.91,10150.7 8666.13,8822.5 c -74.05,-111.6 -169.15,-196 -20.95,-294.3 148.21,-98.3 328.38,-87.5 402.44,24.1 l 1083.38,1408 -287.09,190.4"
         style="fill:#ffffff;fill-opacity:1;fill-rule:nonzero;stroke:none"
         id="path4085"
         inkscape:connector-curvature="0" /><path
         d="m 7730.21,9169.9 c 283.26,878.3 16.08,1491.2 16.08,1491.2 l -451.55,225.4 -490.51,-4.6 -442.29,-220.8 c 0,0 -435.37,-633.1 -152.11,-1511.4 235.76,-730.3 -234.34,-1980.9 -234.34,-1980.9 0,0 486.13,-193.3 1078.58,-215.6 592.44,22.3 1140.01,215.6 1140.01,215.6 0,0 -699.58,1270.8 -463.87,2001.1"
         style="fill:#ffffff;fill-opacity:1;fill-rule:nonzero;stroke:none"
         id="path4087"
         inkscape:connector-curvature="0" /><path
         d="m 7476.52,11437.9 h -40.97 v 88.5 h 40.97 v -88.5"
         style="fill:#fab80a;fill-opacity:1;fill-rule:nonzero;stroke:none"
         id="path4089"
         inkscape:connector-curvature="0" /><path
         d="m 7524.32,12615 c 23.48,-23.3 54.47,-18.6 78.92,-37.2 56.52,-42.8 45.7,-125.4 101.83,-171.3 30.5,-25 51.35,-26.9 62.85,-66.9 10.43,-36.3 -1.07,-81.3 9.64,-114.6 7.9,-24.2 20.76,-30.8 23.59,-60.6 2.82,-32 -16.37,-67.9 -1.66,-99.3 15.2,-32.2 43.36,-35 51.84,-66.9 7.31,-27 -0.59,-85.3 -5.56,-113.8 -8.18,-47.4 -18.02,-109.2 -34.49,-154.6 -52.91,-6.9 -98.71,-133.3 -122.97,-170.5 -27.38,-41.6 -1.95,-84.7 -20.85,-127.4 -18.42,-41.2 -76.49,-64.3 -103.39,-102.1 -26.02,-36.4 -12.96,-83.2 -43.94,-118.6 -33.82,-38.6 -99.1,-61.9 -140.22,-95.6 -45.21,-37 -45.31,-88.1 -105.44,-110.8 -86.48,-32.6 -140.02,-1.7 -212.32,-58.8 -38.1,-30 -74.44,-55.1 -127.65,-39.8 -41.6,12.1 -57.58,33.6 -104.36,36.2 -84.48,4.4 -159.31,-39.7 -243.35,-20.6 -80.25,18.2 -110.65,98.3 -195.33,112.6 -66.45,11.2 -130.27,-6.8 -162.62,66 -29.24,65.9 -12.09,76.2 -91.6,101.8 -143.14,46.1 -123.95,170 -220.7,245 -77.96,60.4 -77.08,81.3 -67.92,168.5 5.45,50.7 32.54,160.2 10.52,207.1 -14.71,31.3 -41.51,22.8 -45.11,66 -6.04,71.5 37.22,96.6 10.91,177.9 -9.75,30.3 -30.01,64.5 -21.34,97.5 9.06,34.5 42.39,55.8 49.41,94.1 11.59,62 -21.25,144.5 16.56,192.5 23.87,30.4 73.96,37 99.58,66.2 28.36,32.5 24.76,77.2 36.06,115.9 28.45,97.8 114.59,50.8 183.29,104.5 42.97,33.5 53.59,96.9 88.76,138.2 47.45,55.6 57.1,37.5 112.45,28.3 74.64,-12.4 87.99,32.9 150.26,59.9 53.49,23.1 66.74,-2.7 112.15,-17 70.45,-22.4 61.68,19.1 122.39,33.5 36.34,8.7 52.42,-14.4 88.77,-23.7 61.38,-15.7 108.25,32 162.33,29.3 43.95,-2.2 50.57,-34.7 86.43,-57.3 74.74,-47.2 153.08,4.5 203.65,-73.9 25.92,-40.4 24.75,-52.9 69.67,-71.8 42.1,-17.7 65.49,-12.6 92.09,-55.1 19.29,-30.9 19.19,-76.6 40.14,-104.9 2.15,-3 4.48,-5.5 6.73,-7.9"
         style="fill:#191b38;fill-opacity:1;fill-rule:nonzero;stroke:none"
         id="path4091"
         inkscape:connector-curvature="0" /><path
         d="m 7532.21,10908.6 h -38.1 v 82.2 h 38.1 v -82.2"
         style="fill:#fab80a;fill-opacity:1;fill-rule:nonzero;stroke:none"
         id="path4093"
         inkscape:connector-curvature="0" /><path
         d="M 6964.22,5629.1 6908.1,5208.9 V 3222.1 l 56.12,-420.3 h -393.27 l 56.22,420.3 v 1986.8 l -56.22,420.2 h 393.27"
         style="fill:#191b38;fill-opacity:1;fill-rule:nonzero;stroke:none"
         id="path4095"
         inkscape:connector-curvature="0" /><path
         d="m 4979.25,7457.9 c 0,-219.3 177.63,-397 396.88,-397 h 1721.49 c 219.25,0 396.88,177.7 396.88,397 v 1601.5 c 0,219.3 -177.63,397 -396.88,397 H 5376.13 c -219.25,0 -396.88,-177.7 -396.88,-397 V 7457.9"
         style="fill:#76c9b7;fill-opacity:1;fill-rule:nonzero;stroke:none"
         id="path4097"
         inkscape:connector-curvature="0" /><path
         d="m 5355.37,9873.9 c 0,-85.5 69.19,-154.7 154.74,-154.7 h 671.27 c 85.51,0 154.83,69.2 154.83,154.7 v 624.6 c 0,85.5 -69.32,154.8 -154.83,154.8 h -671.27 c -85.55,0 -154.74,-69.3 -154.74,-154.8 v -624.6"
         style="fill:#76c9b7;fill-opacity:1;fill-rule:nonzero;stroke:none"
         id="path4099"
         inkscape:connector-curvature="0" /><path
         d="m 4815.31,5789.3 c 0,-182 147.47,-329.5 329.44,-329.5 h 3245.82 c 181.92,0 329.45,147.5 329.45,329.5 0,181.8 -147.53,329.4 -329.45,329.4 H 5144.75 c -181.97,0 -329.44,-147.6 -329.44,-329.4"
         style="fill:#76c9b7;fill-opacity:1;fill-rule:nonzero;stroke:none"
         id="path4101"
         inkscape:connector-curvature="0" /><path
         d="m 8228.38,2658.5 v 196.6 H 5306.94 v -196.6 h 2921.44"
         style="fill:#191b38;fill-opacity:1;fill-rule:nonzero;stroke:none"
         id="path4103"
         inkscape:connector-curvature="0" /><path
         d="m 8066.87,2442.6 c 0,-89.2 72.3,-161.6 161.51,-161.6 89.2,0 161.51,72.4 161.51,161.6 v 261.2 c 0,89.2 -72.31,161.6 -161.51,161.6 -89.21,0 -161.51,-72.4 -161.51,-161.6 v -261.2"
         style="fill:#191b38;fill-opacity:1;fill-rule:nonzero;stroke:none"
         id="path4105"
         inkscape:connector-curvature="0" /><path
         d="m 5145.29,2442.6 c 0,-89.2 72.4,-161.6 161.65,-161.6 89.16,0 161.51,72.4 161.51,161.6 v 261.2 c 0,89.2 -72.35,161.6 -161.51,161.6 -89.25,0 -161.65,-72.4 -161.65,-161.6 v -261.2"
         style="fill:#191b38;fill-opacity:1;fill-rule:nonzero;stroke:none"
         id="path4107"
         inkscape:connector-curvature="0" /><path
         d="m 5632.4,5459.8 h 350.59 v 4475 H 5632.4 v -4475"
         style="fill:#191b38;fill-opacity:1;fill-rule:nonzero;stroke:none"
         id="path4109"
         inkscape:connector-curvature="0" /><path
         d="m 12888.3,7913.8 c 0,-39.7 -196.9,-71.9 -439.6,-71.9 -242.7,0 -439.6,32.2 -439.6,71.9 0,39.7 196.9,71.9 439.6,71.9 242.7,0 439.6,-32.2 439.6,-71.9"
         style="fill:#6d432c;fill-opacity:1;fill-rule:nonzero;stroke:none"
         id="path4111"
         inkscape:connector-curvature="0" /><path
         d="m 12003.5,7950.2 c -116.8,118.3 -175.8,274.4 -175,453.2 0.2,52.1 0.9,120 35,163.2 13.1,16.6 138.6,65.4 137.2,52.1 7.1,68.2 -45.6,122.7 -68.5,182.8 -28,73.7 -27.7,157.7 -22.9,235.5 6,97.1 42.8,332.4 148,379.5 108.4,48.4 263.3,-93.7 263.3,-93.7 0,0 28.9,106.2 51,149.9 23.1,45.6 57.5,83.3 99.4,112.6 63.3,44.2 151.2,69.3 216.2,15.8 78.7,-64.8 63,-180.9 52.6,-269.8 -2.2,-19 -29.7,-252.9 -33.6,-253.7 216,47.9 504.3,45.2 636.5,-169.6 71.3,-115.7 16,-208.8 -67.8,-295.9 -90.2,-94.1 -184.2,-183.6 -262.7,-288.3 -44.1,-58.8 -83.1,-122 -110.4,-190.5 -27,-67.6 -31.8,-144.4 -66.3,-208.8 -40.5,-75.7 -117.8,-119.2 -198.8,-140.2 -164,-42.4 -362.6,-21.7 -508,67.3 -47.3,29 -89,62 -125.2,98.6"
         style="fill:#76c9b7;fill-opacity:1;fill-rule:nonzero;stroke:none"
         id="path4113"
         inkscape:connector-curvature="0" /><path
         d="m 12448.7,7175.4 c -351.3,-0.6 -375.8,77.6 -375.8,77.6 l -63.8,660.8 c 0,0 174.5,-71.9 439.6,-71.9 265.2,0 439.6,71.9 439.6,71.9 l -56.3,-648.7 c 0,0 -52.1,-99.4 -383.3,-89.7"
         style="fill:#f8a028;fill-opacity:1;fill-rule:nonzero;stroke:none"
         id="path4115"
         inkscape:connector-curvature="0" /></g></g></svg>