<svg viewBox="0 0 1247 990" fill="none" xmlns="http://www.w3.org/2000/svg">
<g id="bloco2 2">
<g clip-path="url(#clip0)">
<path id="bola4" d="M387.529 779.425C601.556 779.425 775.059 604.945 775.059 389.713C775.059 174.48 601.556 0 387.529 0C173.503 0 0 174.48 0 389.713C0 604.945 173.503 779.425 387.529 779.425Z" fill="url(#paint0_linear)"/>
<path id="bola3" d="M387.529 663.712C523.18 663.712 633.147 558.144 633.147 427.92C633.147 297.695 523.18 192.127 387.529 192.127C251.879 192.127 141.912 297.695 141.912 427.92C141.912 558.144 251.879 663.712 387.529 663.712Z" fill="url(#paint1_linear)"/>
<path id="bola2" d="M968.278 550.183C1038.82 550.183 1096 492.511 1096 421.37C1096 350.229 1038.82 292.557 968.278 292.557C897.739 292.557 840.557 350.229 840.557 421.37C840.557 492.511 897.739 550.183 968.278 550.183Z" fill="url(#paint2_linear)"/>
<path id="bola1" d="M608.039 759.776C687.018 759.776 751.043 698.683 751.043 623.322C751.043 547.96 687.018 486.868 608.039 486.868C529.06 486.868 465.035 547.96 465.035 623.322C465.035 698.683 529.06 759.776 608.039 759.776Z" fill="url(#paint3_linear)"/>
</g>
</g>
<defs>
<linearGradient id="paint0_linear" x1="350.84" y1="347.455" x2="355.647" y2="777.075" gradientUnits="userSpaceOnUse">
<stop stop-color="#0054FF"/>
<stop offset="1" stop-color="#00D4FF"/>
</linearGradient>
<linearGradient id="paint1_linear" x1="364.276" y1="402.352" x2="367.052" y2="662.293" gradientUnits="userSpaceOnUse">
<stop stop-color="#0054FF"/>
<stop offset="1" stop-color="#00D4FF"/>
</linearGradient>
<linearGradient id="paint2_linear" x1="956.186" y1="407.402" x2="957.779" y2="549.406" gradientUnits="userSpaceOnUse">
<stop stop-color="#0054FF"/>
<stop offset="1" stop-color="#00D4FF"/>
</linearGradient>
<linearGradient id="paint3_linear" x1="594.5" y1="608.526" x2="596.097" y2="758.955" gradientUnits="userSpaceOnUse">
<stop stop-color="#0054FF"/>
<stop offset="1" stop-color="#00D4FF"/>
</linearGradient>
<clipPath id="clip0">
<rect width="1246.64" height="989.019" fill="white"/>
</clipPath>
</defs>
</svg>
