<svg xmlns="http://www.w3.org/2000/svg" xmlns:xlink="http://www.w3.org/1999/xlink" xmlns:fi="http://pattern.flaticon.com/" x="0" y="0" width="700" height="350" viewBox="0 0 700 350"><rect x="0px" y="0px" width="100%" height="100%" opacity="1" fill="#ffffff"/><defs><path d="M472,304H328V168c0-4.418-3.582-8-8-8h-40v-8c0-2.122-0.844-4.156-2.344-5.656L264,132.688v-17.376l4.32-4.32    C303.737,99.74,327.848,66.921,328,29.76V24c0-4.418-3.582-8-8-8h-16.256c0.08-1.752,0.256-3.488,0.256-5.256V8    c0-4.418-3.582-8-8-8H184c-4.418,0-8,3.582-8,8v2.744c0,1.768,0.176,3.504,0.256,5.256H160c-4.418,0-8,3.582-8,8v5.76    c0.152,37.161,24.263,69.98,59.68,81.232l4.32,4.32v17.376l-13.656,13.656c-1.5,1.5-2.344,3.534-2.344,5.656v8h-40    c-4.418,0-8,3.582-8,8v136H8c-4.418,0-8,3.582-8,8v160c0,4.418,3.582,8,8,8h464c4.418,0,8-3.582,8-8V312    C480,307.582,476.418,304,472,304z M152,464H16V320h136V464z M302.016,32H312c-0.952,26.059-16.391,49.399-40,60.472v-1.4    C287.526,74.711,297.955,54.186,302.016,32z M208,92.472C184.391,81.399,168.952,58.059,168,32h9.952    c4.07,22.19,14.511,42.715,30.048,59.072V92.472z M192.136,16h95.728c-1.169,23.898-10.832,46.593-27.248,64h-41.232    C202.968,62.594,193.305,39.898,192.136,16z M229.656,106.344L224,100.688V96h32v4.688l-5.656,5.656    c-1.5,1.5-2.344,3.534-2.344,5.656v16h-16v-16C232,109.878,231.156,107.844,229.656,106.344z M216,155.312L227.312,144h25.376    L264,155.312V160h-48V155.312z M312,464H168V312V176h144V464z M464,464H328V320h136V464z" transform="matrix(0.1875 0 0 0.1875 305 305)" id="L1_181"/><g transform="matrix(0.0833333358168602 0 0 0.0833333358168602 242.5 67.5)" id="L1_182"><path d="M133.285,264c-22.091,0-40,17.909-40,40c0,22.091,17.909,40,40,40c22.08-0.026,39.974-17.92,40-40    C173.285,281.909,155.376,264,133.285,264z M133.285,328c-13.255,0-24-10.745-24-24s10.745-24,24-24s24,10.745,24,24    S146.54,328,133.285,328z"/><path d="M259.149,359.008l-39.128-55.912c-7.166-10.209-21.251-12.676-31.46-5.51c-10.025,7.036-12.614,20.781-5.836,30.982    L198.341,352H68.229l15.616-23.432c6.902-10.389,4.075-24.406-6.314-31.308c-10.201-6.777-23.946-4.188-30.982,5.836    L7.421,359.008c-8.249,11.791-5.377,28.037,6.414,36.286c4.377,3.062,9.589,4.705,14.93,4.706h56.52v72c0,4.418,3.582,8,8,8h80    c4.418,0,8-3.582,8-8v-72h56.52c14.39-0.003,26.053-11.672,26.05-26.062C263.854,368.596,262.211,363.385,259.149,359.008z     M243.616,382.181c-1.703,1.192-3.733,1.828-5.811,1.819h-64.52c-4.418,0-8,3.582-8,8v72h-64v-72c0-4.418-3.582-8-8-8h-64.52    c-5.554,0.001-10.057-4.5-10.059-10.053c-0.001-2.065,0.634-4.079,1.819-5.771l39.16-55.912c2.052-3.002,6.15-3.772,9.152-1.72    c3.002,2.052,3.772,6.15,1.72,9.152L46.629,355.56c-2.452,3.675-1.461,8.643,2.215,11.095c1.315,0.877,2.86,1.345,4.441,1.345h160    c4.418,0.001,8.001-3.581,8.001-7.999c0-1.581-0.468-3.126-1.345-4.441l-23.904-35.864c-2.052-3.002-1.282-7.1,1.72-9.152    c3.002-2.052,7.1-1.282,9.152,1.72l39.176,55.912C249.271,372.725,248.165,378.996,243.616,382.181z"/><path d="M149.285,120h-24c-13.255,0-24,10.745-24,24h16c0-4.418,3.582-8,8-8h24c4.418,0,8,3.582,8,8s-3.582,8-8,8    c-13.255,0-24,10.745-24,24h16c0-4.418,3.582-8,8-8c13.255,0,24-10.745,24-24S162.54,120,149.285,120z"/><rect x="125px" y="184px" width="16px" height="16px"/><path d="M133.285,88c-48.52,0-88,32.296-88,72c0,32.352,26.12,60.448,63.896,69.192l17.704,23.608    c2.651,3.535,7.665,4.251,11.2,1.6c0.606-0.455,1.145-0.994,1.6-1.6l17.704-23.608c37.776-8.744,63.896-36.84,63.896-69.192    C221.285,120.296,181.805,88,133.285,88z M151.197,214.168c-1.918,0.392-3.626,1.474-4.8,3.04l-13.112,17.456l-13.096-17.456    c-1.174-1.567-2.882-2.648-4.8-3.04C83.525,207.776,61.285,185.504,61.285,160c0-30.872,32.296-56,72-56s72,25.128,72,56    C205.285,185.504,183.045,207.776,151.197,214.168z"/><path d="M365.285,160c-22.08,0.026-39.974,17.92-40,40c0,22.091,17.909,40,40,40c22.091,0,40-17.909,40-40    S387.376,160,365.285,160z M365.285,224c-13.255,0-24-10.745-24-24s10.745-24,24-24s24,10.745,24,24S378.54,224,365.285,224z"/><path d="M413.285,0h-96c-22.08,0.026-39.974,17.92-40,40v48c0.026,22.08,17.92,39.974,40,40h20.688l21.656,21.656    c3.124,3.123,8.188,3.123,11.312,0L392.597,128h20.688c22.08-0.026,39.974-17.92,40-40V40C453.259,17.92,435.365,0.026,413.285,0z     M437.285,88c0,13.255-10.745,24-24,24h-24c-2.122,0-4.156,0.844-5.656,2.344l-18.344,18.344l-18.344-18.344    c-1.5-1.5-3.534-2.344-5.656-2.344h-24c-13.255,0-24-10.745-24-24V40c0-13.255,10.745-24,24-24h96c13.255,0,24,10.745,24,24V88z"/><path d="M457.285,216.32c-13.069-2.209-25.455,6.595-27.664,19.664c-0.224,1.327-0.337,2.67-0.336,4.016v8h-128v-39.144    c0.15-11.941-8.274-22.276-20-24.536c-13.069-2.209-25.455,6.595-27.664,19.664c-0.224,1.327-0.337,2.67-0.336,4.016v40    c0.026,26.499,21.501,47.974,48,48h16v39.296l-19,107.68c-2.945,17.176,8.592,33.487,25.768,36.432    c17.176,2.945,33.487-8.592,36.432-25.768l4.8-28.968l4.8,28.976c2.947,17.167,19.253,28.695,36.42,25.748    c17.167-2.947,28.695-19.253,25.748-36.42l-18.968-107.68V296h16c26.499-0.026,47.974-21.501,48-48v-7.144    C477.435,228.915,469.011,218.58,457.285,216.32z M461.285,248c0,17.673-14.327,32-32,32h-24c-4.418,0-8,3.582-8,8v48    c-0.001,0.467,0.041,0.933,0.128,1.392l19.12,108.368c1.497,8.453-4.143,16.519-12.596,18.016    c-8.453,1.497-16.519-4.143-18.016-12.596c-0.01-0.054-0.019-0.109-0.028-0.164l-12.72-76.328    c-0.737-4.356-4.866-7.291-9.222-6.554c-3.357,0.568-5.986,3.197-6.554,6.554l-12.72,76.32    c-1.358,8.477-9.331,14.247-17.807,12.889c-8.477-1.358-14.247-9.331-12.889-17.807c0.018-0.11,0.036-0.22,0.056-0.33    l19.12-108.368c0.087-0.459,0.13-0.925,0.128-1.392v-48c0-4.418-3.582-8-8-8h-24c-17.673,0-32-14.327-32-32v-40    c-0.002-4.418,3.578-8.002,7.997-8.003c0.471,0,0.94,0.041,1.403,0.123c3.994,0.977,6.752,4.627,6.6,8.736V248    c0,8.837,7.163,16,16,16h128c8.837,0,16-7.163,16-16v-8c-0.001-2.351,1.032-4.583,2.824-6.104c1.814-1.55,4.228-2.203,6.576-1.776    c3.994,0.977,6.752,4.627,6.6,8.736V248z"/><path d="M403.137,34.344c-3.07-3.178-8.134-3.266-11.312-0.196c-0.067,0.064-0.132,0.13-0.196,0.196l-42.344,42.344    l-10.344-10.344c-3.178-3.07-8.242-2.982-11.312,0.196c-2.995,3.1-2.995,8.016,0,11.116l16,16c3.124,3.123,8.188,3.123,11.312,0    l48-48C406.119,42.586,406.207,37.522,403.137,34.344z"/></g><g transform="matrix(0.04165087267756462 0 0 0.04165087267756462 340 165)" id="L1_183"><path d="M200.182,32.106c-92.784,0-168,75.216-168,168s75.216,168,168,168s168-75.216,168-168    C368.081,107.364,292.924,32.207,200.182,32.106z M200.182,48.106c49.416,0.039,95.723,24.123,124.128,64.56l-20,20    c-4.867-2.945-10.439-4.521-16.128-4.56c-17.673,0-32,14.327-32,32c0.028,5.695,1.595,11.276,4.536,16.152l-52.384,52.384    c-9.919-6.048-22.385-6.048-32.304,0l-36.384-36.384c2.941-4.876,4.508-10.457,4.536-16.152    c0.022-17.638-14.258-31.954-31.896-31.976c-14.587-0.018-27.332,9.849-30.968,23.976h-29.68    C66.785,98.159,128.614,48.211,200.182,48.106z M304.182,160.106c0,8.837-7.163,16-16,16s-16-7.163-16-16s7.163-16,16-16    S304.182,151.269,304.182,160.106z M208.182,256.106c0,8.837-7.163,16-16,16s-16-7.163-16-16c0-8.837,7.163-16,16-16    S208.182,247.269,208.182,256.106z M128.182,176.106c0,8.837-7.163,16-16,16s-16-7.163-16-16s7.163-16,16-16    S128.182,167.269,128.182,176.106z M274.036,333.012c-22.592,12.544-48.012,19.116-73.854,19.093    c-83.89,0.057-151.943-67.902-152-151.792c-0.004-5.414,0.282-10.825,0.856-16.208h32.28c3.637,14.085,16.317,23.945,30.864,24    c5.695-0.028,11.276-1.595,16.152-4.536l36.384,36.384c-2.941,4.876-4.508,10.457-4.536,16.152c0,17.673,14.327,32,32,32    s32-14.327,32-32c-0.028-5.695-1.595-11.276-4.536-16.152l52.384-52.384c4.876,2.941,10.457,4.508,16.152,4.536    c17.673,0,32-14.327,32-32c-0.028-5.695-1.595-11.276-4.536-16.152l17.44-17.432C373.801,199.849,347.363,292.298,274.036,333.012    z"/><path d="M400.182,80.106c14.547-0.055,27.227-9.914,30.864-24h49.136v-16h-49.136c-3.637-14.086-16.317-23.945-30.864-24    c-17.673,0-32,14.327-32,32c0.028,5.695,1.595,11.276,4.536,16.152l-14.056,14.056C291.407-9.307,165.855-25.817,78.234,41.438    S-25.897,234.246,41.358,321.867c63.484,82.707,179.855,102.77,267.368,46.095l24.144,24.144l11.312,11.312l64.4,64.4    c16.379,16.379,42.933,16.379,59.312,0c16.379-16.379,16.379-42.933,0-59.312l-64.4-64.4l-11.312-11.312l-24.144-24.144    c42.859-66.016,42.859-151.071,0-217.088l16-16C388.911,78.504,394.49,80.074,400.182,80.106z M400.182,32.106    c8.837,0,16,7.163,16,16s-7.163,16-16,16s-16-7.163-16-16S391.346,32.106,400.182,32.106z M456.582,419.818    c10.246,10.016,10.433,26.442,0.417,36.688c-10.016,10.246-26.442,10.433-36.688,0.417c-0.141-0.137-0.279-0.276-0.417-0.417    l-64.4-64.4l36.688-36.688L456.582,419.818z M380.87,344.106l-36.688,36.688l-22.144-22.144c1.128-0.864,2.184-1.816,3.296-2.704    s2.4-1.952,3.592-2.952c1.752-1.472,3.48-2.96,5.176-4.488c0.872-0.8,1.704-1.6,2.56-2.4c3.28-3.072,6.456-6.248,9.528-9.528    c0.8-0.856,1.6-1.688,2.4-2.56c1.528-1.696,3.016-3.424,4.488-5.176c1.003-1.184,1.987-2.381,2.952-3.592    c0.88-1.104,1.832-2.16,2.696-3.288L380.87,344.106z M349.846,306.946c-2.52,3.52-5.12,6.968-7.864,10.288    c-0.8,0.968-1.656,1.904-2.48,2.856c-2.448,2.848-4.976,5.611-7.584,8.288c-1.136,1.173-2.291,2.328-3.464,3.464    c-2.667,2.608-5.429,5.136-8.288,7.584c-0.952,0.8-1.888,1.672-2.856,2.48c-3.32,2.744-6.768,5.344-10.288,7.864    c-82.816,59.165-197.915,39.992-257.08-42.824S9.95,109.031,92.766,49.866S290.681,9.873,349.846,92.69    C395.627,156.772,395.627,242.864,349.846,306.946z"/></g><g transform="matrix(0.04166683927178383 0 0 0.04166683927178383 165 165)" id="L1_184"><path d="M275.999,215.998h-64c-48.577,0.057-87.943,39.423-88,88v168c0,4.418,3.582,8,8,8h224c4.418,0,8-3.582,8-8v-168    C363.942,255.421,324.576,216.056,275.999,215.998z M243.159,252.438l-10.216-20.44h22.112l-10.256,20.424    c-0.54,1.114-0.814,2.338-0.8,3.576c-0.003,0.326,0.019,0.653,0.064,0.976l15.512,124.136l-15.576,15.576l-15.576-15.576    l15.512-124.12c0.046-0.329,0.067-0.66,0.064-0.992C243.998,254.763,243.71,253.544,243.159,252.438z M347.999,463.998h-208v-160    c0.049-39.744,32.256-71.952,72-72h3.056l12.704,25.408l-15.696,125.6c-0.306,2.449,0.535,4.902,2.28,6.648l24,24    c3.124,3.123,8.188,3.123,11.312,0l24-24c1.745-1.746,2.586-4.199,2.28-6.648l-15.696-125.6l12.704-25.408h3.056    c39.744,0.048,71.952,32.256,72,72V463.998z"/><path d="M323.998,16c-1.451,0-2.875,0.395-4.118,1.142l-34.64,20.8l-35.584-35.6c-3.124-3.123-8.188-3.123-11.312,0    l-35.584,35.584l-34.64-20.8c-3.787-2.275-8.702-1.05-10.978,2.737c-0.75,1.248-1.145,2.678-1.142,4.135v72c0,4.418,3.582,8,8,8h8    v32c0,39.764,32.236,72,72,72c39.765,0,72-32.236,72-72v-32h8c4.418,0,8-3.582,8-8v-72C331.998,19.58,328.416,15.999,323.998,16z     M299.999,135.998c0,30.928-25.072,56-56,56c-30.928,0-56-25.072-56-56v-32h112V135.998z M315.999,87.998h-144V38.126    l27.88,16.728c3.148,1.891,7.179,1.396,9.776-1.2l34.344-34.344l34.344,34.344c2.597,2.596,6.628,3.091,9.776,1.2l27.88-16.728    V87.998z"/><path d="M451.999,127.998c-13.255,0-24-10.745-24-24c0-4.418-3.582-8-8-8s-8,3.582-8,8c0,13.255-10.745,24-24,24    c-4.418,0-8,3.582-8,8s3.582,8,8,8c13.255,0,24,10.745,24,24c0,4.418,3.582,8,8,8s8-3.582,8-8c0-13.255,10.745-24,24-24    c4.418,0,8-3.582,8-8S456.417,127.998,451.999,127.998z M419.999,144.246c-2.33-3.138-5.109-5.917-8.248-8.248    c3.138-2.331,5.918-5.109,8.248-8.248c2.331,3.138,5.109,5.917,8.248,8.248C425.109,138.329,422.33,141.108,419.999,144.246z"/><path d="M115.999,215.998c-13.255,0-24-10.745-24-24c0-4.418-3.582-8-8-8s-8,3.582-8,8c0,13.255-10.745,24-24,24    c-4.418,0-8,3.582-8,8s3.582,8,8,8c13.255,0,24,10.745,24,24c0,4.418,3.582,8,8,8s8-3.582,8-8c0-13.255,10.745-24,24-24    c4.418,0,8-3.582,8-8S120.417,215.998,115.999,215.998z M83.999,232.246c-2.331-3.138-5.109-5.917-8.248-8.248    c3.138-2.331,5.917-5.109,8.248-8.248c2.331,3.138,5.109,5.917,8.248,8.248C89.109,226.329,86.33,229.108,83.999,232.246z"/><path d="M91.999,71.998c-13.255,0-24-10.745-24-24c0-4.418-3.582-8-8-8s-8,3.582-8,8c0,13.255-10.745,24-24,24    c-4.418,0-8,3.582-8,8s3.582,8,8,8c13.255,0,24,10.745,24,24c0,4.418,3.582,8,8,8s8-3.582,8-8c0-13.255,10.745-24,24-24    c4.418,0,8-3.582,8-8S96.417,71.998,91.999,71.998z M59.999,88.246c-2.331-3.138-5.109-5.917-8.248-8.248    c3.138-2.331,5.917-5.109,8.248-8.248c2.331,3.138,5.109,5.917,8.248,8.248C65.109,82.329,62.33,85.108,59.999,88.246z"/></g><path d="M165,0C74.019,0,0,74.019,0,165s74.019,165,165,165c90.982,0,165-74.019,165-165S255.982,0,165,0z" transform="matrix(0.03030303120613098 0 0 0.03030303120613098 345 82.5)" id="L1_187" fill="#8f2513"/><path d="M472,304H328V168c0-4.418-3.582-8-8-8h-40v-8c0-2.122-0.844-4.156-2.344-5.656L264,132.688v-17.376l4.32-4.32    C303.737,99.74,327.848,66.921,328,29.76V24c0-4.418-3.582-8-8-8h-16.256c0.08-1.752,0.256-3.488,0.256-5.256V8    c0-4.418-3.582-8-8-8H184c-4.418,0-8,3.582-8,8v2.744c0,1.768,0.176,3.504,0.256,5.256H160c-4.418,0-8,3.582-8,8v5.76    c0.152,37.161,24.263,69.98,59.68,81.232l4.32,4.32v17.376l-13.656,13.656c-1.5,1.5-2.344,3.534-2.344,5.656v8h-40    c-4.418,0-8,3.582-8,8v136H8c-4.418,0-8,3.582-8,8v160c0,4.418,3.582,8,8,8h464c4.418,0,8-3.582,8-8V312    C480,307.582,476.418,304,472,304z M152,464H16V320h136V464z M302.016,32H312c-0.952,26.059-16.391,49.399-40,60.472v-1.4    C287.526,74.711,297.955,54.186,302.016,32z M208,92.472C184.391,81.399,168.952,58.059,168,32h9.952    c4.07,22.19,14.511,42.715,30.048,59.072V92.472z M192.136,16h95.728c-1.169,23.898-10.832,46.593-27.248,64h-41.232    C202.968,62.594,193.305,39.898,192.136,16z M229.656,106.344L224,100.688V96h32v4.688l-5.656,5.656    c-1.5,1.5-2.344,3.534-2.344,5.656v16h-16v-16C232,109.878,231.156,107.844,229.656,106.344z M216,155.312L227.312,144h25.376    L264,155.312V160h-48V155.312z M312,464H168V312V176h144V464z M464,464H328V320h136V464z" transform="matrix(-0.125 0 0 0.125 117.5 57.5)" id="L1_186"/><path d="M165,0C74.019,0,0,74.019,0,165s74.019,165,165,165c90.982,0,165-74.019,165-165S255.982,0,165,0z" transform="matrix(0.03030303120613098 0 0 0.03030303120613098 82.5 257.5)" id="L1_188" fill="#82bfba"/><g transform="matrix(-0.12495262175798416 0 0 0.12495262175798416 204.9772584438324 232.5)" id="L1_189"><path d="M200.182,32.106c-92.784,0-168,75.216-168,168s75.216,168,168,168s168-75.216,168-168    C368.081,107.364,292.924,32.207,200.182,32.106z M200.182,48.106c49.416,0.039,95.723,24.123,124.128,64.56l-20,20    c-4.867-2.945-10.439-4.521-16.128-4.56c-17.673,0-32,14.327-32,32c0.028,5.695,1.595,11.276,4.536,16.152l-52.384,52.384    c-9.919-6.048-22.385-6.048-32.304,0l-36.384-36.384c2.941-4.876,4.508-10.457,4.536-16.152    c0.022-17.638-14.258-31.954-31.896-31.976c-14.587-0.018-27.332,9.849-30.968,23.976h-29.68    C66.785,98.159,128.614,48.211,200.182,48.106z M304.182,160.106c0,8.837-7.163,16-16,16s-16-7.163-16-16s7.163-16,16-16    S304.182,151.269,304.182,160.106z M208.182,256.106c0,8.837-7.163,16-16,16s-16-7.163-16-16c0-8.837,7.163-16,16-16    S208.182,247.269,208.182,256.106z M128.182,176.106c0,8.837-7.163,16-16,16s-16-7.163-16-16s7.163-16,16-16    S128.182,167.269,128.182,176.106z M274.036,333.012c-22.592,12.544-48.012,19.116-73.854,19.093    c-83.89,0.057-151.943-67.902-152-151.792c-0.004-5.414,0.282-10.825,0.856-16.208h32.28c3.637,14.085,16.317,23.945,30.864,24    c5.695-0.028,11.276-1.595,16.152-4.536l36.384,36.384c-2.941,4.876-4.508,10.457-4.536,16.152c0,17.673,14.327,32,32,32    s32-14.327,32-32c-0.028-5.695-1.595-11.276-4.536-16.152l52.384-52.384c4.876,2.941,10.457,4.508,16.152,4.536    c17.673,0,32-14.327,32-32c-0.028-5.695-1.595-11.276-4.536-16.152l17.44-17.432C373.801,199.849,347.363,292.298,274.036,333.012    z"/><path d="M400.182,80.106c14.547-0.055,27.227-9.914,30.864-24h49.136v-16h-49.136c-3.637-14.086-16.317-23.945-30.864-24    c-17.673,0-32,14.327-32,32c0.028,5.695,1.595,11.276,4.536,16.152l-14.056,14.056C291.407-9.307,165.855-25.817,78.234,41.438    S-25.897,234.246,41.358,321.867c63.484,82.707,179.855,102.77,267.368,46.095l24.144,24.144l11.312,11.312l64.4,64.4    c16.379,16.379,42.933,16.379,59.312,0c16.379-16.379,16.379-42.933,0-59.312l-64.4-64.4l-11.312-11.312l-24.144-24.144    c42.859-66.016,42.859-151.071,0-217.088l16-16C388.911,78.504,394.49,80.074,400.182,80.106z M400.182,32.106    c8.837,0,16,7.163,16,16s-7.163,16-16,16s-16-7.163-16-16S391.346,32.106,400.182,32.106z M456.582,419.818    c10.246,10.016,10.433,26.442,0.417,36.688c-10.016,10.246-26.442,10.433-36.688,0.417c-0.141-0.137-0.279-0.276-0.417-0.417    l-64.4-64.4l36.688-36.688L456.582,419.818z M380.87,344.106l-36.688,36.688l-22.144-22.144c1.128-0.864,2.184-1.816,3.296-2.704    s2.4-1.952,3.592-2.952c1.752-1.472,3.48-2.96,5.176-4.488c0.872-0.8,1.704-1.6,2.56-2.4c3.28-3.072,6.456-6.248,9.528-9.528    c0.8-0.856,1.6-1.688,2.4-2.56c1.528-1.696,3.016-3.424,4.488-5.176c1.003-1.184,1.987-2.381,2.952-3.592    c0.88-1.104,1.832-2.16,2.696-3.288L380.87,344.106z M349.846,306.946c-2.52,3.52-5.12,6.968-7.864,10.288    c-0.8,0.968-1.656,1.904-2.48,2.856c-2.448,2.848-4.976,5.611-7.584,8.288c-1.136,1.173-2.291,2.328-3.464,3.464    c-2.667,2.608-5.429,5.136-8.288,7.584c-0.952,0.8-1.888,1.672-2.856,2.48c-3.32,2.744-6.768,5.344-10.288,7.864    c-82.816,59.165-197.915,39.992-257.08-42.824S9.95,109.031,92.766,49.866S290.681,9.873,349.846,92.69    C395.627,156.772,395.627,242.864,349.846,306.946z"/></g></defs><g fi:class="KUsePattern"><pattern id="pattern_L1_181" width="350" height="350" patternUnits="userSpaceOnUse"><use xlink:href="#L1_181" x="-350" y="-350"/><use xlink:href="#L1_181" x="0" y="-350"/><use xlink:href="#L1_181" x="350" y="-350"/><use xlink:href="#L1_181" x="-350" y="0"/><use xlink:href="#L1_181" x="0" y="0"/><use xlink:href="#L1_181" x="350" y="0"/><use xlink:href="#L1_181" x="-350" y="350"/><use xlink:href="#L1_181" x="0" y="350"/><use xlink:href="#L1_181" x="350" y="350"/></pattern><rect x="0" y="0" width="100%" height="100%" fill="url(#pattern_L1_181)"/></g><g fi:class="KUsePattern"><pattern id="pattern_L1_182" width="350" height="350" patternUnits="userSpaceOnUse"><use xlink:href="#L1_182" x="-350" y="-350"/><use xlink:href="#L1_182" x="0" y="-350"/><use xlink:href="#L1_182" x="350" y="-350"/><use xlink:href="#L1_182" x="-350" y="0"/><use xlink:href="#L1_182" x="0" y="0"/><use xlink:href="#L1_182" x="350" y="0"/><use xlink:href="#L1_182" x="-350" y="350"/><use xlink:href="#L1_182" x="0" y="350"/><use xlink:href="#L1_182" x="350" y="350"/></pattern><rect x="0" y="0" width="100%" height="100%" fill="url(#pattern_L1_182)"/></g><g fi:class="KUsePattern"><pattern id="pattern_L1_183" width="350" height="350" patternUnits="userSpaceOnUse"><use xlink:href="#L1_183" x="-350" y="-350"/><use xlink:href="#L1_183" x="0" y="-350"/><use xlink:href="#L1_183" x="350" y="-350"/><use xlink:href="#L1_183" x="-350" y="0"/><use xlink:href="#L1_183" x="0" y="0"/><use xlink:href="#L1_183" x="350" y="0"/><use xlink:href="#L1_183" x="-350" y="350"/><use xlink:href="#L1_183" x="0" y="350"/><use xlink:href="#L1_183" x="350" y="350"/></pattern><rect x="0" y="0" width="100%" height="100%" fill="url(#pattern_L1_183)"/></g><g fi:class="KUsePattern"><pattern id="pattern_L1_184" width="350" height="350" patternUnits="userSpaceOnUse"><use xlink:href="#L1_184" x="-350" y="-350"/><use xlink:href="#L1_184" x="0" y="-350"/><use xlink:href="#L1_184" x="350" y="-350"/><use xlink:href="#L1_184" x="-350" y="0"/><use xlink:href="#L1_184" x="0" y="0"/><use xlink:href="#L1_184" x="350" y="0"/><use xlink:href="#L1_184" x="-350" y="350"/><use xlink:href="#L1_184" x="0" y="350"/><use xlink:href="#L1_184" x="350" y="350"/></pattern><rect x="0" y="0" width="100%" height="100%" fill="url(#pattern_L1_184)"/></g><g fi:class="KUsePattern"><pattern id="pattern_L1_187" width="350" height="350" patternUnits="userSpaceOnUse"><use xlink:href="#L1_187" x="-350" y="-350"/><use xlink:href="#L1_187" x="0" y="-350"/><use xlink:href="#L1_187" x="350" y="-350"/><use xlink:href="#L1_187" x="-350" y="0"/><use xlink:href="#L1_187" x="0" y="0"/><use xlink:href="#L1_187" x="350" y="0"/><use xlink:href="#L1_187" x="-350" y="350"/><use xlink:href="#L1_187" x="0" y="350"/><use xlink:href="#L1_187" x="350" y="350"/></pattern><rect x="0" y="0" width="100%" height="100%" fill="url(#pattern_L1_187)"/></g><g fi:class="KUsePattern"><pattern id="pattern_L1_186" width="350" height="350" patternUnits="userSpaceOnUse"><use xlink:href="#L1_186" x="-350" y="-350"/><use xlink:href="#L1_186" x="0" y="-350"/><use xlink:href="#L1_186" x="350" y="-350"/><use xlink:href="#L1_186" x="-350" y="0"/><use xlink:href="#L1_186" x="0" y="0"/><use xlink:href="#L1_186" x="350" y="0"/><use xlink:href="#L1_186" x="-350" y="350"/><use xlink:href="#L1_186" x="0" y="350"/><use xlink:href="#L1_186" x="350" y="350"/></pattern><rect x="0" y="0" width="100%" height="100%" fill="url(#pattern_L1_186)"/></g><g fi:class="KUsePattern"><pattern id="pattern_L1_188" width="350" height="350" patternUnits="userSpaceOnUse"><use xlink:href="#L1_188" x="-350" y="-350"/><use xlink:href="#L1_188" x="0" y="-350"/><use xlink:href="#L1_188" x="350" y="-350"/><use xlink:href="#L1_188" x="-350" y="0"/><use xlink:href="#L1_188" x="0" y="0"/><use xlink:href="#L1_188" x="350" y="0"/><use xlink:href="#L1_188" x="-350" y="350"/><use xlink:href="#L1_188" x="0" y="350"/><use xlink:href="#L1_188" x="350" y="350"/></pattern><rect x="0" y="0" width="100%" height="100%" fill="url(#pattern_L1_188)"/></g><g fi:class="KUsePattern"><pattern id="pattern_L1_189" width="350" height="350" patternUnits="userSpaceOnUse"><use xlink:href="#L1_189" x="-350" y="-350"/><use xlink:href="#L1_189" x="0" y="-350"/><use xlink:href="#L1_189" x="350" y="-350"/><use xlink:href="#L1_189" x="-350" y="0"/><use xlink:href="#L1_189" x="0" y="0"/><use xlink:href="#L1_189" x="350" y="0"/><use xlink:href="#L1_189" x="-350" y="350"/><use xlink:href="#L1_189" x="0" y="350"/><use xlink:href="#L1_189" x="350" y="350"/></pattern><rect x="0" y="0" width="100%" height="100%" fill="url(#pattern_L1_189)"/></g></svg>