<?xml version="1.0" encoding="UTF-8" standalone="no"?>
<!-- Created with Inkscape (http://www.inkscape.org/) -->

<svg
   xmlns:osb="http://www.openswatchbook.org/uri/2009/osb"
   xmlns:dc="http://purl.org/dc/elements/1.1/"
   xmlns:cc="http://creativecommons.org/ns#"
   xmlns:rdf="http://www.w3.org/1999/02/22-rdf-syntax-ns#"
   xmlns:svg="http://www.w3.org/2000/svg"
   xmlns="http://www.w3.org/2000/svg"
   xmlns:sodipodi="http://sodipodi.sourceforge.net/DTD/sodipodi-0.dtd"
   xmlns:inkscape="http://www.inkscape.org/namespaces/inkscape"
   width="48"
   height="48"
   viewBox="0 0 12.7 12.7"
   version="1.1"
   id="svg8"
   inkscape:version="0.92.4 (5da689c313, 2019-01-14)"
   sodipodi:docname="logomenu.svg">
  <defs
     id="defs2">
    <linearGradient
       id="linearGradient6045"
       osb:paint="solid">
      <stop
         style="stop-color:#0080ff;stop-opacity:1;"
         offset="0"
         id="stop6043" />
    </linearGradient>
  </defs>
  <sodipodi:namedview
     id="base"
     pagecolor="#ffffff"
     bordercolor="#666666"
     borderopacity="1.0"
     inkscape:pageopacity="0.0"
     inkscape:pageshadow="2"
     inkscape:zoom="11.593059"
     inkscape:cx="24.115179"
     inkscape:cy="22.952265"
     inkscape:document-units="mm"
     inkscape:current-layer="layer1"
     showgrid="false"
     inkscape:snap-text-baseline="false"
     inkscape:lockguides="false"
     inkscape:window-width="1920"
     inkscape:window-height="1030"
     inkscape:window-x="0"
     inkscape:window-y="25"
     inkscape:window-maximized="1"
     units="px" />
  <metadata
     id="metadata5">
    <rdf:RDF>
      <cc:Work
         rdf:about="">
        <dc:format>image/svg+xml</dc:format>
        <dc:type
           rdf:resource="http://purl.org/dc/dcmitype/StillImage" />
        <dc:title></dc:title>
      </cc:Work>
    </rdf:RDF>
  </metadata>
  <g
     inkscape:label="Camada 1"
     inkscape:groupmode="layer"
     id="layer1"
     transform="translate(0,-284.3)">
    <path
       id="path3723"
       style="font-style:normal;font-variant:normal;font-weight:normal;font-stretch:normal;font-size:97.3943634px;line-height:1.25;font-family:'Noto Serif Display';-inkscape-font-specification:'Noto Serif Display, Normal';font-variant-ligatures:normal;font-variant-caps:normal;font-variant-numeric:normal;font-feature-settings:normal;text-align:start;letter-spacing:0px;word-spacing:0px;writing-mode:lr-tb;text-anchor:start;fill:#000000;fill-opacity:1;stroke:#000000;stroke-width:0.02127687;stroke-miterlimit:4;stroke-dasharray:none"
       d="m 0.43808918,287.46402 v 0.11928 h 0.11808353 c 0.18768862,0 0.32693898,0.0477 0.41775604,0.14316 0.0968734,0.0875 0.17557395,0.25445 0.23611845,0.50098 l 2.079708,7.75373 h 0.3905405 l 1.8799268,-7.47936 c 0.084762,-0.34991 0.1755843,-0.58848 0.2724561,-0.71572 0.1029258,-0.13519 0.2391074,-0.20279 0.4086341,-0.20279 h 0.3269381 0.1180835 c 0.4964686,0 0.7446937,0.2704 0.7446937,0.81117 v 6.60855 c 0,0.57258 -0.2482251,0.85887 -0.7446937,0.85887 H 6.5682508 v 0.11928 h 2.7790421 c 0.6599381,0 1.2078351,-0.17495 1.6437571,-0.52486 0.435924,-0.34992 0.762902,-0.84298 0.980862,-1.47917 0.224015,-0.64418 0.33601,-1.39966 0.33601,-2.26648 0,-1.35193 -0.260345,-2.39768 -0.781031,-3.13727 -0.514629,-0.73958 -1.241154,-1.10937 -2.1795983,-1.10937 H 6.5682508 4.3523145 v 0.11928 h 0.5358403 c 0.2119062,0 0.3662922,0.0397 0.4631655,0.11929 0.096873,0.0716 0.1452999,0.20278 0.1452999,0.39363 0,0.0795 -0.00905,0.16699 -0.027215,0.26243 -0.018164,0.0954 -0.042402,0.20677 -0.072675,0.33401 l -1.0352931,4.16317 c -0.084763,0.34196 -0.1725672,0.69983 -0.263384,1.0736 -0.090817,0.36581 -0.1695199,0.69982 -0.2361189,1.00202 C 3.7468996,294.335 3.58341,293.64314 3.3715036,292.85583 l -1.1261119,-4.25857 c -0.060546,-0.21472 -0.090818,-0.40162 -0.090818,-0.56067 0,-0.16701 0.04541,-0.28234 0.1362279,-0.34595 0.090817,-0.0716 0.233085,-0.10734 0.426828,-0.10734 h 0.2179748 v -0.11928 z m 7.91019752,0.11928 h 0.7991748 c 0.7568098,0 1.3047565,0.32604 1.6438085,0.97815 0.33905,0.65211 0.508574,1.70185 0.508574,3.14921 0,1.45531 -0.17254,2.51303 -0.517646,3.17309 -0.33905,0.65212 -0.8869984,0.97814 -1.643808,0.97814 H 8.3482867 Z"
       inkscape:connector-curvature="0"
       sodipodi:nodetypes="ccsccccccscssssccsccscscccscscccccccscsccccscscscc" />
    <text
       xml:space="preserve"
       style="font-style:normal;font-weight:normal;font-size:0.74070096px;line-height:1.25;font-family:sans-serif;letter-spacing:0px;word-spacing:0px;fill:#000000;fill-opacity:1;stroke:none;stroke-width:0.01851752"
       x="5.5786529"
       y="219.96457"
       id="text2918"
       transform="scale(0.76599309,1.3054948)"
       inkscape:export-xdpi="96"
       inkscape:export-ydpi="96"><tspan
         sodipodi:role="line"
         id="tspan2916"
         x="5.5786529"
         y="219.96457"
         style="stroke-width:0.01851752">@Virtual Design</tspan></text>
  </g>
</svg>
