<?xml version="1.0" encoding="UTF-8" standalone="no"?>
<!-- Created with Inkscape (http://www.inkscape.org/) -->

<svg
   xmlns:osb="http://www.openswatchbook.org/uri/2009/osb"
   xmlns:dc="http://purl.org/dc/elements/1.1/"
   xmlns:cc="http://creativecommons.org/ns#"
   xmlns:rdf="http://www.w3.org/1999/02/22-rdf-syntax-ns#"
   xmlns:svg="http://www.w3.org/2000/svg"
   xmlns="http://www.w3.org/2000/svg"
   xmlns:xlink="http://www.w3.org/1999/xlink"
   xmlns:sodipodi="http://sodipodi.sourceforge.net/DTD/sodipodi-0.dtd"
   xmlns:inkscape="http://www.inkscape.org/namespaces/inkscape"
   width="210mm"
   height="297mm"
   viewBox="0 0 210 297"
   version="1.1"
   id="svg8"
   inkscape:version="0.92.4 (5da689c313, 2019-01-14)"
   sodipodi:docname="logo.svg">
  <defs
     id="defs2">
    <linearGradient
       inkscape:collect="always"
       id="linearGradient6068">
      <stop
         style="stop-color:#000080;stop-opacity:1;"
         offset="0"
         id="stop6064" />
      <stop
         id="stop6180"
         offset="0.35350204"
         style="stop-color:#008000;stop-opacity:1" />
      <stop
         style="stop-color:#ffcc00;stop-opacity:1"
         offset="0.6124295"
         id="stop6182" />
      <stop
         style="stop-color:#aa0000;stop-opacity:1"
         offset="1"
         id="stop6066" />
    </linearGradient>
    <linearGradient
       id="linearGradient6045"
       osb:paint="solid">
      <stop
         style="stop-color:#0080ff;stop-opacity:1;"
         offset="0"
         id="stop6043" />
    </linearGradient>
    <linearGradient
       inkscape:collect="always"
       xlink:href="#linearGradient6068"
       id="linearGradient6178"
       gradientUnits="userSpaceOnUse"
       x1="34.637032"
       y1="153.30313"
       x2="151.49799"
       y2="153.14711"
       gradientTransform="matrix(1.056574,0,0,0.95508546,14.278572,5.6303975)" />
  </defs>
  <sodipodi:namedview
     id="base"
     pagecolor="#ffffff"
     bordercolor="#666666"
     borderopacity="1.0"
     inkscape:pageopacity="0.0"
     inkscape:pageshadow="2"
     inkscape:zoom="1.0744254"
     inkscape:cx="295.43261"
     inkscape:cy="562.9703"
     inkscape:document-units="mm"
     inkscape:current-layer="layer1"
     showgrid="false"
     inkscape:snap-text-baseline="false"
     inkscape:lockguides="false"
     inkscape:window-width="1920"
     inkscape:window-height="1023"
     inkscape:window-x="0"
     inkscape:window-y="28"
     inkscape:window-maximized="1" />
  <metadata
     id="metadata5">
    <rdf:RDF>
      <cc:Work
         rdf:about="">
        <dc:format>image/svg+xml</dc:format>
        <dc:type
           rdf:resource="http://purl.org/dc/dcmitype/StillImage" />
        <dc:title />
      </cc:Work>
    </rdf:RDF>
  </metadata>
  <g
     inkscape:label="Camada 1"
     inkscape:groupmode="layer"
     id="layer1">
    <path
       id="path3723"
       style="font-style:normal;font-variant:normal;font-weight:normal;font-stretch:normal;font-size:97.3943634px;line-height:1.25;font-family:'Noto Serif Display';-inkscape-font-specification:'Noto Serif Display, Normal';font-variant-ligatures:normal;font-variant-caps:normal;font-variant-numeric:normal;font-feature-settings:normal;text-align:start;letter-spacing:0px;word-spacing:0px;writing-mode:lr-tb;text-anchor:start;fill:url(#linearGradient6178);fill-opacity:1;stroke:none;stroke-width:10.12573051"
       d="m 114.56844,184.75677 v -1.02228 h 1.21724 q 7.67818,0 7.67818,-7.36033 v -56.63382 q 0,-6.95147 -7.67818,-6.95147 h -1.21724 v -1.02225 h 28.65266 q 14.51362,0 22.47268,9.50709 8.05272,9.50715 8.05272,26.88577 0,11.14275 -3.46454,19.42315 -3.37089,8.17817 -10.11271,12.67614 -6.74181,4.498 -16.94815,4.498 z m 18.35268,-1.02228 h 8.14635 q 11.70452,0 16.94813,-8.38261 5.33727,-8.48484 5.33727,-27.1924 0,-18.60535 -5.24361,-26.98798 -5.24364,-8.38263 -16.94816,-8.38263 h -8.23998 z m -52.155329,1.02228 -21.442683,-66.44763 q -0.936359,-3.16904 -2.43456,-4.29354 -1.404539,-1.22673 -4.307253,-1.22673 h -1.217268 v -1.02225 h 25.749937 v 1.02225 h -2.247263 q -2.996351,0 -4.40089,0.92005 -1.404564,0.81783 -1.404564,2.96457 0,2.04454 0.936385,4.80467 l 11.610882,36.49512 q 3.277259,10.12046 5.056342,17.78752 1.029994,-3.88464 2.434535,-8.5871 1.404538,-4.80466 2.715467,-9.20042 l 10.674522,-35.67729 q 0.46818,-1.63561 0.74909,-2.86234 0.28091,-1.22674 0.28091,-2.24901 0,-2.45347 -1.49818,-3.37349 -1.4982,-1.02228 -4.775457,-1.02228 h -5.524521 v -1.02225 h 22.847218 v 1.02225 h -3.37089 q -2.62183,0 -4.21364,1.73788 -1.49818,1.63563 -2.80908,6.13363 l -19.382694,64.09639 z"
       inkscape:connector-curvature="0"
       inkscape:export-xdpi="96"
       inkscape:export-ydpi="96" />
    <text
       xml:space="preserve"
       style="font-style:normal;font-weight:normal;font-size:8.30527878px;line-height:1.25;font-family:sans-serif;letter-spacing:0px;word-spacing:0px;fill:#000000;fill-opacity:1;stroke:none;stroke-width:0.20763196"
       x="96.235451"
       y="101.90352"
       id="text2918"
       transform="scale(0.94355205,1.0598249)"
       inkscape:export-xdpi="96"
       inkscape:export-ydpi="96"><tspan
         sodipodi:role="line"
         id="tspan2916"
         x="96.235451"
         y="101.90352"
         style="stroke-width:0.20763196">@Virtual Design</tspan></text>
  </g>
</svg>
