<?xml version="1.0" encoding="UTF-8" standalone="no"?>
<!-- Created with Inkscape (http://www.inkscape.org/) -->

<svg
   xmlns:dc="http://purl.org/dc/elements/1.1/"
   xmlns:cc="http://creativecommons.org/ns#"
   xmlns:rdf="http://www.w3.org/1999/02/22-rdf-syntax-ns#"
   xmlns:svg="http://www.w3.org/2000/svg"
   xmlns="http://www.w3.org/2000/svg"
   xmlns:sodipodi="http://sodipodi.sourceforge.net/DTD/sodipodi-0.dtd"
   xmlns:inkscape="http://www.inkscape.org/namespaces/inkscape"
   width="100"
   height="100"
   viewBox="0 0 26.458333 26.458333"
   version="1.1"
   id="svg8"
   sodipodi:docname="logo.svg"
   inkscape:export-filename="/home/evanildojesus/Imagens/logo.png"
   inkscape:export-xdpi="90"
   inkscape:export-ydpi="90"
   inkscape:version="0.92.4 (5da689c313, 2019-01-14)">
  <defs
     id="defs2">
	
</defs>
  <sodipodi:namedview
     id="base"
     pagecolor="#ffffff"
     bordercolor="#666666"
     borderopacity="1.0"
     inkscape:pageopacity="0.0"
     inkscape:pageshadow="2"
     inkscape:zoom="2.6375334"
     inkscape:cx="102.96845"
     inkscape:cy="87.465558"
     inkscape:document-units="mm"
     inkscape:current-layer="g6512"
     showgrid="false"
     inkscape:window-width="1920"
     inkscape:window-height="1017"
     inkscape:window-x="0"
     inkscape:window-y="34"
     inkscape:window-maximized="1"
     inkscape:snap-global="false"
     units="px"
     width="100px" />
  <metadata
     id="metadata5">
    <rdf:RDF>
      <cc:Work
         rdf:about="">
        <dc:format>image/svg+xml</dc:format>
        <dc:type
           rdf:resource="http://purl.org/dc/dcmitype/StillImage" />
        <dc:title></dc:title>
      </cc:Work>
    </rdf:RDF>
  </metadata>
  <g
     inkscape:label="Camada 1"
     inkscape:groupmode="layer"
     id="layer1"
     transform="translate(0,-270.54167)">
    <g
       id="g4867"
       transform="matrix(0.26458333,0,0,0.26458333,39.427226,154.93177)">
</g>
    <g
       id="g4869"
       transform="matrix(0.26458333,0,0,0.26458333,39.427226,154.93177)">
</g>
    <g
       id="g4871"
       transform="matrix(0.26458333,0,0,0.26458333,39.427226,154.93177)">
</g>
    <g
       id="g4873"
       transform="matrix(0.26458333,0,0,0.26458333,39.427226,154.93177)">
</g>
    <g
       id="g4875"
       transform="matrix(0.26458333,0,0,0.26458333,39.427226,154.93177)">
</g>
    <g
       id="g4877"
       transform="matrix(0.26458333,0,0,0.26458333,39.427226,154.93177)">
</g>
    <g
       id="g4879"
       transform="matrix(0.26458333,0,0,0.26458333,39.427226,154.93177)">
</g>
    <g
       id="g4881"
       transform="matrix(0.26458333,0,0,0.26458333,39.427226,154.93177)">
</g>
    <g
       id="g4883"
       transform="matrix(0.26458333,0,0,0.26458333,39.427226,154.93177)">
</g>
    <g
       id="g4885"
       transform="matrix(0.26458333,0,0,0.26458333,39.427226,154.93177)">
</g>
    <g
       id="g4887"
       transform="matrix(0.26458333,0,0,0.26458333,39.427226,154.93177)">
</g>
    <g
       id="g4889"
       transform="matrix(0.26458333,0,0,0.26458333,39.427226,154.93177)">
</g>
    <g
       id="g4891"
       transform="matrix(0.26458333,0,0,0.26458333,39.427226,154.93177)">
</g>
    <g
       id="g4893"
       transform="matrix(0.26458333,0,0,0.26458333,39.427226,154.93177)">
</g>
    <g
       id="g4895"
       transform="matrix(0.26458333,0,0,0.26458333,39.427226,154.93177)">
</g>
    <g
       id="g6512"
       transform="matrix(0.27068403,0,0,0.24549236,-8.6640589,207.21287)">
      <g
         id="g6597"
         inkscape:export-filename="/home/evanildojesus/PycharmProjects/gestaoclinicas/static/imgs/logo.svg.png"
         inkscape:export-xdpi="90"
         inkscape:export-ydpi="90"
         transform="matrix(0.90431925,0,0,0.9182683,-170.78299,100.03715)">
        <g
           transform="matrix(0.23749023,0,0,0.25419542,229.17288,170.40434)"
           id="g6518">
	<g
   id="g6516">
		<path
   id="path6514"
   d="m 352.4,34.019 c -32.4,0 -58,26 -58,58.4 0,32.4 26,58 58,58 32,0 58.4,-26 58.4,-58.4 0,-32.4 -26,-58 -58.4,-58 z m 0,103.6 c -25.2,0 -45.6,-20.4 -45.6,-45.6 0,-25.2 20.8,-45.2 45.6,-45.2 25.2,0 45.6,20.4 45.6,45.6 0,25.2 -20.4,45.2 -45.6,45.2 z"
   inkscape:connector-curvature="0" />

	</g>

</g>
        <g
           transform="matrix(0.23749023,0,0,0.25419542,229.17288,170.40434)"
           id="g6524">
	<g
   id="g6522">
		<path
   id="path6520"
   d="m 324.4,158.019 c -2,-2.8 -6.4,-3.2 -9.2,-1.2 l -64.8,51.6 -83.6,-34.8 c -2,-0.8 -4.4,-0.4 -6,0.8 l -89.6,64 c -2.8,2 -3.6,6 -1.6,8.8 1.2,2 3.2,2.8 5.2,2.8 1.2,0 2.4,-0.4 3.6,-1.2 l 86.8,-62 84,34.8 c 2,0.8 4.8,0.4 6.4,-0.8 l 67.6,-53.6 c 2.8,-2 3.2,-6.4 1.2,-9.2 z"
   inkscape:connector-curvature="0" />

	</g>

</g>
        <g
           transform="matrix(0.23749023,0,0,0.25419542,229.17288,170.40434)"
           id="g6528">
		<path
   inkscape:connector-curvature="0"
   d="m 418,377.219 h -29.6 v -185.2 c 0,-3.6 -2.8,-6.4 -6.4,-6.4 h -58.8 c -3.6,0 -6.4,2.8 -6.4,6.4 v 185.2 h -21.6 v -121.2 c 0,-3.6 -2.8,-6.4 -6.4,-6.4 h -59.2 c -3.6,0 -6.4,2.8 -6.4,6.4 v 121.2 h -21.6 v -130.8 c 0,-3.6 -2.8,-6.4 -6.4,-6.4 h -58.8 c -3.6,0 -6.4,2.8 -6.4,6.4 v 130.8 h -21.6 v -93.2 c 0,-3.6 -2.8,-6.4 -6.4,-6.4 H 42.8 c -3.6,0 -6.4,2.8 -6.4,6.4 v 93.2 h -30 c -3.6,0 -6.4,2.8 -6.4,6.4 0,3.6 2.8,6.4 6.4,6.4 h 36 58.8 35.2 58.8 34.4 58.8 34.4 58.8 36 c 3.6,0 6.4,-2.8 6.4,-6.4 0.4,-3.6 -2.4,-6.4 -6,-6.4 z m -322.8,0 h -46 v -86.8 h 46 z m 93.6,0 h -46 v -124.4 h 46 z m 93.2,0 h -46 v -114.8 h 46 z m 93.6,0 h -46 v -178.8 h 46 z"
   id="path6526" />

	</g>
        <text
           transform="scale(0.87986948,1.1365322)"
           id="text6532"
           y="175.04752"
           x="345.88776"
           style="font-style:normal;font-weight:normal;font-size:13.13280201px;line-height:1.25;font-family:sans-serif;letter-spacing:0px;word-spacing:0px;fill:#000000;fill-opacity:1;stroke:none;stroke-width:0.32832"
           xml:space="preserve"><tspan
             style="font-style:normal;font-variant:normal;font-weight:bold;font-stretch:normal;font-size:13.1328764px;font-family:sans-serif;-inkscape-font-specification:'sans-serif, Bold';font-variant-ligatures:normal;font-variant-caps:normal;font-variant-numeric:normal;font-feature-settings:normal;text-align:start;writing-mode:lr-tb;text-anchor:start;stroke-width:0.32832"
             y="175.04752"
             x="345.88776"
             id="tspan6530"
             sodipodi:role="line">BD</tspan></text>
        <text
           transform="scale(0.91218246,1.0962719)"
           id="text6536"
           y="253.11038"
           x="251.33362"
           style="font-style:normal;font-weight:normal;font-size:8.21873856px;line-height:1.25;font-family:sans-serif;letter-spacing:0px;word-spacing:0px;fill:#000000;fill-opacity:1;stroke:none;stroke-width:0.20546846"
           xml:space="preserve"><tspan
             style="stroke-width:0.20546846"
             y="253.11038"
             x="251.33362"
             id="tspan6534"
             sodipodi:role="line">@businessdata consultoria</tspan></text>
      </g>
    </g>
  </g>
</svg>
