<svg id="Layer_1" enable-background="new 0 0 256 256" height="512" viewBox="0 0 256 256" width="512" xmlns="http://www.w3.org/2000/svg"><path d="m150.997 214.955h-45.526c-13.559 0-24.551-10.992-24.551-24.551v-51.042c0-8.546 6.928-15.473 15.473-15.473h63.681c8.546 0 15.473 6.928 15.473 15.473v51.042c.001 13.559-10.991 24.551-24.55 24.551z" fill="#e0ebfc"/><path d="m165.793 123.889h-75.118c-16.425 0-29.741-13.315-29.741-29.741v-34.505c0-16.425 13.315-29.741 29.741-29.741h75.118c16.425 0 29.741 13.315 29.741 29.741v34.505c0 16.425-13.315 29.741-29.741 29.741z" fill="#e0ebfc"/><path d="m74.74 92.193v-34.56c0-8.213 6.658-14.87 14.87-14.87h77.249c8.213 0 14.87 6.658 14.87 14.87v34.56c0 8.213-6.658 14.87-14.87 14.87h-77.249c-8.213 0-14.87-6.657-14.87-14.87z" fill="#6bdddd"/><path d="m99.007 88.792h-.111c-4.602 0-8.333-3.731-8.333-8.333v-11.092c0-4.602 3.731-8.333 8.333-8.333h.111c4.602 0 8.333 3.731 8.333 8.333v11.092c0 4.602-3.731 8.333-8.333 8.333z" fill="#4671c6"/><path d="m157.573 88.792h-.111c-4.602 0-8.333-3.731-8.333-8.333v-11.092c0-4.602 3.731-8.333 8.333-8.333h.111c4.602 0 8.333 3.731 8.333 8.333v11.092c0 4.602-3.731 8.333-8.333 8.333z" fill="#4671c6"/><path d="m72.989 166.249h-17.749c-4.38 0-7.931-3.551-7.931-7.931v-14.602c0-7.665 6.214-13.879 13.879-13.879h5.853c7.665 0 13.879 6.214 13.879 13.879v14.602c0 4.38-3.55 7.931-7.931 7.931z" fill="#a4c9ff"/><path d="m76.589 226.725c-2.485 0-4.5-2.015-4.5-4.5v-12.475c0-4.396-3.577-7.974-7.975-7.974s-7.975 3.577-7.975 7.974v12.475c0 2.485-2.015 4.5-4.5 4.5s-4.5-2.015-4.5-4.5v-12.475c0-9.359 7.615-16.974 16.975-16.974s16.975 7.614 16.975 16.974v12.475c0 2.485-2.014 4.5-4.5 4.5z" fill="#f9a7a7"/><path d="m201.228 166.249h-17.749c-4.38 0-7.931-3.551-7.931-7.931v-14.602c0-7.665 6.214-13.879 13.879-13.879h5.853c7.665 0 13.879 6.214 13.879 13.879v14.602c0 4.38-3.551 7.931-7.931 7.931z" fill="#a4c9ff"/><path d="m204.828 226.725c-2.485 0-4.5-2.015-4.5-4.5v-12.475c0-4.396-3.577-7.974-7.975-7.974s-7.975 3.577-7.975 7.974v12.475c0 2.485-2.015 4.5-4.5 4.5s-4.5-2.015-4.5-4.5v-12.475c0-9.359 7.615-16.974 16.975-16.974s16.975 7.614 16.975 16.974v12.475c0 2.485-2.015 4.5-4.5 4.5z" fill="#f9a7a7"/><path d="m141.198 147.619h-8.668c-1.095 0-1.983-.888-1.983-1.983v-8.668c0-1.095.888-1.983 1.983-1.983h8.668c1.095 0 1.983.888 1.983 1.983v8.668c0 1.096-.888 1.983-1.983 1.983z" fill="#ffea92"/><path d="m163.008 147.619h-8.668c-1.095 0-1.983-.888-1.983-1.983v-8.668c0-1.095.888-1.983 1.983-1.983h8.668c1.095 0 1.983.888 1.983 1.983v8.668c-.001 1.096-.888 1.983-1.983 1.983z" fill="#f9a7a7"/><path d="m144.991 29.903h-33.982v-4.912c0-9.384 7.607-16.991 16.991-16.991 9.384 0 16.991 7.607 16.991 16.991z" fill="#f9a7a7"/><path d="m188.388 166.248v27.016c1.275-.308 2.598-.487 3.965-.487s2.691.181 3.965.487v-27.016z" fill="#e0ebfc"/><path d="m60.149 166.248v27.016c1.275-.307 2.598-.487 3.965-.487s2.691.18 3.965.487v-27.016z" fill="#e0ebfc"/><g fill="#3762cc"><path d="m150.997 216.955h-45.526c-14.64 0-26.55-11.91-26.55-26.551v-51.042c0-9.635 7.838-17.474 17.473-17.474h63.681c9.635 0 17.474 7.839 17.474 17.474v51.042c-.001 14.641-11.911 26.551-26.552 26.551zm-54.603-91.066c-7.429 0-13.473 6.044-13.473 13.474v51.042c0 12.435 10.116 22.551 22.55 22.551h45.526c12.435 0 22.551-10.116 22.551-22.551v-51.042c0-7.43-6.044-13.474-13.474-13.474z"/><path d="m165.793 125.889h-75.118c-17.502 0-31.74-14.238-31.74-31.74v-34.505c0-17.502 14.238-31.74 31.74-31.74h75.118c17.502 0 31.741 14.238 31.741 31.74v34.505c0 17.501-14.239 31.74-31.741 31.74zm-75.118-93.986c-15.296 0-27.74 12.444-27.74 27.74v34.505c0 15.296 12.444 27.74 27.74 27.74h75.118c15.297 0 27.741-12.444 27.741-27.74v-34.504c0-15.296-12.444-27.74-27.741-27.74h-75.118z"/><path d="m166.858 109.063h-77.248c-9.303 0-16.871-7.568-16.871-16.87v-34.56c0-9.302 7.568-16.87 16.871-16.87h77.248c9.302 0 16.87 7.568 16.87 16.87v34.561c.001 9.301-7.568 16.869-16.87 16.869zm-77.248-64.3c-7.097 0-12.871 5.773-12.871 12.87v34.561c0 7.097 5.774 12.87 12.871 12.87h77.248c7.097 0 12.87-5.773 12.87-12.87v-34.561c0-7.097-5.773-12.87-12.87-12.87z"/><path d="m72.989 168.248h-17.749c-5.476 0-9.931-4.455-9.931-9.931v-14.602c0-8.756 7.123-15.879 15.879-15.879h5.853c8.756 0 15.879 7.123 15.879 15.879v14.602c0 5.476-4.455 9.931-9.931 9.931zm-11.801-36.411c-6.55 0-11.879 5.329-11.879 11.879v14.602c0 3.271 2.66 5.931 5.931 5.931h17.749c3.271 0 5.931-2.66 5.931-5.931v-14.602c0-6.55-5.329-11.879-11.879-11.879z"/><path d="m76.59 228.725c-3.584 0-6.5-2.916-6.5-6.5v-12.475c0-3.294-2.681-5.974-5.975-5.974s-5.975 2.68-5.975 5.974v12.475c0 3.584-2.916 6.5-6.5 6.5s-6.5-2.916-6.5-6.5v-12.475c0-10.462 8.512-18.974 18.975-18.974s18.975 8.512 18.975 18.974v12.475c0 3.584-2.916 6.5-6.5 6.5zm-12.475-28.949c5.5 0 9.975 4.475 9.975 9.974v12.475c0 1.379 1.121 2.5 2.5 2.5s2.5-1.121 2.5-2.5v-12.475c0-8.257-6.718-14.974-14.975-14.974s-14.975 6.717-14.975 14.974v12.475c0 1.379 1.121 2.5 2.5 2.5s2.5-1.121 2.5-2.5v-12.475c.001-5.499 4.475-9.974 9.975-9.974z"/><path d="m201.229 168.248h-17.75c-5.476 0-9.931-4.455-9.931-9.931v-14.602c0-8.756 7.123-15.879 15.879-15.879h5.854c8.756 0 15.879 7.123 15.879 15.879v14.602c-.001 5.476-4.456 9.931-9.931 9.931zm-11.802-36.411c-6.55 0-11.879 5.329-11.879 11.879v14.602c0 3.271 2.66 5.931 5.931 5.931h17.75c3.271 0 5.931-2.66 5.931-5.931v-14.602c0-6.55-5.329-11.879-11.879-11.879z"/><path d="m204.828 228.725c-3.584 0-6.5-2.916-6.5-6.5v-12.475c0-3.294-2.681-5.974-5.975-5.974s-5.975 2.68-5.975 5.974v12.475c0 3.584-2.916 6.5-6.5 6.5s-6.5-2.916-6.5-6.5v-12.475c0-10.462 8.512-18.974 18.975-18.974s18.975 8.512 18.975 18.974v12.475c0 3.584-2.916 6.5-6.5 6.5zm-12.474-28.949c5.5 0 9.975 4.475 9.975 9.974v12.475c0 1.379 1.121 2.5 2.5 2.5s2.5-1.121 2.5-2.5v-12.475c0-8.257-6.718-14.974-14.975-14.974s-14.975 6.717-14.975 14.974v12.475c0 1.379 1.121 2.5 2.5 2.5s2.5-1.121 2.5-2.5v-12.475c0-5.499 4.475-9.974 9.975-9.974z"/><path d="m188.389 195.264c-.444 0-.881-.148-1.237-.429-.481-.379-.763-.958-.763-1.571v-27.016c0-1.104.896-2 2-2h7.931c1.104 0 2 .896 2 2v27.016c0 .612-.281 1.191-.762 1.571-.482.379-1.109.514-1.706.373-2.388-.572-4.627-.57-6.993 0-.156.037-.314.056-.47.056zm3.965-4.488c.646 0 1.304.037 1.966.109v-22.638h-3.931v22.638c.661-.072 1.317-.109 1.965-.109z"/><path d="m68.08 195.264c-.156 0-.314-.019-.47-.056-2.367-.572-4.608-.574-6.993 0-.593.142-1.225.006-1.705-.373-.481-.38-.763-.959-.763-1.571v-27.016c0-1.104.896-2 2-2h7.931c1.104 0 2 .896 2 2v27.016c0 .613-.281 1.192-.763 1.571-.356.28-.793.429-1.237.429zm-5.931-27.016v22.638c1.324-.145 2.608-.146 3.931 0v-22.638z"/></g><path d="m110.72 214.955v23.132c0 5.475 4.438 9.913 9.913 9.913h15.201c5.475 0 9.913-4.438 9.913-9.913v-23.132z" fill="#4671c6"/><path d="m135.835 250h-15.201c-6.569 0-11.913-5.344-11.913-11.913v-23.132c0-1.104.896-2 2-2h35.027c1.104 0 2 .896 2 2v23.132c0 6.569-5.344 11.913-11.913 11.913zm-23.114-33.045v21.132c0 4.363 3.55 7.913 7.913 7.913h15.201c4.363 0 7.913-3.55 7.913-7.913v-21.132z" fill="#3762cc"/><path d="m144.991 31.903h-33.982c-1.104 0-2-.896-2-2v-4.912c0-10.471 8.519-18.991 18.991-18.991s18.991 8.52 18.991 18.991v4.912c0 1.105-.895 2-2 2zm-31.982-4h29.982v-2.912c0-8.266-6.724-14.991-14.991-14.991s-14.991 6.725-14.991 14.991z" fill="#3762cc"/></svg>